<?xml version="1.0" encoding="UTF-8" standalone="no"?>
<!-- Created with Inkscape (http://www.inkscape.org/) -->

<svg
   width="285.16913"
   height="285.16913"
   viewBox="0 0 75.450996 75.451001"
   version="1.1"
   id="svg5"
   sodipodi:docname="pushbutton_mt.svg"
   inkscape:version="1.1.1 (3bf5ae0d25, 2021-09-20)"
   xmlns:inkscape="http://www.inkscape.org/namespaces/inkscape"
   xmlns:sodipodi="http://sodipodi.sourceforge.net/DTD/sodipodi-0.dtd"
   xmlns:xlink="http://www.w3.org/1999/xlink"
   xmlns="http://www.w3.org/2000/svg"
   xmlns:svg="http://www.w3.org/2000/svg">
  <sodipodi:namedview
     id="namedview20"
     pagecolor="#ffffff"
     bordercolor="#000000"
     borderopacity="0.25"
     inkscape:showpageshadow="2"
     inkscape:pageopacity="0.0"
     inkscape:pagecheckerboard="0"
     inkscape:deskcolor="#d1d1d1"
     inkscape:document-units="mm"
     showgrid="false"
     inkscape:zoom="0.7494239"
     inkscape:cx="42.032286"
     inkscape:cy="60.713303"
     inkscape:window-width="1280"
     inkscape:window-height="999"
     inkscape:window-x="0"
     inkscape:window-y="0"
     inkscape:window-maximized="1"
     inkscape:current-layer="svg5"
     inkscape:pageshadow="2"
     units="px"
     width="285.16913px" />
  <defs
     id="defs2">
    <linearGradient
       id="linearGradient3247">
      <stop
         style="stop-color:#67089e;stop-opacity:1;"
         offset="0"
         id="stop3243" />
      <stop
         style="stop-color:#e556c9;stop-opacity:1;"
         offset="0.52066118"
         id="stop3251" />
      <stop
         style="stop-color:#ff26a0;stop-opacity:1;"
         offset="1"
         id="stop3245" />
    </linearGradient>
    <linearGradient
       xlink:href="#linearGradient3247"
       id="linearGradient3249"
       x1="144.11668"
       y1="176.35901"
       x2="88.176552"
       y2="119.98159"
       gradientUnits="userSpaceOnUse" />
    <linearGradient
       xlink:href="#linearGradient3247"
       id="linearGradient3300"
       gradientUnits="userSpaceOnUse"
       x1="144.11668"
       y1="176.35901"
       x2="88.176552"
       y2="119.98159" />
    <linearGradient
       xlink:href="#linearGradient3247"
       id="linearGradient3302"
       gradientUnits="userSpaceOnUse"
       x1="144.11668"
       y1="176.35901"
       x2="88.176552"
       y2="119.98159" />
    <linearGradient
       xlink:href="#linearGradient3247"
       id="linearGradient3304"
       gradientUnits="userSpaceOnUse"
       x1="144.11668"
       y1="176.35901"
       x2="88.176552"
       y2="119.98159" />
    <linearGradient
       xlink:href="#linearGradient3247"
       id="linearGradient3306"
       gradientUnits="userSpaceOnUse"
       x1="144.11668"
       y1="176.35901"
       x2="88.176552"
       y2="119.98159" />
    <linearGradient
       xlink:href="#linearGradient1731"
       id="linearGradient1733"
       x1="5.0185294"
       y1="3.7497528"
       x2="30.632324"
       y2="23.261608"
       gradientUnits="userSpaceOnUse" />
    <linearGradient
       id="linearGradient1731">
      <stop
         style="stop-color:#00fbf5;stop-opacity:1;"
         offset="0"
         id="stop1727" />
      <stop
         style="stop-color:#0020b9;stop-opacity:1;"
         offset="1"
         id="stop1729" />
    </linearGradient>
    <linearGradient
       xlink:href="#linearGradient3247"
       id="linearGradient3249-3"
       x1="144.11668"
       y1="176.35901"
       x2="88.176552"
       y2="119.98159"
       gradientUnits="userSpaceOnUse" />
    <linearGradient
       xlink:href="#linearGradient3296"
       id="linearGradient3298"
       x1="43.412548"
       y1="202.38069"
       x2="152.59833"
       y2="249.23216"
       gradientUnits="userSpaceOnUse" />
    <linearGradient
       id="linearGradient3296">
      <stop
         style="stop-color:#0cffe5;stop-opacity:1;"
         offset="0"
         id="stop3292" />
      <stop
         style="stop-color:#f8ff0e;stop-opacity:1;"
         offset="1"
         id="stop3294" />
    </linearGradient>
    <linearGradient
       inkscape:collect="always"
       xlink:href="#linearGradient1731"
       id="linearGradient1708"
       gradientUnits="userSpaceOnUse"
       x1="5.0185294"
       y1="3.7497528"
       x2="30.632324"
       y2="23.261608" />
    <linearGradient
       inkscape:collect="always"
       xlink:href="#linearGradient1731"
       id="linearGradient1710"
       gradientUnits="userSpaceOnUse"
       x1="5.0185294"
       y1="3.7497528"
       x2="30.632324"
       y2="23.261608" />
  </defs>
  <rect
     style="fill:#ffffff;stroke:#ffffff;stroke-width:1.84983;stroke-opacity:1;fill-opacity:1"
     id="rect893"
     width="73.613174"
     height="73.613174"
     x="0.92491579"
     y="0.92491579" />
  <g
     id="g1725"
     style="font-size:25.4px;font-family:'Maven Pro';-inkscape-font-specification:'Maven Pro';fill:url(#linearGradient1733);fill-opacity:1;stroke:none;stroke-width:0.264583"
     transform="matrix(2.8885491,0,0,2.8885491,-11.858601,3.5780964)">
    <path
       d="m 25.692955,20.051245 q -1.3462,0 -2.2606,-0.8128 -0.9144,-0.8382 -0.9144,-2.4638 V 8.8498455 h -2.2098 v -1.6764 h 2.2098 V 3.5920456 h 1.8288 v 3.5813999 h 3.2766 v 1.6764 h -3.2766 v 7.3405995 q 0,1.0668 0.3302,1.6002 0.3302,0.5334 1.3462,0.5334 0.4572,0 0.889,-0.0762 0.4318,-0.1016 0.7112,-0.2286 v 1.7272 q -0.3556,0.127 -0.9144,0.2032 -0.5334,0.1016 -1.016,0.1016 z"
       id="path524"
       style="fill:url(#linearGradient1708);fill-opacity:1;stroke:none" />
    <path
       style="fill:url(#linearGradient1710);fill-opacity:1;stroke:none;stroke-width:0.0128149;stroke-opacity:1"
       d="M 6.7081373,11.75515 V 3.6837114 L 7.2632738,4.405259 c 3.3522282,4.3571126 5.5313242,7.160117 5.5674922,7.16155 0.02428,9.52e-4 1.342466,-1.7786402 2.929314,-3.9546696 1.586847,-2.1760288 2.885607,-3.9523533 2.886133,-3.9473875 5.29e-4,0.00497 -0.0049,3.6434101 -0.01212,8.0854321 l -0.01308,8.076404 h -0.902091 -0.90209 l 0.03093,-1.75574 c 0.01701,-0.965657 0.04429,-3.292315 0.06062,-5.170351 l 0.02969,-3.414612 -0.119733,0.1210855 c -0.06585,0.066597 -0.953654,1.0582875 -1.972891,2.2037565 -1.019237,1.145469 -1.912461,2.144318 -1.984943,2.219664 l -0.131769,0.136993 -2.029507,-2.625858 -2.0295064,-2.625857 -0.029751,1.738134 c -0.016362,0.955974 -0.032709,3.410931 -0.036326,5.45546 l -0.00657,3.717325 H 7.6526042 6.7081373 Z"
       id="path1688" />
  </g>
</svg>
