<?xml version="1.0" encoding="UTF-8" standalone="no"?>
<!-- Created with Inkscape (http://www.inkscape.org/) -->

<svg
   width="222.57408mm"
   height="47.543205mm"
   viewBox="0 0 222.57408 47.543205"
   version="1.1"
   id="svg5"
   xmlns:xlink="http://www.w3.org/1999/xlink"
   xmlns="http://www.w3.org/2000/svg"
   xmlns:svg="http://www.w3.org/2000/svg">
  <defs
     id="defs2">
    <linearGradient
       id="linearGradient1731">
      <stop
         style="stop-color:#00fbf5;stop-opacity:1;"
         offset="0"
         id="stop1727" />
      <stop
         style="stop-color:#0020b9;stop-opacity:1;"
         offset="1"
         id="stop1729" />
    </linearGradient>
    <linearGradient
       xlink:href="#linearGradient1731"
       id="linearGradient1733"
       x1="5.0185294"
       y1="3.7497528"
       x2="30.632324"
       y2="23.261608"
       gradientUnits="userSpaceOnUse" />
    <linearGradient
       xlink:href="#linearGradient1731"
       id="linearGradient2585"
       gradientUnits="userSpaceOnUse"
       x1="5.0185294"
       y1="3.7497528"
       x2="30.632324"
       y2="23.261608" />
    <linearGradient
       xlink:href="#linearGradient1731"
       id="linearGradient2587"
       gradientUnits="userSpaceOnUse"
       x1="5.0185294"
       y1="3.7497528"
       x2="30.632324"
       y2="23.261608" />
  </defs>
  <g
     id="layer1"
     transform="translate(-37.212958,-15.379194)">
    <g
       aria-label="Mt"
       id="text290"
       style="font-size:25.4px;font-family:'Maven Pro';-inkscape-font-specification:'Maven Pro';fill:#000080;stroke-width:0.264583">
      <g
         id="g4714">
        <g
           aria-label="MarkusTegelane"
           id="text720"
           style="font-size:19.7556px;fill:#ffffff;fill-opacity:1;stroke:#6d6d6d;stroke-width:0.5;stroke-opacity:0.073286"
           transform="translate(17.195947,-23.725298)">
          <g
             id="path1627"
             style="fill:#ffffff;fill-opacity:1;stroke:#6d6d6d;stroke-opacity:0.073286">
            <path
               style="color:#000000;-inkscape-font-specification:'Maven Pro';fill:#ffffff;fill-opacity:1;stroke:#6d6d6d;stroke-opacity:0.073286"
               d="M 100.46204,67.726097 V 54.549112 h 1.54094 l 4.87963,7.487372 -0.96802,0.217312 5.15621,-7.704684 h 1.54093 v 13.176985 h -1.4224 V 55.971515 h 0.63218 l -5.43279,7.625662 -5.01792,-7.467617 0.51364,-0.730957 v 12.327494 z"
               id="path2259" />
            <path
               style="color:#000000;-inkscape-font-specification:'Maven Pro';fill:#ffffff;fill-opacity:1;stroke:#6d6d6d;stroke-opacity:0.073286"
               d="m 100.21289,54.298828 v 13.677734 h 0.25 1.67188 V 57.714844 l 3.26562,4.859375 -0.041,0.06055 0.0703,-0.01563 0.95312,1.417968 4.55664,-6.396484 V 67.97656 h 1.92188 V 54.298828 h -1.92383 l -4.45703,6.660156 -4.3418,-6.660156 z m 0.5,0.5 h 1.1543 l 0.0645,0.09766 -0.86328,1.230469 0.56641,0.84375 v 10.505859 h -0.92188 z m 10.49219,0 h 1.15625 v 12.677734 h -0.92188 V 56.9375 l 0.86719,-1.216797 h -1.36719 v 1.056641 l -3.75195,5.267578 -0.41016,-0.628906 z m -9.07031,0.410156 4.04296,6.203125 -0.47656,0.712891 -3.5664,-5.306641 z m 4.33984,6.658203 0.002,0.0039 -0.006,0.002 z m 0.56055,0.390625 -0.64063,0.900391 -0.4414,-0.65625 z"
               id="path2261" />
          </g>
          <g
             id="path1624"
             style="fill:#ffffff;fill-opacity:1;stroke:#6d6d6d;stroke-opacity:0.073286">
            <path
               style="color:#000000;-inkscape-font-specification:'Maven Pro';fill:#ffffff;fill-opacity:1;stroke:#6d6d6d;stroke-opacity:0.073286"
               d="m 119.26937,68.022431 q -0.65194,0 -1.32363,-0.138289 -0.65193,-0.138289 -1.22484,-0.474134 -0.55316,-0.335846 -0.90876,-0.908758 -0.33585,-0.592668 -0.33585,-1.48167 0,-1.224847 0.45438,-1.955804 0.47414,-0.750713 1.28412,-1.066803 0.82973,-0.335845 1.89653,-0.335845 0.80998,0 1.40265,0.09878 0.59267,0.09878 1.04705,0.296334 0.47413,0.1778 0.84949,0.414868 l 0.27658,1.303869 q -0.45438,-0.335845 -1.32363,-0.572912 -0.84949,-0.256823 -1.87678,-0.256823 -1.2446,0 -1.91629,0.474134 -0.67169,0.474135 -0.67169,1.382892 0,0.730958 0.39511,1.165581 0.41487,0.434623 1.02729,0.612423 0.63218,0.177801 1.28411,0.177801 1.28412,0 1.93605,-0.177801 0.67169,-0.197556 0.67169,-0.869246 v -4.524032 q 0,-1.145825 -0.67169,-1.679226 -0.67169,-0.533402 -1.91629,-0.533402 -0.79022,0 -1.67923,0.237068 -0.86924,0.217311 -1.50142,0.711201 v -1.422403 q 0.61242,-0.395112 1.63971,-0.592668 1.02729,-0.217312 1.99532,-0.217312 0.65193,0 1.20509,0.13829 0.55316,0.118533 0.98778,0.375356 0.43462,0.237067 0.73096,0.632179 0.31609,0.375357 0.47413,0.889002 0.1778,0.49389 0.1778,1.126069 v 4.780856 q 0,1.047046 -0.63218,1.560692 -0.61242,0.513646 -1.61996,0.67169 -0.98778,0.158045 -2.1336,0.158045 z"
               id="path2265" />
            <path
               style="color:#000000;-inkscape-font-specification:'Maven Pro';fill:#ffffff;fill-opacity:1;stroke:#6d6d6d;stroke-opacity:0.073286"
               d="m 120.08008,57.439453 c -0.66281,0 -1.34394,0.07505 -2.04297,0.222656 -0.70616,0.135801 -1.28268,0.341267 -1.72852,0.628907 l -0.11523,0.07227 v 2.072266 l 0.4043,-0.316406 c 0.39166,-0.305989 0.8581,-0.528492 1.4082,-0.666016 h 0.002 0.002 c 0.57485,-0.153294 1.11342,-0.228516 1.61523,-0.228516 0.79402,0 1.37281,0.16968 1.76172,0.478516 0.37952,0.301385 0.57617,0.769343 0.57617,1.484375 v 0.789062 c -0.1073,-0.04849 -0.19755,-0.109177 -0.3125,-0.152343 -0.32333,-0.139604 -0.68771,-0.242547 -1.0957,-0.310547 -0.41333,-0.06889 -0.89321,-0.103516 -1.44336,-0.103516 -0.73744,0 -1.40254,0.117592 -1.99024,0.355469 -0.58581,0.229244 -1.0609,0.623455 -1.40234,1.164062 v 0.002 c -0.33597,0.540477 -0.49219,1.240412 -0.49219,2.08789 0,0.62415 0.11686,1.16371 0.36719,1.605469 l 0.004,0.0039 0.002,0.0039 c 0.25615,0.412694 0.58982,0.745943 0.99219,0.990235 l 0.002,0.002 c 0.40472,0.237248 0.84052,0.406274 1.30078,0.503906 0.46344,0.09541 0.9227,0.142578 1.375,0.142578 0.77468,0 1.49898,-0.0526 2.17188,-0.160156 0.70336,-0.110331 1.28836,-0.348425 1.73828,-0.724609 0.48597,-0.394856 0.72461,-1.005562 0.72461,-1.753907 v -4.78125 c 0,-0.442678 -0.0607,-0.8452 -0.18946,-1.205078 -0.1134,-0.365994 -0.28544,-0.689981 -0.51562,-0.964843 -0.21637,-0.287184 -0.48509,-0.520039 -0.80078,-0.69336 -5.1e-4,-2.99e-4 -10e-4,2.99e-4 -0.002,0 -0.31365,-0.1851 -0.66721,-0.318454 -1.05664,-0.402344 -0.38968,-0.0969 -0.80953,-0.146484 -1.25976,-0.146484 z m 0,0.5 c 0.41694,0 0.79818,0.04427 1.14453,0.130859 l 0.004,0.002 h 0.004 c 0.34572,0.07408 0.64785,0.191503 0.91211,0.347656 l 0.004,0.002 0.004,0.002 c 0.25946,0.141524 0.47363,0.326824 0.65039,0.5625 l 0.004,0.0059 0.006,0.0059 c 0.18776,0.222963 0.32916,0.486767 0.42578,0.800781 l 0.002,0.0059 0.002,0.0059 c 0.10702,0.297275 0.16211,0.643001 0.16211,1.041015 v 4.78125 c 0,0.647716 -0.18214,1.07523 -0.53907,1.365235 l -0.002,0.002 -0.002,0.002 c -0.36623,0.307165 -0.85966,0.515096 -1.49805,0.615234 -0.64363,0.102981 -1.34136,0.154297 -2.09375,0.154297 -0.41632,0 -0.84002,-0.04411 -1.27148,-0.132812 h -0.002 c -0.40829,-0.0868 -0.7898,-0.235079 -1.14843,-0.445313 -0.33223,-0.202705 -0.60362,-0.473935 -0.82032,-0.822265 -0.19527,-0.347603 -0.30078,-0.793621 -0.30078,-1.351563 0,-0.78485 0.14668,-1.388231 0.41602,-1.822265 0.29023,-0.459527 0.67113,-0.774432 1.16406,-0.966797 v -0.002 h 0.002 c 0.51862,-0.209916 1.11777,-0.31836 1.80274,-0.31836 0.52982,0 0.98443,0.03289 1.36133,0.0957 0.37867,0.06311 0.70783,0.157367 0.98828,0.279297 l 0.006,0.002 0.006,0.0039 c 0.18414,0.06905 0.33155,0.156281 0.49023,0.238281 v 0.664062 c -0.18735,-0.07208 -0.30351,-0.169211 -0.52734,-0.230468 -5.9e-4,-1.77e-4 -0.001,1.76e-4 -0.002,0 -0.59257,-0.178939 -1.24226,-0.267578 -1.94726,-0.267579 -0.86148,10e-7 -1.55332,0.16149 -2.06055,0.519532 -0.50927,0.359485 -0.77734,0.920459 -0.77734,1.58789 0,0.53235 0.1506,0.992619 0.46094,1.333985 l 0.002,0.002 0.002,0.002 c 0.30725,0.321875 0.69253,0.550161 1.13867,0.679687 h 0.002 c 0.44301,0.124599 0.89421,0.187501 1.35156,0.1875 0.86762,0 1.52713,-0.05605 2.00195,-0.185546 l 0.002,-0.002 h 0.002 c 0.26069,-0.07667 0.48081,-0.208163 0.63086,-0.402343 0.15005,-0.19418 0.2207,-0.441468 0.2207,-0.707032 v -1.767578 c 0.0174,0.01192 0.0599,0.0212 0.0762,0.0332 l 0.5293,0.390625 -0.43555,-2.050781 -0.0879,-0.05664 c -0.0243,-0.01533 -0.0572,-0.02411 -0.082,-0.03906 V 61.1875 c 0,-0.812733 -0.24956,-1.465184 -0.76562,-1.875 -0.50669,-0.402366 -1.20682,-0.587891 -2.07227,-0.587891 -0.55181,0 -1.13365,0.0833 -1.74414,0.246094 -0.45338,0.113782 -0.82038,0.339592 -1.1875,0.564453 v -0.865234 c 0.36346,-0.215023 0.82245,-0.399298 1.4375,-0.517578 h 0.002 0.004 c 0.6693,-0.141584 1.31671,-0.212891 1.94336,-0.212891 z m -0.59375,5.255859 c 0.66402,0 1.26508,0.08296 1.80469,0.246094 h 0.004 l 0.002,0.002 c 0.3008,0.08204 0.44984,0.188268 0.66601,0.285157 v 1.982421 c 0,0.18223 -0.0414,0.304823 -0.11523,0.400391 -0.0739,0.09557 -0.18985,0.173485 -0.37696,0.228516 -0.39458,0.107156 -1.02244,0.167969 -1.86523,0.167968 -0.41124,0 -0.81557,-0.05585 -1.21484,-0.167968 h -0.002 c -0.3681,-0.107158 -0.6652,-0.287438 -0.91015,-0.542969 -0.21574,-0.237989 -0.33008,-0.552662 -0.33008,-0.994141 0,-0.544243 0.18009,-0.906993 0.5664,-1.179687 0.38836,-0.274137 0.9735,-0.427735 1.77149,-0.427735 z"
               id="path2267" />
          </g>
          <g
             id="path1621"
             style="fill:#ffffff;fill-opacity:1;stroke:#6d6d6d;stroke-opacity:0.073286">
            <path
               style="color:#000000;-inkscape-font-specification:'Maven Pro';fill:#ffffff;fill-opacity:1;stroke:#6d6d6d;stroke-opacity:0.073286"
               d="m 126.81602,67.726097 v -9.06782 q 0.23707,-0.09878 0.90876,-0.335845 0.69145,-0.237068 1.63972,-0.434624 0.96802,-0.197556 1.99531,-0.197556 0.15805,0 0.31609,0.03951 0.15805,0.03951 0.31609,0.07902 v 1.264358 q -0.51364,-0.05927 -1.00753,-0.05927 -0.47414,0 -0.92852,0.05927 -0.45438,0.03951 -0.90875,0.118534 -0.45438,0.07902 -0.90876,0.158045 v 8.376374 z"
               id="path2271" />
            <path
               style="color:#000000;-inkscape-font-specification:'Maven Pro';fill:#ffffff;fill-opacity:1;stroke:#6d6d6d;stroke-opacity:0.073286"
               d="m 131.35937,57.439453 c -0.70088,0 -1.38259,0.06796 -2.04492,0.203125 -0.63985,0.133302 -1.19594,0.280853 -1.66992,0.443359 h -0.002 -0.002 c -0.44937,0.158598 -0.75005,0.271013 -0.91993,0.341797 l -0.15429,0.06445 v 9.484375 h 0.25 1.67187 v -8.416015 c 0.23392,-0.04068 0.46726,-0.08237 0.70117,-0.123047 0.29599,-0.05148 0.59292,-0.08952 0.88867,-0.115234 h 0.004 l 0.006,-0.002 c 0.29186,-0.03807 0.59081,-0.05664 0.89648,-0.05664 0.31926,0 0.64516,0.02013 0.97852,0.05859 l 0.2793,0.03125 v -1.740235 l -0.50586,-0.126953 c -0.12439,-0.0311 -0.25076,-0.04687 -0.37696,-0.04687 z m 0,0.5 c 0.0845,0 0.16953,0.01162 0.25586,0.0332 l 0.12696,0.03125 v 0.804688 c -0.25446,-0.02168 -0.50991,-0.04492 -0.75782,-0.04492 -0.32651,0 -0.64695,0.02154 -0.96093,0.0625 -0.30617,0.02696 -0.614,0.06593 -0.91992,0.11914 -0.30292,0.05268 -0.60529,0.10552 -0.90821,0.158204 l -0.20703,0.03516 v 8.33789 h -0.92187 v -8.644531 c 0.16509,-0.06481 0.37209,-0.14349 0.74023,-0.273437 0.44745,-0.15341 0.98382,-0.295795 1.60742,-0.425782 0.62837,-0.128239 1.27648,-0.193359 1.94531,-0.193359 z"
               id="path2273" />
          </g>
          <g
             id="path1618"
             style="fill:#ffffff;fill-opacity:1;stroke:#6d6d6d;stroke-opacity:0.073286">
            <path
               style="color:#000000;-inkscape-font-specification:'Maven Pro';fill:#ffffff;fill-opacity:1;stroke:#6d6d6d;stroke-opacity:0.073286"
               d="m 135.37021,61.819173 4.32648,-3.95112 h 1.778 l -5.78839,5.1167 z m 0.31609,5.906924 h -1.4224 V 54.114489 h 1.4224 z m 0.39512,-6.143991 6.10448,6.143991 h -1.89654 l -5.17597,-5.235234 z"
               id="path2277" />
            <path
               style="color:#000000;-inkscape-font-specification:'Maven Pro';fill:#ffffff;fill-opacity:1;stroke:#6d6d6d;stroke-opacity:0.073286"
               d="m 134.01367,53.865234 v 14.111328 h 1.92188 v -0.25 -4.048828 l 4.25,4.298828 h 2.60156 l -5.7832,-5.820312 5.13086,-4.539063 h -2.53516 l -3.66406,3.347657 v -7.09961 z m 0.5,0.5 h 0.92188 v 7.056641 l -0.34571,0.316406 0.0391,0.146485 0.0547,0.199218 -0.42773,0.400391 0.67969,0.6875 v 4.304687 h -0.92188 z m 5.2793,3.751953 h 1.02344 l -4.16602,3.681641 -0.42383,-0.423828 z m -3.7168,3.8125 0.19922,0.201172 -0.33984,0.300782 V 62.0625 Z m 0.55274,0.556641 4.95507,4.990234 h -1.18945 l -4.38867,-4.439453 z"
               id="path2279" />
          </g>
          <g
             id="path1615"
             style="fill:#ffffff;fill-opacity:1;stroke:#6d6d6d;stroke-opacity:0.073286">
            <path
               style="color:#000000;-inkscape-font-specification:'Maven Pro';fill:#ffffff;fill-opacity:1;stroke:#6d6d6d;stroke-opacity:0.073286"
               d="m 148.48793,68.022431 q -1.30387,0 -2.23239,-0.454379 -0.92851,-0.454378 -1.4224,-1.323625 -0.47414,-0.869246 -0.47414,-2.133605 v -6.242769 h 1.42241 v 5.92668 q 0,1.501425 0.65193,2.212627 0.67169,0.691446 2.05459,0.691446 1.38289,0 2.03482,-0.691446 0.67169,-0.711202 0.67169,-2.212627 v -5.92668 h 1.42241 v 6.242769 q 0,1.876782 -1.08656,2.904074 -1.0668,1.007535 -3.04236,1.007535 z"
               id="path2283" />
            <path
               style="color:#000000;-inkscape-font-specification:'Maven Pro';fill:#ffffff;fill-opacity:1;stroke:#6d6d6d;stroke-opacity:0.073286"
               d="m 144.10937,57.617187 v 6.494141 c 0,0.874156 0.16342,1.627723 0.50391,2.251953 l 0.002,0.002 v 0.002 c 0.35326,0.621737 0.87143,1.10289 1.53125,1.425782 0.66052,0.323226 1.44352,0.478515 2.3418,0.478515 1.35954,0 2.44569,-0.349635 3.21289,-1.074218 0.7796,-0.737075 1.16602,-1.786505 1.16602,-3.085938 v -6.494141 h -1.92188 v 6.177735 c 0,0.963668 -0.21602,1.630727 -0.60351,2.041015 -0.3741,0.396768 -0.97326,0.613282 -1.85352,0.613282 -0.87834,0 -1.48294,-0.215499 -1.87109,-0.613282 -0.37479,-0.409633 -0.58594,-1.077102 -0.58594,-2.041015 v -6.177735 z m 0.5,0.5 h 0.92188 v 5.677735 c 0,1.037133 0.22492,1.842127 0.71875,2.380859 l 0.002,0.0039 0.002,0.002 c 0.50754,0.522469 1.27077,0.767578 2.23437,0.767578 0.96359,0 1.72165,-0.244371 2.2168,-0.769532 0.50809,-0.53798 0.74023,-1.346535 0.74023,-2.384765 v -5.677735 h 0.92188 v 5.994141 c 0,1.202941 -0.33867,2.09001 -1.00782,2.722656 -0.65519,0.618796 -1.59655,0.9375 -2.87109,0.9375 -0.8402,0 -1.54553,-0.145123 -2.12305,-0.427734 -0.5773,-0.28251 -1.00732,-0.684685 -1.3125,-1.220703 -4.7e-4,-8.26e-4 -0.001,-0.0011 -0.002,-0.002 -0.29052,-0.534209 -0.44141,-1.199778 -0.44141,-2.009766 z"
               id="path2285" />
          </g>
          <g
             id="path1612"
             style="fill:#ffffff;fill-opacity:1;stroke:#6d6d6d;stroke-opacity:0.073286">
            <path
               style="color:#000000;-inkscape-font-specification:'Maven Pro';fill:#ffffff;fill-opacity:1;stroke:#6d6d6d;stroke-opacity:0.073286"
               d="m 158.56326,68.022431 q -1.0668,0 -1.79775,-0.217311 -0.71121,-0.217312 -1.48167,-0.612424 V 65.69127 q 0.61242,0.335846 1.08655,0.572913 0.47414,0.237067 0.96803,0.355601 0.49389,0.09878 1.12607,0.09878 0.98778,0 1.6002,-0.434624 0.63218,-0.434623 0.63218,-1.126069 0,-0.553157 -0.31609,-0.849491 -0.29633,-0.296334 -0.77047,-0.49389 -0.47413,-0.197556 -0.98778,-0.414867 -0.57291,-0.158045 -1.16558,-0.335845 -0.57291,-0.197556 -1.0668,-0.49389 -0.47414,-0.31609 -0.77047,-0.790224 -0.29633,-0.49389 -0.29633,-1.264359 0,-0.750713 0.29633,-1.284114 0.31609,-0.533401 0.80998,-0.869246 0.49389,-0.355601 1.10631,-0.513646 0.61243,-0.158045 1.22485,-0.158045 0.889,0 1.52118,0.237068 0.63218,0.237067 1.30387,0.533401 v 1.422403 q -0.75071,-0.395112 -1.34338,-0.632179 -0.59267,-0.256823 -1.40265,-0.256823 -0.80998,0 -1.46191,0.335845 -0.63218,0.31609 -0.63218,0.98778 0,0.553157 0.31609,0.889002 0.33584,0.31609 0.86925,0.513646 0.5334,0.1778 1.14582,0.355601 0.49389,0.158044 1.02729,0.3556 0.5334,0.177801 0.98778,0.49389 0.45438,0.296334 0.73096,0.790224 0.29633,0.49389 0.29633,1.264359 0,1.047047 -0.5334,1.738493 -0.5334,0.67169 -1.36313,0.98778 -0.80998,0.316089 -1.65948,0.316089 z"
               id="path2289" />
            <path
               style="color:#000000;-inkscape-font-specification:'Maven Pro';fill:#ffffff;fill-opacity:1;stroke:#6d6d6d;stroke-opacity:0.073286"
               d="m 158.76172,57.439453 c -0.42979,0 -0.86125,0.05562 -1.28906,0.166016 -0.43415,0.112038 -0.83025,0.295494 -1.1836,0.548828 -7.6e-4,5.2e-4 -0.001,0.0014 -0.002,0.002 -0.35861,0.244353 -0.65519,0.563153 -0.88281,0.947266 l -0.002,0.0039 -0.002,0.002 c -0.22173,0.399125 -0.32617,0.872881 -0.32617,1.40625 0,0.545696 0.10497,1.014139 0.33203,1.392578 v 0.002 l 0.002,0.002 c 0.21608,0.345733 0.49966,0.63584 0.84375,0.865235 l 0.004,0.0039 0.006,0.0039 c 0.34481,0.206887 0.71585,0.378581 1.11328,0.515625 l 0.006,0.002 h 0.004 c 0.3928,0.117841 0.7801,0.229047 1.16015,0.333985 0.33559,0.141939 0.65842,0.278897 0.96875,0.408203 0.2922,0.121747 0.5194,0.269397 0.68945,0.439453 l 0.004,0.0039 0.002,0.002 c 0.15411,0.144471 0.23829,0.346817 0.23829,0.667969 0,0.384773 -0.15299,0.665237 -0.52344,0.919922 h -0.002 l -0.002,0.002 c -0.35654,0.253035 -0.83322,0.388672 -1.45508,0.388672 -0.40623,0 -0.76424,-0.03257 -1.07226,-0.09375 -0.30871,-0.07443 -0.61155,-0.184683 -0.91016,-0.333984 -0.31236,-0.156181 -0.67195,-0.345617 -1.07812,-0.56836 l -0.3711,-0.203125 v 2.076172 l 0.13672,0.07031 c 0.52487,0.269168 1.03293,0.47903 1.52344,0.628906 0.51914,0.154341 1.14097,0.226562 1.86914,0.226562 0.5967,0 1.18301,-0.111019 1.75,-0.332031 0.59155,-0.225354 1.08577,-0.582179 1.46875,-1.064453 l 0.002,-0.002 v -0.002 c 0.39288,-0.509285 0.58594,-1.150142 0.58594,-1.890625 0,-0.544972 -0.1056,-1.012449 -0.33203,-1.390625 -0.20174,-0.358481 -0.47255,-0.652671 -0.80664,-0.871094 -0.32154,-0.22317 -0.67072,-0.398051 -1.04688,-0.523438 -0.356,-0.131731 -0.7005,-0.251583 -1.03125,-0.357421 l -0.002,-0.002 h -0.004 c -0.40488,-0.117546 -0.78314,-0.236336 -1.13476,-0.353515 h -0.002 c -0.32226,-0.120466 -0.57559,-0.272632 -0.76758,-0.451172 -0.16194,-0.173572 -0.2461,-0.393572 -0.2461,-0.712891 0,-0.369361 0.13605,-0.586576 0.49414,-0.765625 h 0.002 c 0.39715,-0.204593 0.84222,-0.308593 1.34765,-0.308593 0.51357,0 0.94575,0.08163 1.30274,0.236328 l 0.004,0.002 h 0.004 c 0.38444,0.153775 0.82365,0.360717 1.31836,0.621094 l 0.36719,0.193359 v -2 l -0.14844,-0.06445 c -0.45177,-0.19931 -0.8921,-0.379214 -1.31836,-0.539063 -0.45753,-0.171573 -0.99253,-0.253906 -1.60742,-0.253906 z m 0,0.5 c 0.57044,0 1.04626,0.07814 1.43164,0.222656 0.36875,0.138281 0.75253,0.297531 1.14258,0.466797 v 0.861328 c -0.3484,-0.173503 -0.69862,-0.350349 -0.99414,-0.46875 -0.43324,-0.187735 -0.93555,-0.277343 -1.50196,-0.277343 -0.57454,0 -1.10408,0.120081 -1.57617,0.363281 -0.48315,0.242699 -0.76758,0.685701 -0.76758,1.210937 0,0.41639 0.12514,0.786768 0.38282,1.060547 l 0.006,0.0039 0.006,0.0059 c 0.25307,0.238185 0.57283,0.425555 0.95313,0.566406 l 0.004,0.002 h 0.004 c 0.35912,0.119705 0.74521,0.240039 1.15625,0.359375 0.32312,0.103529 0.66,0.220065 1.00977,0.34961 l 0.004,0.002 h 0.004 c 0.33364,0.111214 0.64052,0.265804 0.92383,0.46289 l 0.004,0.002 0.002,0.002 c 0.26913,0.175519 0.4841,0.40619 0.65039,0.703125 l 0.002,0.0039 0.002,0.002 c 0.16805,0.28008 0.25977,0.655124 0.25977,1.136719 0,0.653875 -0.16182,1.169917 -0.47852,1.582031 -3.3e-4,4.21e-4 -0.002,-4.21e-4 -0.002,0 -0.32805,0.41266 -0.74163,0.714257 -1.25586,0.910156 -0.51241,0.199965 -1.03498,0.298828 -1.57031,0.298828 -0.69345,0 -1.26939,-0.06996 -1.72461,-0.205078 h -0.002 c -0.41434,-0.126709 -0.85179,-0.315968 -1.30274,-0.539062 v -0.921875 c 0.2515,0.134476 0.51276,0.276885 0.72461,0.382812 0.33224,0.166119 0.6731,0.291388 1.02149,0.375 h 0.006 l 0.004,0.002 c 0.34938,0.06988 0.74131,0.103516 1.17578,0.103516 0.69447,0 1.28239,-0.154703 1.74219,-0.480469 0.47147,-0.324773 0.74024,-0.793526 0.74024,-1.330078 0,-0.415702 -0.12809,-0.778694 -0.39454,-1.029297 -0.2246,-0.223713 -0.50717,-0.40387 -0.8457,-0.544922 -0.31563,-0.131514 -0.64428,-0.269351 -0.98633,-0.414062 l -0.0156,-0.0078 -0.0156,-0.0039 c -0.37678,-0.10394 -0.76051,-0.213194 -1.15039,-0.330078 l -0.006,-0.002 c -0.001,-4.2e-4 -0.002,-0.0015 -0.004,-0.002 -0.35884,-0.124477 -0.69188,-0.278933 -1,-0.462891 l -0.002,-0.002 c -0.28577,-0.19097 -0.51515,-0.424941 -0.69336,-0.708984 v -0.002 c -4.9e-4,-7.91e-4 -0.001,-0.0012 -0.002,-0.002 -0.16688,-0.279742 -0.25781,-0.65102 -0.25781,-1.130859 0,-0.466833 0.0908,-0.848353 0.26367,-1.160156 2.8e-4,-4.99e-4 -2.8e-4,-0.0015 0,-0.002 0.19274,-0.32333 0.43547,-0.583228 0.73242,-0.785157 l 0.002,-0.002 0.004,-0.002 c 0.30375,-0.218699 0.64139,-0.376519 1.02149,-0.474609 0.38876,-0.100325 0.77728,-0.150391 1.16406,-0.150391 z"
               id="path2291" />
          </g>
          <g
             id="path1609"
             style="fill:#ffffff;fill-opacity:1;stroke:#6d6d6d;stroke-opacity:0.073286">
            <path
               style="color:#000000;-inkscape-font-specification:'Maven Pro';fill:#ffffff;fill-opacity:1;stroke:#6d6d6d;stroke-opacity:0.073286"
               d="M 168.26325,67.726097 V 55.892493 h -4.66232 v -1.343381 h 10.72729 v 1.343381 h -4.64257 v 11.833604 z"
               id="path2295" />
            <path
               style="color:#000000;-inkscape-font-specification:'Maven Pro';fill:#ffffff;fill-opacity:1;stroke:#6d6d6d;stroke-opacity:0.073286"
               d="m 163.35156,54.298828 v 1.84375 h 4.66211 v 11.833984 h 0.25 1.67188 V 56.142578 h 4.64257 v -1.84375 z m 0.5,0.5 h 10.22656 v 0.84375 h -4.64257 v 11.833984 h -0.92188 V 55.642578 h -4.66211 z"
               id="path2297" />
          </g>
          <g
             id="path1606"
             style="fill:#ffffff;fill-opacity:1;stroke:#6d6d6d;stroke-opacity:0.073286">
            <path
               style="color:#000000;-inkscape-font-specification:'Maven Pro';fill:#ffffff;fill-opacity:1;stroke:#6d6d6d;stroke-opacity:0.073286"
               d="m 178.39787,68.022431 q -1.40264,0 -2.42993,-0.572912 -1.0273,-0.592668 -1.58045,-1.758249 -0.55316,-1.16558 -0.55316,-2.904073 0,-2.548472 1.14583,-3.812831 1.16558,-1.284114 3.18065,-1.284114 1.58044,0 2.52871,0.711202 0.96803,0.711202 1.3829,1.916293 0.41486,1.205092 0.39511,2.726273 h -7.922 l 0.0988,-1.30387 h 6.8947 l -0.55315,0.197556 q -0.0593,-1.48167 -0.75072,-2.212627 -0.67169,-0.730957 -2.07433,-0.730957 -0.96803,0 -1.61996,0.355601 -0.63218,0.355601 -0.94827,1.244603 -0.31609,0.869246 -0.31609,2.449694 0,1.79776 0.82973,2.746028 0.8495,0.928514 2.37068,0.928514 0.73095,0 1.34338,-0.09878 0.61242,-0.118534 1.12607,-0.31609 0.51364,-0.197556 0.90875,-0.434623 v 1.461914 q -0.7112,0.335845 -1.58044,0.513646 -0.84949,0.1778 -1.87679,0.1778 z"
               id="path2301" />
            <path
               style="color:#000000;-inkscape-font-specification:'Maven Pro';fill:#ffffff;fill-opacity:1;stroke:#6d6d6d;stroke-opacity:0.073286"
               d="m 178.16016,57.439453 c -1.39649,0 -2.54,0.458024 -3.36524,1.367188 -0.82001,0.904836 -1.21094,2.244021 -1.21094,3.980468 0,1.18551 0.18871,2.191172 0.57813,3.011719 0.38743,0.816383 0.95215,1.446332 1.68164,1.867188 l 0.002,0.002 c 0.72713,0.405515 1.58361,0.603515 2.55274,0.603515 0.69858,0 1.34015,-0.05921 1.92578,-0.18164 0.59665,-0.122045 1.14243,-0.299788 1.63672,-0.533203 l 0.14453,-0.06641 v -2.0625 l -0.37891,0.226563 c -0.24869,0.149217 -0.53794,0.288629 -0.86914,0.416015 -0.32466,0.124869 -0.68385,0.22635 -1.07617,0.302735 -5.8e-4,9.4e-5 -10e-4,-9.4e-5 -0.002,0 -0.39239,0.06318 -0.82741,0.0957 -1.30274,0.0957 -0.96092,0 -1.6658,-0.282294 -2.18164,-0.84375 v -0.002 c -0.45236,-0.517665 -0.64706,-1.335503 -0.69336,-2.328125 h 7.11328 l 0.002,-0.248047 c 0.0135,-1.037698 -0.1207,-1.975386 -0.40821,-2.810547 -0.29081,-0.84475 -0.78399,-1.531371 -1.46875,-2.035156 -0.68551,-0.514134 -1.58856,-0.761719 -2.67968,-0.761719 z m 0,0.5 c 1.01612,0 1.80006,0.227975 2.3789,0.662109 h 0.002 v 0.002 c 0.60479,0.444333 1.03289,1.033803 1.29492,1.794921 0.2409,0.699781 0.33349,1.516903 0.3457,2.396485 h -6.62305 c 0.008,-0.335287 0.0724,-0.526818 0.10352,-0.804688 h 5.07617 l 0.0117,0.296875 0.87305,-0.3125 -0.084,-0.484375 h -0.45312 c -0.10056,-0.768011 -0.24925,-1.490187 -0.66992,-1.935547 -0.50651,-0.548976 -1.27922,-0.810546 -2.25586,-0.810546 -0.67597,0 -1.258,0.124742 -1.73829,0.386718 h -0.002 -0.002 c -0.48352,0.271982 -0.83572,0.746584 -1.06055,1.378907 -0.0879,0.241784 -0.0748,0.673623 -0.12695,0.980468 h -0.81836 l -0.13672,1.804688 h 0.78516 c 0.0401,1.10805 0.2983,2.021159 0.85742,2.660156 l 0.002,0.002 0.002,0.002 c 0.6165,0.673841 1.48971,1.009766 2.55469,1.009766 0.49856,0 0.95909,-0.03322 1.38281,-0.101563 l 0.004,-0.002 h 0.004 c 0.42091,-0.08147 0.8101,-0.190484 1.16797,-0.328125 0.21237,-0.08168 0.38518,-0.178894 0.57031,-0.271484 v 0.886719 c -0.42053,0.185954 -0.87123,0.343021 -1.38086,0.447265 h -0.002 c -0.54655,0.114394 -1.15378,0.171875 -1.82422,0.171875 -0.89944,0 -1.66282,-0.181966 -2.30469,-0.539062 l -0.002,-0.002 c -0.63907,-0.369337 -1.12885,-0.909679 -1.47852,-1.646485 -0.34813,-0.733558 -0.5293,-1.664396 -0.5293,-2.796875 0,-1.661511 0.37427,-2.863557 1.08204,-3.644531 0.72886,-0.802986 1.70386,-1.203125 2.99414,-1.203125 z m 0,1.304688 c 0.89166,0 1.50149,0.226925 1.89062,0.65039 l 0.002,0.002 c 0.3151,0.333109 0.4334,0.950245 0.53125,1.59375 h -4.85937 c 0.0452,-0.243292 0.037,-0.627617 0.10351,-0.810547 v -0.002 c 0.19663,-0.553012 0.47656,-0.907222 0.83594,-1.109375 0.38852,-0.211137 0.88289,-0.324218 1.4961,-0.324218 z m -3.28321,2.746093 h 0.28711 c -0.0285,0.279643 -0.0969,0.479425 -0.10351,0.804688 h -0.2461 z"
               id="path2303" />
          </g>
          <g
             id="path1603"
             style="fill:#ffffff;fill-opacity:1;stroke:#6d6d6d;stroke-opacity:0.073286">
            <path
               style="color:#000000;-inkscape-font-specification:'Maven Pro';fill:#ffffff;fill-opacity:1;stroke:#6d6d6d;stroke-opacity:0.073286"
               d="m 189.14493,68.022431 q -1.52118,0 -2.52871,-0.592668 -0.98778,-0.612423 -1.48167,-1.718737 -0.49389,-1.126069 -0.49389,-2.64725 0,-1.698982 0.45438,-2.746029 0.45438,-1.066802 1.16558,-1.619959 0.73095,-0.572912 1.58045,-0.770468 0.86924,-0.217312 1.67922,-0.217312 0.92851,0 1.75825,0.256823 0.84949,0.237067 1.38289,0.770468 0.55316,0.533401 0.55316,1.422403 v 7.981263 q 0,0.592668 -0.1778,1.205091 -0.1778,0.612424 -0.65194,1.12607 -0.45438,0.533401 -1.30387,0.84949 -0.82973,0.31609 -2.15336,0.31609 -0.84949,0 -1.56069,-0.158045 -0.7112,-0.158045 -1.2446,-0.296334 v -1.343381 q 0.31609,0.07902 0.7112,0.177801 0.41487,0.118533 0.889,0.197556 0.49389,0.07902 1.04705,0.07902 1.34338,0 1.97556,-0.335845 0.65193,-0.31609 0.84949,-0.80998 0.19756,-0.474134 0.19756,-0.968024 v -1.442159 l 0.49389,0.49389 q -0.37536,0.197556 -0.94827,0.375357 -0.57292,0.1778 -1.16558,0.296334 -0.59267,0.118533 -1.0273,0.118533 z m 0,-1.303869 q 0.63218,0 1.32363,-0.158045 0.7112,-0.177801 1.32363,-0.533401 v -5.669858 q 0,-0.553156 -0.31609,-0.829735 -0.29634,-0.296334 -0.80998,-0.395112 -0.51365,-0.118533 -1.10632,-0.118533 -1.44216,0 -2.17311,0.572912 -0.73096,0.553157 -0.98778,1.48167 -0.25683,0.928513 -0.25683,1.995316 0,1.619959 0.69145,2.64725 0.69145,1.007536 2.3114,1.007536 z"
               id="path2307" />
            <path
               style="color:#000000;-inkscape-font-specification:'Maven Pro';fill:#ffffff;fill-opacity:1;stroke:#6d6d6d;stroke-opacity:0.073286"
               d="m 189.51953,57.460937 c -0.56234,0 -1.14106,0.0753 -1.73828,0.22461 -0.60041,0.1403 -1.16228,0.41397 -1.67383,0.814453 -0.51524,0.400747 -0.92694,0.980571 -1.24219,1.720703 -0.32213,0.743106 -0.4746,1.689581 -0.47461,2.84375 10e-6,1.041176 0.16974,1.957461 0.51563,2.746094 v 0.002 c 0.34755,0.778513 0.87817,1.396104 1.57812,1.830078 l 0.002,0.002 h 0.004 c 0.71908,0.42299 1.60771,0.626953 2.6543,0.626953 0.31248,0 0.66954,-0.04172 1.07617,-0.123047 0.40349,-0.0807 0.80118,-0.181629 1.19141,-0.302734 0.0519,-0.01612 0.0811,-0.03633 0.13086,-0.05273 v 0.386718 c 0,0.295926 -0.0598,0.585407 -0.17969,0.873047 v 0.002 c -0.10332,0.258292 -0.32902,0.486937 -0.72656,0.679688 l -0.004,0.002 -0.006,0.002 c -0.35666,0.189475 -0.98267,0.306641 -1.85742,0.306641 -0.35618,0 -0.6915,-0.02599 -1.00586,-0.07617 h -0.002 c -0.307,-0.05124 -0.59345,-0.115428 -0.85938,-0.191406 l -0.004,-0.002 h -0.004 c -0.26341,-0.06585 -0.50021,-0.125054 -0.71094,-0.177735 l -0.31054,-0.07813 v 1.857422 l 0.1875,0.04883 c 0.35933,0.09316 0.77566,0.192987 1.25195,0.298828 0.49471,0.109936 1.0334,0.164063 1.61523,0.164063 0.90232,0 1.64771,-0.107514 2.24219,-0.333985 0.59344,-0.221226 1.06601,-0.523944 1.40235,-0.917968 0.33645,-0.365983 0.57581,-0.77547 0.70507,-1.220703 0.12456,-0.429019 0.1875,-0.855279 0.1875,-1.275391 v -7.980469 c 0,-0.642892 -0.21032,-1.1961 -0.62695,-1.599609 -0.38804,-0.388046 -0.88911,-0.664395 -1.48633,-0.832031 -0.57832,-0.179004 -1.18997,-0.267579 -1.83203,-0.267579 z m 0,0.5 c 0.59596,0 1.15755,0.08071 1.68555,0.244141 l 0.002,0.002 h 0.004 c 0.53261,0.148637 0.95166,0.385259 1.27343,0.707031 l 0.002,0.002 0.002,0.002 c 0.31882,0.307428 0.47656,0.701372 0.47656,1.242187 v 7.980469 c 0,0.370112 -0.0555,0.747221 -0.16797,1.134766 -0.10716,0.369112 -0.30263,0.709856 -0.5957,1.027343 l -0.004,0.0039 -0.002,0.0039 c -0.26885,0.315612 -0.66427,0.577566 -1.20117,0.777344 h -0.002 c -0.51183,0.194982 -1.20194,0.300781 -2.06446,0.300781 -0.55082,0 -1.0523,-0.05155 -1.50586,-0.152344 -0.40038,-0.08897 -0.73481,-0.170829 -1.04882,-0.25 v -0.826172 c 0.1316,0.0329 0.25208,0.06253 0.40039,0.09961 0.28452,0.08096 0.58657,0.147565 0.9082,0.201171 v 0.002 h 0.002 c 0.34364,0.05498 0.70526,0.08203 1.08594,0.08203 0.91296,0 1.59999,-0.107081 2.08594,-0.363281 0.4702,-0.22858 0.81093,-0.540042 0.9707,-0.939454 0.14306,-0.343974 0.2168,-0.700545 0.2168,-1.0625 v -0.583984 c 0.11366,-0.04842 0.26164,-0.09114 0.35937,-0.142578 l 0.30078,-0.158203 -0.9746,-0.97461 c 0.0598,-0.03166 0.13093,-0.04219 0.18945,-0.07617 l 0.125,-0.07227 v -5.814453 c 0,-0.413352 -0.13159,-0.770941 -0.40039,-1.009766 -0.23746,-0.234104 -0.55356,-0.386581 -0.92774,-0.458984 -6.6e-4,-1.53e-4 -0.001,-0.0018 -0.002,-0.002 -0.3603,-0.08233 -0.74406,-0.123047 -1.15234,-0.123047 -0.99377,0 -1.77611,0.196474 -2.32618,0.626953 -0.52782,0.400647 -0.89252,0.947364 -1.07617,1.611328 -0.17778,0.642719 -0.26562,1.331237 -0.26562,2.0625 0,1.115541 0.23942,2.051751 0.73437,2.787109 0.51251,0.746792 1.38579,1.117188 2.51758,1.117188 0.44229,0 0.90181,-0.05501 1.37891,-0.164063 l 0.004,-0.002 h 0.002 c 0.36196,-0.09049 0.68692,-0.25096 1.01367,-0.408203 v 0.865235 c -0.10133,0.03641 -0.16486,0.07386 -0.2793,0.109375 -0.37366,0.115961 -0.7539,0.211716 -1.14062,0.289062 -0.38359,0.07672 -0.71149,0.113281 -0.97852,0.113281 -0.9792,0 -1.77289,-0.189247 -2.39648,-0.554687 -0.61665,-0.382323 -1.07381,-0.909617 -1.38477,-1.605469 v -0.002 c -0.31217,-0.712461 -0.47266,-1.55859 -0.47266,-2.544922 10e-6,-1.110367 0.15034,-1.993753 0.4336,-2.646484 v -0.002 c 0.2906,-0.68227 0.65682,-1.18469 1.08984,-1.521485 0.46127,-0.36154 0.95457,-0.601399 1.48438,-0.724609 h 0.002 0.002 c 0.56177,-0.140443 1.09956,-0.208984 1.61719,-0.208985 z m 0.041,1.302735 c 0.37844,0 0.72692,0.039 1.04882,0.113281 h 0.006 0.004 c 0.30565,0.05878 0.52338,0.171815 0.67969,0.328125 l 0.006,0.0059 0.006,0.0039 c 0.14856,0.129996 0.23242,0.321427 0.23242,0.642578 v 5.501953 c -0.354,0.192513 -0.7242,0.354994 -1.13086,0.457031 -0.44483,0.101676 -0.86696,0.152344 -1.26758,0.152344 -1.0268,0 -1.69395,-0.301431 -2.10351,-0.896484 -0.42698,-0.634362 -0.64844,-1.463411 -0.64844,-2.507813 0,-0.691139 0.0834,-1.33439 0.24804,-1.929687 0.15837,-0.572567 0.45162,-1.011001 0.89649,-1.347657 l 0.002,-0.002 0.002,-0.002 c 0.42447,-0.332696 1.09119,-0.519531 2.01953,-0.519531 z"
               id="path2309" />
          </g>
          <g
             id="path1600"
             style="fill:#ffffff;fill-opacity:1;stroke:#6d6d6d;stroke-opacity:0.073286">
            <path
               style="color:#000000;-inkscape-font-specification:'Maven Pro';fill:#ffffff;fill-opacity:1;stroke:#6d6d6d;stroke-opacity:0.073286"
               d="m 200.44515,68.022431 q -1.40265,0 -2.42994,-0.572912 -1.02729,-0.592668 -1.58045,-1.758249 -0.55316,-1.16558 -0.55316,-2.904073 0,-2.548472 1.14583,-3.812831 1.16558,-1.284114 3.18065,-1.284114 1.58045,0 2.52872,0.711202 0.96802,0.711202 1.38289,1.916293 0.41486,1.205092 0.39511,2.726273 h -7.922 l 0.0988,-1.30387 h 6.89471 l -0.55316,0.197556 q -0.0593,-1.48167 -0.75071,-2.212627 -0.67169,-0.730957 -2.07434,-0.730957 -0.96803,0 -1.61996,0.355601 -0.63218,0.355601 -0.94827,1.244603 -0.31609,0.869246 -0.31609,2.449694 0,1.79776 0.82974,2.746028 0.84949,0.928514 2.37067,0.928514 0.73096,0 1.34338,-0.09878 0.61242,-0.118534 1.12607,-0.31609 0.51364,-0.197556 0.90876,-0.434623 v 1.461914 q -0.71121,0.335845 -1.58045,0.513646 -0.84949,0.1778 -1.87678,0.1778 z"
               id="path2313" />
            <path
               style="color:#000000;-inkscape-font-specification:'Maven Pro';fill:#ffffff;fill-opacity:1;stroke:#6d6d6d;stroke-opacity:0.073286"
               d="m 200.20898,57.439453 c -1.39648,0 -2.54194,0.458024 -3.36718,1.367188 -0.82001,0.904836 -1.21094,2.244021 -1.21094,3.980468 0,1.18551 0.18871,2.191172 0.57812,3.011719 0.38744,0.816382 0.95216,1.446332 1.68164,1.867188 h 0.002 v 0.002 c 0.72713,0.405516 1.5836,0.603515 2.55273,0.603515 0.69858,0 1.34015,-0.05921 1.92578,-0.18164 0.59666,-0.122045 1.14438,-0.299789 1.63868,-0.533203 l 0.14257,-0.06641 v -2.0625 l -0.3789,0.226563 c -0.24871,0.149218 -0.53794,0.288629 -0.86914,0.416015 -0.32466,0.124869 -0.68385,0.22635 -1.07618,0.302735 -5.8e-4,9.4e-5 -0.001,-9.4e-5 -0.002,0 -0.39238,0.06318 -0.8274,0.0957 -1.30273,0.0957 -0.96093,0 -1.66581,-0.282295 -2.18164,-0.84375 v -0.002 c -0.45237,-0.517666 -0.64706,-1.335503 -0.69336,-2.328125 h 7.11328 l 0.004,-0.248047 c 0.0135,-1.037698 -0.12264,-1.975386 -0.41015,-2.810547 -0.29082,-0.84475 -0.784,-1.531371 -1.46875,-2.035156 -0.68551,-0.514134 -1.5866,-0.761719 -2.67774,-0.761719 z m 0,0.5 c 1.01614,0 1.79811,0.227975 2.37696,0.662109 h 0.002 v 0.002 c 0.60478,0.444333 1.0329,1.033803 1.29492,1.794921 0.24091,0.699789 0.33545,1.516892 0.34766,2.396485 h -6.625 c 0.008,-0.335287 0.0724,-0.526818 0.10351,-0.804688 h 5.07618 l 0.0117,0.296875 0.87305,-0.3125 -0.084,-0.484375 h -0.45313 c -0.10044,-0.767018 -0.24629,-1.488385 -0.66601,-1.933593 -0.50646,-0.551144 -1.27929,-0.8125 -2.25782,-0.8125 -0.67596,0 -1.25994,0.124742 -1.74023,0.386718 h -0.002 -0.002 c -0.48352,0.271982 -0.83572,0.746584 -1.06054,1.378907 -0.0879,0.241784 -0.0748,0.673623 -0.12696,0.980468 h -0.81836 l -0.13671,1.804688 h 0.78515 c 0.0402,1.10805 0.2983,2.021159 0.85742,2.660156 l 0.002,0.002 0.002,0.002 c 0.61649,0.673841 1.4897,1.009766 2.55469,1.009766 0.49857,0 0.96105,-0.03322 1.38476,-0.101563 l 0.004,-0.002 h 0.004 c 0.42091,-0.08147 0.8101,-0.190484 1.16796,-0.328125 0.21214,-0.08159 0.38341,-0.17901 0.56836,-0.271484 v 0.886719 c -0.42053,0.185954 -0.87122,0.343021 -1.38086,0.447265 -0.54654,0.114394 -1.15573,0.171875 -1.82617,0.171875 -0.89944,0 -1.66281,-0.181966 -2.30469,-0.539062 l -0.002,-0.002 c -0.63906,-0.369337 -1.12884,-0.909678 -1.47851,-1.646485 -0.34814,-0.733558 -0.5293,-1.664396 -0.5293,-2.796875 0,-1.661511 0.37427,-2.863557 1.08203,-3.644531 0.72887,-0.802986 1.70582,-1.203125 2.99609,-1.203125 z m 0,1.304688 c 0.89168,0 1.49955,0.226926 1.88868,0.65039 l 0.002,0.002 h 0.002 c 0.31506,0.333082 0.43143,0.950324 0.5293,1.59375 h -4.85938 c 0.0453,-0.243292 0.037,-0.627617 0.10352,-0.810547 v -0.002 c 0.19663,-0.553012 0.47656,-0.907222 0.83594,-1.109375 0.38852,-0.211138 0.88483,-0.324218 1.49804,-0.324218 z m -3.28515,2.746093 h 0.28711 c -0.0285,0.279643 -0.097,0.479425 -0.10352,0.804688 h -0.24609 z"
               id="path2315" />
          </g>
          <g
             id="path1597"
             style="fill:#ffffff;fill-opacity:1;stroke:#6d6d6d;stroke-opacity:0.073286">
            <path
               style="color:#000000;-inkscape-font-specification:'Maven Pro';fill:#ffffff;fill-opacity:1;stroke:#6d6d6d;stroke-opacity:0.073286"
               d="m 208.60422,67.726097 h -1.4224 V 54.114489 h 1.4224 z"
               id="path2319" />
            <path
               style="color:#000000;-inkscape-font-specification:'Maven Pro';fill:#ffffff;fill-opacity:1;stroke:#6d6d6d;stroke-opacity:0.073286"
               d="m 206.93164,53.865234 v 14.111328 h 1.92188 v -0.25 -13.861328 z m 0.5,0.5 h 0.92188 v 13.111328 h -0.92188 z"
               id="path2321" />
          </g>
          <g
             id="path1594"
             style="fill:#ffffff;fill-opacity:1;stroke:#6d6d6d;stroke-opacity:0.073286">
            <path
               style="color:#000000;-inkscape-font-specification:'Maven Pro';fill:#ffffff;fill-opacity:1;stroke:#6d6d6d;stroke-opacity:0.073286"
               d="m 215.16309,68.022431 q -0.65194,0 -1.32363,-0.138289 -0.65193,-0.138289 -1.22484,-0.474134 -0.55316,-0.335846 -0.90876,-0.908758 -0.33585,-0.592668 -0.33585,-1.48167 0,-1.224847 0.45438,-1.955804 0.47414,-0.750713 1.28412,-1.066803 0.82973,-0.335845 1.89653,-0.335845 0.80998,0 1.40265,0.09878 0.59267,0.09878 1.04705,0.296334 0.47413,0.1778 0.84949,0.414868 l 0.27658,1.303869 q -0.45438,-0.335845 -1.32363,-0.572912 -0.84949,-0.256823 -1.87678,-0.256823 -1.2446,0 -1.91629,0.474134 -0.67169,0.474135 -0.67169,1.382892 0,0.730958 0.39511,1.165581 0.41487,0.434623 1.02729,0.612423 0.63218,0.177801 1.28411,0.177801 1.28412,0 1.93605,-0.177801 0.67169,-0.197556 0.67169,-0.869246 v -4.524032 q 0,-1.145825 -0.67169,-1.679226 -0.67169,-0.533402 -1.91629,-0.533402 -0.79022,0 -1.67923,0.237068 -0.86924,0.217311 -1.50142,0.711201 v -1.422403 q 0.61242,-0.395112 1.63971,-0.592668 1.02729,-0.217312 1.99532,-0.217312 0.65193,0 1.20509,0.13829 0.55316,0.118533 0.98778,0.375356 0.43462,0.237067 0.73096,0.632179 0.31609,0.375357 0.47413,0.889002 0.1778,0.49389 0.1778,1.126069 v 4.780856 q 0,1.047046 -0.63218,1.560692 -0.61242,0.513646 -1.61996,0.67169 -0.98778,0.158045 -2.1336,0.158045 z"
               id="path2325" />
            <path
               style="color:#000000;-inkscape-font-specification:'Maven Pro';fill:#ffffff;fill-opacity:1;stroke:#6d6d6d;stroke-opacity:0.073286"
               d="m 215.97266,57.439453 c -0.66281,0 -1.34395,0.07505 -2.04297,0.222656 -0.70617,0.135801 -1.28073,0.341267 -1.72657,0.628907 l -0.11523,0.07227 v 2.072266 l 0.4043,-0.316406 c 0.39166,-0.305989 0.85811,-0.528492 1.4082,-0.666016 h 0.002 0.002 c 0.57485,-0.153294 1.11342,-0.228516 1.61523,-0.228516 0.79402,0 1.37086,0.16968 1.75977,0.478516 0.37952,0.301385 0.57812,0.769343 0.57812,1.484375 v 0.789062 c -0.10748,-0.04859 -0.19735,-0.109101 -0.3125,-0.152343 -0.32332,-0.139604 -0.68771,-0.242547 -1.0957,-0.310547 -0.41333,-0.06889 -0.89321,-0.103516 -1.44336,-0.103516 -0.73743,0 -1.40254,0.117592 -1.99024,0.355469 -0.58581,0.229244 -1.0609,0.623455 -1.40234,1.164062 v 0.002 h -0.002 c -0.33598,0.540477 -0.49219,1.240412 -0.49219,2.08789 0,0.62415 0.11881,1.16371 0.36914,1.605469 l 0.002,0.0039 0.004,0.0039 c 0.25615,0.412694 0.58787,0.745943 0.99023,0.990235 l 0.002,0.002 h 0.002 c 0.40472,0.237248 0.83856,0.406274 1.29883,0.503906 h 0.002 c 0.46344,0.09541 0.9227,0.142578 1.375,0.142578 0.77538,0 1.49847,-0.05241 2.17188,-0.160156 0.70336,-0.110331 1.28836,-0.348425 1.73828,-0.724609 0.48598,-0.394856 0.72461,-1.005562 0.72461,-1.753907 v -4.78125 c 0,-0.442678 -0.0627,-0.8452 -0.19141,-1.205078 -0.11386,-0.367454 -0.28601,-0.693186 -0.51758,-0.96875 -0.21666,-0.286283 -0.48704,-0.51877 -0.80273,-0.691406 -0.31174,-0.183399 -0.66239,-0.316775 -1.04883,-0.400391 -0.39119,-0.0978 -0.81333,-0.146484 -1.26562,-0.146484 z m 0,0.5 c 0.41694,0 0.79817,0.04427 1.14453,0.130859 l 0.004,0.002 h 0.004 c 0.34572,0.07408 0.64981,0.191503 0.91406,0.347656 l 0.004,0.002 0.004,0.002 c 0.25946,0.141524 0.47364,0.326824 0.6504,0.5625 l 0.004,0.0059 0.004,0.0059 c 0.18776,0.222963 0.33112,0.486767 0.42773,0.800781 l 0.002,0.0059 0.002,0.0059 c 0.10702,0.297275 0.16211,0.643001 0.16211,1.041015 v 4.78125 c 0,0.647716 -0.18214,1.07523 -0.53906,1.365235 l -0.002,0.002 -0.002,0.002 c -0.36623,0.307165 -0.85966,0.515096 -1.49805,0.615234 -0.64363,0.102981 -1.34136,0.154297 -2.09375,0.154297 -0.41695,0 -0.84129,-0.04384 -1.27344,-0.132812 -0.40897,-0.08675 -0.79122,-0.234768 -1.15039,-0.445313 -0.33143,-0.202223 -0.60192,-0.47318 -0.81836,-0.820312 -0.19579,-0.347808 -0.30273,-0.794806 -0.30273,-1.353516 0,-0.78565 0.1481,-1.390088 0.41797,-1.824219 0.29003,-0.458168 0.67007,-0.772828 1.16211,-0.964843 l 0.002,-0.002 h 0.002 c 0.51862,-0.209916 1.11777,-0.31836 1.80274,-0.31836 0.52982,0 0.98443,0.03289 1.36133,0.0957 0.37867,0.06311 0.70784,0.157367 0.98828,0.279297 l 0.006,0.002 0.006,0.0039 c 0.18451,0.06919 0.33129,0.156095 0.49023,0.238281 v 0.664062 c -0.1884,-0.07256 -0.3059,-0.16886 -0.53125,-0.230468 -0.5921,-0.178584 -1.24101,-0.267578 -1.94531,-0.267579 -0.86148,10e-7 -1.55332,0.16149 -2.06055,0.519532 -0.50927,0.359485 -0.77734,0.920459 -0.77734,1.58789 0,0.53235 0.14865,0.992619 0.45898,1.333985 l 0.002,0.002 0.002,0.002 c 0.30725,0.321875 0.69253,0.550161 1.13867,0.679687 h 0.002 c 0.44302,0.124599 0.89422,0.1875 1.35157,0.1875 0.86761,0 1.52713,-0.05605 2.00195,-0.185546 l 0.004,-0.002 h 0.002 c 0.26069,-0.07667 0.48081,-0.208163 0.63086,-0.402343 0.15005,-0.19418 0.2207,-0.441468 0.2207,-0.707032 v -1.765625 c 0.0168,0.01157 0.0585,0.0196 0.0742,0.03125 l 0.53125,0.390625 -0.43555,-2.050781 -0.0898,-0.05664 c -0.0239,-0.01506 -0.0557,-0.02436 -0.0801,-0.03906 V 61.1875 c 0,-0.812733 -0.25151,-1.465184 -0.76758,-1.875 -0.50668,-0.402366 -1.20486,-0.587891 -2.07031,-0.587891 -0.55181,0 -1.13365,0.0833 -1.74414,0.246094 -0.45293,0.113668 -0.82066,0.339928 -1.1875,0.564453 v -0.865234 c 0.36334,-0.214688 0.82313,-0.39943 1.4375,-0.517578 h 0.002 0.002 c 0.6693,-0.141584 1.31671,-0.212891 1.94336,-0.212891 z m -0.5918,5.255859 c 0.66403,0 1.26508,0.08296 1.80469,0.246094 h 0.002 l 0.004,0.002 c 0.30152,0.08223 0.44953,0.189961 0.66601,0.28711 v 1.980468 c 0,0.18223 -0.0433,0.304823 -0.11719,0.400391 -0.0738,0.09557 -0.18789,0.173485 -0.375,0.228516 -0.39458,0.107156 -1.02439,0.167968 -1.86718,0.167968 -0.41125,0 -0.81362,-0.05585 -1.21289,-0.167968 h -0.002 c -0.36809,-0.107158 -0.66519,-0.287438 -0.91015,-0.542969 -0.21574,-0.237989 -0.33008,-0.552662 -0.33008,-0.994141 0,-0.544243 0.17814,-0.906993 0.56445,-1.179687 0.38836,-0.274137 0.97545,-0.427735 1.77344,-0.427735 z"
               id="path2327" />
          </g>
          <g
             id="path1591"
             style="fill:#ffffff;fill-opacity:1;stroke:#6d6d6d;stroke-opacity:0.073286">
            <path
               style="color:#000000;-inkscape-font-specification:'Maven Pro';fill:#ffffff;fill-opacity:1;stroke:#6d6d6d;stroke-opacity:0.073286"
               d="m 222.70974,58.658277 q 0.47414,-0.237067 0.96803,-0.414868 0.51364,-0.197556 1.02729,-0.316089 0.5334,-0.118534 1.0668,-0.177801 0.55316,-0.05927 1.10631,-0.05927 1.44216,0 2.29165,0.434624 0.8495,0.414867 1.22485,1.224847 0.39511,0.809979 0.39511,1.955804 v 6.42057 h -1.4224 v -6.42057 q 0,-0.355601 -0.0988,-0.750713 -0.079,-0.395112 -0.33584,-0.750712 -0.25683,-0.375357 -0.79023,-0.592668 -0.5334,-0.237068 -1.4224,-0.237068 -0.61242,0 -1.26436,0.09878 -0.65193,0.09878 -1.32362,0.296334 v 8.356619 h -1.42241 z"
               id="path2331" />
            <path
               style="color:#000000;-inkscape-font-specification:'Maven Pro';fill:#ffffff;fill-opacity:1;stroke:#6d6d6d;stroke-opacity:0.073286"
               d="m 226.87891,57.439453 c -0.3777,0 -0.75527,0.02009 -1.13282,0.06055 l -0.002,0.002 c -0.36469,0.04052 -0.72954,0.100704 -1.09375,0.181641 h -0.002 c -0.35232,0.0813 -0.70379,0.189557 -1.05469,0.324218 -5.6e-4,2.02e-4 -0.001,-2.01e-4 -0.002,0 -10e-4,5.27e-4 -0.003,0.0014 -0.004,0.002 -0.33659,0.121429 -0.66729,0.264311 -0.99023,0.425781 l -0.13868,0.06836 v 0.154297 9.318359 h 1.92383 v -8.408203 c 0.37486,-0.102993 0.74744,-0.192911 1.11133,-0.248047 0.42316,-0.06412 0.83172,-0.0957 1.22656,-0.0957 0.57045,0 1.01182,0.07773 1.32032,0.214844 l 0.004,0.002 0.004,0.002 c 0.322,0.131188 0.53936,0.299727 0.67773,0.501953 l 0.002,0.002 0.002,0.0039 c 0.15262,0.211301 0.24769,0.425873 0.29297,0.652344 l 0.002,0.0059 v 0.0059 c 0.0616,0.246285 0.0918,0.47554 0.0918,0.689453 v 6.671875 h 1.92187 v -6.671875 c 0,-0.791031 -0.13535,-1.479539 -0.41797,-2.060546 l -0.002,-0.002 c -0.27337,-0.588383 -0.72918,-1.041896 -1.33789,-1.339843 -0.6172,-0.315365 -1.41656,-0.462891 -2.40234,-0.462891 z m 0,0.5 c 0.93632,0 1.66247,0.144583 2.17773,0.408203 h 0.002 l 0.002,0.002 c 0.52173,0.254796 0.88059,0.615989 1.10742,1.105469 v 0.002 l 0.002,0.002 c 0.24304,0.498236 0.36914,1.110556 0.36914,1.845703 v 6.171875 h -0.92187 v -6.171875 c 0,-0.25644 -0.0354,-0.522656 -0.10352,-0.798828 v -0.002 c -0.0601,-0.299132 -0.19003,-0.581843 -0.3789,-0.84375 -0.20381,-0.296161 -0.50953,-0.521762 -0.89649,-0.679687 h -0.002 c -0.40168,-0.177024 -0.90393,-0.25586 -1.51563,-0.25586 -0.42172,0 -0.85664,0.03397 -1.30273,0.101563 -0.44645,0.06765 -0.89749,0.168037 -1.35547,0.302734 l -0.17969,0.05273 v 8.294921 h -0.92383 v -8.652343 c 0.26423,-0.126545 0.52934,-0.247278 0.80274,-0.345703 h 0.004 l 0.002,-0.002 c 0.3314,-0.127465 0.66221,-0.228448 0.99219,-0.304687 0.34698,-0.07711 0.69255,-0.135327 1.03906,-0.173828 0.35999,-0.03857 0.72024,-0.05859 1.08008,-0.05859 z"
               id="path2333" />
          </g>
          <g
             id="path1588"
             style="fill:#ffffff;fill-opacity:1;stroke:#6d6d6d;stroke-opacity:0.073286">
            <path
               style="color:#000000;-inkscape-font-specification:'Maven Pro';fill:#ffffff;fill-opacity:1;stroke:#6d6d6d;stroke-opacity:0.073286"
               d="m 238.02035,68.022431 q -1.40265,0 -2.42994,-0.572912 -1.02729,-0.592668 -1.58045,-1.758249 -0.55316,-1.16558 -0.55316,-2.904073 0,-2.548472 1.14583,-3.812831 1.16558,-1.284114 3.18065,-1.284114 1.58045,0 2.52872,0.711202 0.96802,0.711202 1.38289,1.916293 0.41487,1.205092 0.39511,2.726273 h -7.92199 l 0.0988,-1.30387 h 6.89471 l -0.55316,0.197556 q -0.0593,-1.48167 -0.75071,-2.212627 -0.67169,-0.730957 -2.07434,-0.730957 -0.96802,0 -1.61996,0.355601 -0.63218,0.355601 -0.94827,1.244603 -0.31609,0.869246 -0.31609,2.449694 0,1.79776 0.82974,2.746028 0.84949,0.928514 2.37067,0.928514 0.73096,0 1.34338,-0.09878 0.61243,-0.118534 1.12607,-0.31609 0.51365,-0.197556 0.90876,-0.434623 v 1.461914 q -0.7112,0.335845 -1.58045,0.513646 -0.84949,0.1778 -1.87678,0.1778 z"
               id="path2337" />
            <path
               style="color:#000000;-inkscape-font-specification:'Maven Pro';fill:#ffffff;fill-opacity:1;stroke:#6d6d6d;stroke-opacity:0.073286"
               d="m 237.7832,57.439453 c -1.39648,0 -2.53999,0.458024 -3.36523,1.367188 -0.82001,0.904836 -1.21094,2.244021 -1.21094,3.980468 0,1.18551 0.18676,2.191172 0.57617,3.011719 0.38744,0.816382 0.95216,1.446332 1.68164,1.867188 h 0.002 l 0.002,0.002 c 0.72713,0.405516 1.58164,0.603515 2.55078,0.603515 0.004,0 0.006,3e-6 0.01,0 0.6945,-6.02e-4 1.33528,-0.05983 1.91797,-0.18164 0.59666,-0.122045 1.14242,-0.299788 1.63671,-0.533203 l 0.14454,-0.06641 v -2.0625 l -0.37891,0.226563 c -0.24869,0.149217 -0.53989,0.288629 -0.87109,0.416015 -0.32466,0.124868 -0.68385,0.22635 -1.07618,0.302735 -5.8e-4,9.4e-5 -0.001,-9.4e-5 -0.002,0 -0.39238,0.06318 -0.82545,0.0957 -1.30078,0.0957 -0.96256,0 -1.66753,-0.284288 -2.18359,-0.847656 -1.1e-4,-1.19e-4 -0.002,1.19e-4 -0.002,0 -0.45153,-0.517595 -0.64515,-1.334543 -0.6914,-2.326172 h 7.11328 l 0.004,-0.248047 c 0.0135,-1.037699 -0.12068,-1.975385 -0.4082,-2.810547 -0.29082,-0.84475 -0.784,-1.531371 -1.46875,-2.035156 -0.68551,-0.514134 -1.58855,-0.761719 -2.67969,-0.761719 z m 0,0.5 c 1.01614,0 1.80006,0.227975 2.37891,0.662109 l 0.002,0.002 c 0.60479,0.444333 1.0329,1.033803 1.29492,1.794921 0.24091,0.69978 0.3335,1.516904 0.34571,2.396485 h -6.625 c 0.008,-0.335287 0.0724,-0.526818 0.10351,-0.804688 h 5.07813 l 0.0117,0.296875 0.87304,-0.3125 -0.084,-0.484375 h -0.45508 c -0.10044,-0.767018 -0.24629,-1.488385 -0.66601,-1.933593 -0.50646,-0.551144 -1.27929,-0.8125 -2.25782,-0.8125 -0.67596,0 -1.25994,0.124743 -1.74023,0.386718 h -0.002 c -0.48353,0.271982 -0.83573,0.746584 -1.06055,1.378907 -0.0879,0.241822 -0.0768,0.673564 -0.12891,0.980468 h -0.8164 l -0.13672,1.804688 h 0.7832 c 0.0402,1.10805 0.30025,2.021159 0.85938,2.660156 l 0.002,0.002 0.002,0.002 c 0.61649,0.673841 1.4897,1.009766 2.55469,1.009766 0.49857,0 0.9591,-0.03322 1.38281,-0.101563 l 0.004,-0.002 h 0.004 c 0.42093,-0.08147 0.81011,-0.190484 1.16797,-0.328125 0.21302,-0.08193 0.38471,-0.180534 0.57032,-0.273437 v 0.888672 c -0.42054,0.185954 -0.87122,0.343021 -1.38086,0.447265 h -0.002 c -0.54654,0.114394 -1.15573,0.171875 -1.82617,0.171875 -0.90106,0 -1.66405,-0.182649 -2.30664,-0.541015 -0.63906,-0.369337 -1.12689,-0.909678 -1.47656,-1.646485 -0.34813,-0.733558 -0.5293,-1.664396 -0.5293,-2.796875 0,-1.661511 0.37232,-2.863557 1.08008,-3.644531 0.72886,-0.802986 1.70582,-1.203125 2.99609,-1.203125 z m 0,1.304688 c 0.89168,0 1.5015,0.226926 1.89063,0.65039 v 0.002 h 0.002 c 0.31509,0.333109 0.4334,0.950245 0.53125,1.59375 h -4.86133 c 0.0453,-0.243292 0.037,-0.627617 0.10352,-0.810547 h 0.002 v -0.002 c 0.19663,-0.553012 0.4746,-0.907222 0.83399,-1.109375 0.38874,-0.211648 0.88407,-0.324218 1.49804,-0.324218 z m -3.28515,2.746093 h 0.28906 c -0.0285,0.279694 -0.0989,0.479354 -0.10547,0.804688 h -0.24414 z"
               id="path2339" />
          </g>
        </g>
        <g
           id="g1725"
           style="fill:url(#linearGradient1733);fill-opacity:1;stroke:none"
           transform="matrix(2.8885491,0,0,2.8885491,17.836173,5.0033931)">
          <path
             d="m 25.692955,20.051245 q -1.3462,0 -2.2606,-0.8128 -0.9144,-0.8382 -0.9144,-2.4638 V 8.8498455 h -2.2098 v -1.6764 h 2.2098 V 3.5920456 h 1.8288 v 3.5813999 h 3.2766 v 1.6764 h -3.2766 v 7.3405995 q 0,1.0668 0.3302,1.6002 0.3302,0.5334 1.3462,0.5334 0.4572,0 0.889,-0.0762 0.4318,-0.1016 0.7112,-0.2286 v 1.7272 q -0.3556,0.127 -0.9144,0.2032 -0.5334,0.1016 -1.016,0.1016 z"
             id="path524"
             style="fill:url(#linearGradient2585);fill-opacity:1;stroke:none" />
          <path
             style="fill:url(#linearGradient2587);fill-opacity:1;stroke:none;stroke-width:0.0128149;stroke-opacity:1"
             d="M 6.7081373,11.75515 V 3.6837114 L 7.2632738,4.405259 c 3.3522282,4.3571126 5.5313242,7.160117 5.5674922,7.16155 0.02428,9.52e-4 1.342466,-1.7786402 2.929314,-3.9546696 1.586847,-2.1760288 2.885607,-3.9523533 2.886133,-3.9473875 5.29e-4,0.00497 -0.0049,3.6434101 -0.01212,8.0854321 l -0.01308,8.076404 h -0.902091 -0.90209 l 0.03093,-1.75574 c 0.01701,-0.965657 0.04429,-3.292315 0.06062,-5.170351 l 0.02969,-3.414612 -0.119733,0.1210855 c -0.06585,0.066597 -0.953654,1.0582875 -1.972891,2.2037565 -1.019237,1.145469 -1.912461,2.144318 -1.984943,2.219664 l -0.131769,0.136993 -2.029507,-2.625858 -2.0295064,-2.625857 -0.029751,1.738134 c -0.016362,0.955974 -0.032709,3.410931 -0.036326,5.45546 l -0.00657,3.717325 H 7.6526042 6.7081373 Z"
             id="path1688" />
        </g>
      </g>
    </g>
  </g>
</svg>
