<?xml version="1.0" encoding="UTF-8" standalone="no"?>
<!-- Created with Inkscape (http://www.inkscape.org/) -->

<svg
   width="275.64377mm"
   height="47.543228mm"
   viewBox="0 0 275.64377 47.543228"
   version="1.1"
   id="svg5"
   xmlns:xlink="http://www.w3.org/1999/xlink"
   xmlns="http://www.w3.org/2000/svg"
   xmlns:svg="http://www.w3.org/2000/svg">
  <defs
     id="defs2">
    <linearGradient
       id="linearGradient3296">
      <stop
         style="stop-color:#0cffe5;stop-opacity:1;"
         offset="0"
         id="stop3292" />
      <stop
         style="stop-color:#f8ff0e;stop-opacity:1;"
         offset="1"
         id="stop3294" />
    </linearGradient>
    <linearGradient
       xlink:href="#linearGradient3296"
       id="linearGradient3298"
       x1="43.412548"
       y1="202.38069"
       x2="152.59833"
       y2="249.23216"
       gradientUnits="userSpaceOnUse" />
    <linearGradient
       xlink:href="#linearGradient3296"
       id="linearGradient3308"
       gradientUnits="userSpaceOnUse"
       x1="43.412548"
       y1="202.38069"
       x2="152.59833"
       y2="249.23216" />
    <linearGradient
       xlink:href="#linearGradient3296"
       id="linearGradient3310"
       gradientUnits="userSpaceOnUse"
       x1="43.412548"
       y1="202.38069"
       x2="152.59833"
       y2="249.23216" />
    <linearGradient
       xlink:href="#linearGradient3296"
       id="linearGradient3312"
       gradientUnits="userSpaceOnUse"
       x1="43.412548"
       y1="202.38069"
       x2="152.59833"
       y2="249.23216" />
    <linearGradient
       xlink:href="#linearGradient3296"
       id="linearGradient664"
       gradientUnits="userSpaceOnUse"
       x1="43.412548"
       y1="202.38069"
       x2="152.59833"
       y2="249.23216" />
  </defs>
  <g
     id="layer1"
     transform="translate(-10.678114,-144.54528)">
    <g
       aria-label="Mt"
       id="text290"
       style="font-size:25.4px;font-family:'Maven Pro';-inkscape-font-specification:'Maven Pro';fill:#000080;stroke-width:0.264583">
      <g
         id="g2502"
         transform="translate(15.449742)">
        <g
           id="g3290"
           transform="translate(-44.074399,-55.982624)"
           style="fill:url(#linearGradient3298);fill-opacity:1">
          <path
             d="m 133.32301,248.07112 q -3.88857,0 -6.52986,-2.34782 -2.64129,-2.42118 -2.64129,-7.1168 v -22.89118 h -6.38311 v -4.84236 h 6.38311 v -10.34505 h 5.28258 v 10.34505 h 9.46462 v 4.84236 h -9.46462 v 21.20369 q 0,3.0815 0.9538,4.62225 0.9538,1.54075 3.88857,1.54075 1.32064,0 2.56792,-0.2201 1.24727,-0.29348 2.05433,-0.66033 v 4.98911 q -1.02716,0.36684 -2.64129,0.58695 -1.54075,0.29348 -2.93476,0.29348 z"
             id="path524-7"
             style="font-size:25.4px;font-family:'Maven Pro';-inkscape-font-specification:'Maven Pro';fill:url(#linearGradient3308);fill-opacity:1;stroke:none;stroke-width:0.764261" />
          <path
             style="font-size:25.4px;font-family:'Maven Pro';-inkscape-font-specification:'Maven Pro';fill:url(#linearGradient3310);fill-opacity:1;stroke:none;stroke-width:0.0370165;stroke-opacity:1"
             d="m 78.48443,224.10744 v -23.31475 l 1.603539,2.08423 c 9.683076,12.58573 15.977502,20.68235 16.081975,20.68649 0.07013,0.003 3.877776,-5.13769 8.461466,-11.42326 4.58369,-6.28557 8.33522,-11.41657 8.33674,-11.40222 0.002,0.0144 -0.0142,10.52416 -0.035,23.35516 l -0.0378,23.32909 h -2.60574 -2.60573 l 0.0893,-5.07154 c 0.0491,-2.78935 0.12794,-9.51001 0.17511,-14.93481 l 0.0858,-9.86328 -0.34586,0.34977 c -0.19021,0.19236 -2.75467,3.05691 -5.69879,6.36565 -2.944115,3.30875 -5.653287,6.77314 -5.954454,6.79547 l -0.0048,0.003 -6.017264,-7.57615 -5.862329,-7.58491 -0.08594,5.02068 c -0.04726,2.76138 -0.09448,9.85264 -0.104929,15.75837 l -0.01898,10.73767 H 81.212569 78.48443 Z"
             id="path1688-8" />
          <g
             aria-label="#"
             transform="scale(0.91076586,1.097977)"
             id="text3282"
             style="font-size:84.6171px;fill:url(#linearGradient3312);stroke-width:0.116606;stroke-opacity:0.231884">
            <path
               d="m 48.484417,225.84445 1.607725,-9.05403 H 43.15354 v -5.07702 h 7.784773 l 2.284662,-13.45412 h -7.700156 v -5.07703 h 8.630944 l 1.692342,-9.98482 h 5.161643 l -1.692342,9.98482 h 11.169458 l 1.776959,-9.98482 h 5.161644 c -1.579402,6.60339 -1.18464,6.65655 -1.77696,9.98482 h 6.092432 v 5.07703 h -6.938603 l -2.369279,13.45412 h 6.853986 v 5.07702 h -7.700157 l -1.523107,9.05403 h -5.161644 l 1.523108,-9.05403 c -3.446343,-0.11481 -7.142364,-0.12606 -11.169458,0 l -1.607725,9.05403 z m 7.615539,-14.13105 c 3.893234,0.0705 7.662406,0.0896 11.169458,0 1.792752,-7.67395 1.614808,-9.08162 2.369279,-13.45412 H 58.384618 c -0.948104,4.56911 -2.05326,9.20928 -2.284662,13.45412 z"
               id="path3392"
               style="fill:url(#linearGradient664)" />
          </g>
        </g>
        <g
           aria-label="#markusTegelane"
           id="text1737"
           style="font-size:19.7556px;fill:#ffffff;fill-opacity:1;stroke:#6d6d6d;stroke-width:0.5;stroke-dasharray:none;stroke-opacity:0.07">
          <g
             id="path1945"
             style="fill:#ffffff;fill-opacity:1;stroke:#6d6d6d;stroke-width:0.5;stroke-dasharray:none;stroke-opacity:0.07">
            <path
               style="color:#000000;-inkscape-font-specification:'Maven Pro';fill:#ffffff;fill-opacity:1;stroke:#6d6d6d;stroke-width:0.5;stroke-dasharray:none;stroke-opacity:0.07"
               d="m 116.09968,172.79144 0.37536,-2.11385 h -1.61996 v -1.18534 h 1.81751 l 0.5334,-3.14114 h -1.79775 v -1.18533 h 2.01507 l 0.39511,-2.33116 h 1.20509 l -0.39511,2.33116 h 2.60774 l 0.41486,-2.33116 h 1.2051 l -0.41487,2.33116 h 1.4224 v 1.18533 h -1.61996 l -0.55315,3.14114 h 1.6002 v 1.18534 h -1.79776 l -0.3556,2.11385 h -1.20509 l 0.3556,-2.11385 h -2.60774 l -0.37536,2.11385 z m 1.77801,-3.29919 h 2.60773 l 0.55316,-3.14114 h -2.62749 z"
               id="path1978" />
            <path
               style="color:#000000;-inkscape-font-specification:'Maven Pro';fill:#ffffff;fill-opacity:1;stroke:#6d6d6d;stroke-width:0.5;stroke-dasharray:none;stroke-opacity:0.07"
               d="m 117.60742,162.58398 -0.39453,2.33204 h -2.05469 v 1.68554 h 1.75196 l -0.44922,2.64063 h -1.85547 v 1.68554 h 1.57031 l -0.375,2.11329 h 0.29883 1.41406 l 0.375,-2.11329 h 2.10352 l -0.35547,2.11329 h 1.71289 l 0.35547,-2.11329 h 1.83594 v -1.68554 h -1.55274 l 0.46485,-2.64063 h 1.66015 v -1.68554 h -1.37305 l 0.41407,-2.33204 h -1.71289 l -0.41407,2.33204 h -2.10351 l 0.39648,-2.33204 z m 0.42188,0.5 h 0.69922 l -0.39649,2.33204 h 3.11328 l 0.41602,-2.33204 h 0.69531 l -0.41406,2.33204 h 1.4707 v 0.68554 h -1.58008 l -0.64062,3.64063 h 1.64844 v 0.68554 h -1.75977 l -0.35547,2.11329 h -0.69726 l 0.35546,-2.11329 h -3.11328 l -0.375,2.11329 h -0.69726 l 0.375,-2.11329 h -1.66797 v -0.68554 h 1.77734 l 0.61914,-3.64063 h -1.84375 v -0.68554 h 1.97657 z m 0.16992,3.01758 -0.61719,3.64063 h 0.29492 2.81836 l 0.64063,-3.64063 z m 0.42383,0.5 h 2.11914 l -0.4668,2.64063 h -2.10156 z"
               id="path1980" />
          </g>
          <g
             id="path1947"
             style="fill:#ffffff;fill-opacity:1;stroke:#6d6d6d;stroke-width:0.5;stroke-dasharray:none;stroke-opacity:0.07">
            <path
               style="color:#000000;-inkscape-font-specification:'Maven Pro';fill:#ffffff;fill-opacity:1;stroke:#6d6d6d;stroke-width:0.5;stroke-dasharray:none;stroke-opacity:0.07"
               d="m 134.78847,166.74622 v 6.42057 h -1.4224 v -6.42057 q 0,-0.3556 -0.0988,-0.75071 -0.079,-0.39511 -0.33585,-0.75071 -0.25682,-0.37536 -0.79022,-0.59267 -0.5334,-0.23707 -1.4224,-0.23707 -0.61243,0 -1.26436,0.0988 -0.65194,0.0988 -1.32363,0.29634 v 8.35661 h -1.4224 v -9.06782 q 0.47413,-0.23706 0.96802,-0.41486 0.51365,-0.19756 1.0273,-0.31609 0.5334,-0.11854 1.0668,-0.1778 0.55315,-0.0593 1.10631,-0.0593 1.44216,0 2.29165,0.43462 0.84949,0.41487 1.22485,1.22485 0.39511,0.80998 0.39511,1.9558 z m -1.87678,-2.25213 q 0.65193,-0.49389 1.32362,-0.79023 0.67169,-0.29633 1.3829,-0.43462 0.73095,-0.13829 1.46191,-0.13829 1.44216,0 2.29165,0.43462 0.84949,0.41487 1.22485,1.22485 0.39511,0.80998 0.39511,1.9558 v 6.42057 h -1.4224 v -6.42057 q 0,-0.3556 -0.0988,-0.75071 -0.079,-0.39511 -0.33585,-0.75071 -0.25682,-0.37536 -0.79022,-0.59267 -0.5334,-0.23707 -1.4224,-0.23707 -0.61243,0 -1.26436,0.1778 -0.65194,0.1778 -1.32363,0.61243 z"
               id="path1984" />
            <path
               style="color:#000000;-inkscape-font-specification:'Maven Pro';fill:#ffffff;fill-opacity:1;stroke:#6d6d6d;stroke-width:0.5;stroke-dasharray:none;stroke-opacity:0.07"
               d="m 130.87695,162.88086 c -0.3777,0 -0.75526,0.0201 -1.13281,0.0605 h -0.002 c -0.36469,0.0405 -0.72758,0.1007 -1.0918,0.18164 l -0.002,0.002 c -0.35233,0.0813 -0.70574,0.18955 -1.05664,0.32422 -5.6e-4,2e-4 -0.001,-2e-4 -0.002,0 -10e-4,5.2e-4 -0.003,0.001 -0.004,0.002 -0.33659,0.12143 -0.6673,0.26237 -0.99024,0.42383 l -0.13672,0.0703 v 9.47071 h 1.92188 v -8.40625 c 0.37486,-0.10299 0.74743,-0.1929 1.11133,-0.24805 0.42315,-0.0641 0.83172,-0.0957 1.22656,-0.0957 0.57044,0 1.01182,0.0777 1.32031,0.21484 l 0.004,0.002 h 0.004 c 0.32201,0.13119 0.53938,0.30168 0.67774,0.50391 l 0.002,0.002 0.002,0.002 c 0.15262,0.21131 0.24768,0.42784 0.29296,0.6543 l 0.002,0.006 0.002,0.006 c 0.0616,0.24628 0.0898,0.47554 0.0898,0.68945 v 6.66993 h 1.92383 v -6.66993 -0.15429 l -0.0352,-0.0176 c -0.0142,-0.48208 -0.13878,-0.88195 -0.26172,-1.2832 0.33276,-0.18898 0.66254,-0.37033 0.98047,-0.45704 0.41544,-0.1133 0.81512,-0.16796 1.19921,-0.16796 0.57045,0 1.01182,0.0777 1.32032,0.21484 l 0.004,0.002 h 0.004 c 0.32201,0.13119 0.53937,0.30168 0.67773,0.50391 l 0.002,0.002 0.002,0.002 c 0.15262,0.21131 0.24769,0.42784 0.29297,0.6543 l 0.002,0.006 0.002,0.006 c 0.0616,0.24628 0.0898,0.47554 0.0898,0.68945 v 6.66993 h 1.92383 v -6.66993 c 0,-0.79102 -0.13536,-1.47954 -0.41797,-2.06054 l -0.002,-0.002 c -0.27339,-0.58838 -0.72919,-1.04189 -1.3379,-1.33984 -0.6172,-0.31536 -1.41851,-0.46289 -2.40429,-0.46289 -0.50307,0 -1.00556,0.0476 -1.50781,0.14258 h -0.002 c -0.4925,0.0958 -0.97108,0.24626 -1.43554,0.45117 -0.1542,0.068 -0.301,0.1888 -0.45313,0.27148 -0.15444,-0.11705 -0.21955,-0.31287 -0.40234,-0.40234 -0.61701,-0.31485 -1.41734,-0.46289 -2.40235,-0.46289 z m 0,0.5 c 0.93633,0 1.66248,0.14458 2.17774,0.4082 h 0.002 l 0.002,0.002 c 0.0962,0.047 0.11971,0.14875 0.20508,0.20312 -0.1669,0.10672 -0.33956,0.17628 -0.5039,0.30078 l -0.32032,0.24219 0.36133,0.17969 1.47852,0.74023 c 0.12011,0.39676 0.25976,0.77558 0.25976,1.28906 v 0.1543 6.01563 h -0.92383 v -6.16993 c 0,-0.25644 -0.0354,-0.52265 -0.10351,-0.79882 v -0.002 c -0.0598,-0.29747 -0.1859,-0.5811 -0.37305,-0.84179 l -0.002,-0.002 c -0.20281,-0.29533 -0.50968,-0.51971 -0.89453,-0.67773 -0.40271,-0.17898 -0.90855,-0.25781 -1.52344,-0.25781 -0.42173,0 -0.85665,0.034 -1.30273,0.10156 -0.44646,0.0677 -0.8975,0.16805 -1.35547,0.30273 l -0.17969,0.0527 v 8.29297 h -0.92188 v -8.65235 c 0.26375,-0.12625 0.52985,-0.24551 0.80274,-0.34375 l 0.002,-0.002 h 0.002 c 0.33141,-0.12747 0.6622,-0.2304 0.99218,-0.30664 0.34635,-0.077 0.69319,-0.13338 1.03906,-0.17188 0.35999,-0.0386 0.72024,-0.0586 1.08008,-0.0586 z m 6.20313,0 c 0.93632,0 1.66248,0.14458 2.17773,0.4082 h 0.002 l 0.002,0.002 c 0.52172,0.25479 0.88059,0.61598 1.10742,1.10546 l 0.002,0.002 v 0.002 c 0.24304,0.49824 0.3711,1.11056 0.3711,1.8457 v 6.16993 h -0.92383 v -6.16993 c 0,-0.25644 -0.0354,-0.52265 -0.10352,-0.79882 v -0.002 c -0.0598,-0.29747 -0.18589,-0.5811 -0.37304,-0.84179 l -0.002,-0.002 c -0.2028,-0.29533 -0.50968,-0.51971 -0.89453,-0.67773 -0.4027,-0.17898 -0.90855,-0.25781 -1.52344,-0.25781 -0.43247,0 -0.87628,0.0618 -1.33007,0.18554 -0.31673,0.0864 -0.63345,0.27272 -0.95118,0.44141 -0.0145,-0.032 -0.008,-0.0799 -0.0234,-0.11133 -0.11739,-0.252 -0.39211,-0.37327 -0.57422,-0.57422 0.0982,-0.0503 0.19438,-0.13228 0.29297,-0.17578 0.43112,-0.1902 0.8743,-0.32935 1.33008,-0.41797 l -0.002,0.002 c 0.47235,-0.0894 0.94448,-0.13476 1.41602,-0.13476 z m -3.45508,0.97656 c 0.14138,0.14378 0.33305,0.24897 0.43164,0.42969 l -0.62695,-0.31445 c 0.0646,-0.0429 0.1305,-0.0753 0.19531,-0.11524 z"
               id="path1986" />
          </g>
          <g
             id="path1949"
             style="fill:#ffffff;fill-opacity:1;stroke:#6d6d6d;stroke-width:0.5;stroke-dasharray:none;stroke-opacity:0.07">
            <path
               style="color:#000000;-inkscape-font-specification:'Maven Pro';fill:#ffffff;fill-opacity:1;stroke:#6d6d6d;stroke-width:0.5;stroke-dasharray:none;stroke-opacity:0.07"
               d="m 147.55058,173.46313 q -0.65194,0 -1.32363,-0.13829 -0.65193,-0.13829 -1.22484,-0.47414 -0.55316,-0.33584 -0.90876,-0.90875 -0.33585,-0.59267 -0.33585,-1.48167 0,-1.22485 0.45438,-1.95581 0.47414,-0.75071 1.28412,-1.0668 0.82973,-0.33585 1.89653,-0.33585 0.80998,0 1.40265,0.0988 0.59267,0.0988 1.04705,0.29634 0.47413,0.1778 0.84949,0.41486 l 0.27658,1.30387 q -0.45438,-0.33584 -1.32363,-0.57291 -0.84949,-0.25682 -1.87678,-0.25682 -1.2446,0 -1.91629,0.47413 -0.67169,0.47414 -0.67169,1.3829 0,0.73095 0.39511,1.16558 0.41487,0.43462 1.02729,0.61242 0.63218,0.1778 1.28411,0.1778 1.28412,0 1.93605,-0.1778 0.67169,-0.19756 0.67169,-0.86925 v -4.52403 q 0,-1.14582 -0.67169,-1.67923 -0.67169,-0.5334 -1.91629,-0.5334 -0.79023,0 -1.67923,0.23707 -0.86924,0.21731 -1.50142,0.7112 v -1.4224 q 0.61242,-0.39511 1.63971,-0.59267 1.02729,-0.21731 1.99532,-0.21731 0.65193,0 1.20509,0.13829 0.55316,0.11853 0.98778,0.37535 0.43462,0.23707 0.73096,0.63218 0.31609,0.37536 0.47413,0.88901 0.1778,0.49389 0.1778,1.12607 v 4.78085 q 0,1.04705 -0.63218,1.56069 -0.61242,0.51365 -1.61996,0.67169 -0.98778,0.15805 -2.1336,0.15805 z"
               id="path1990" />
            <path
               style="color:#000000;-inkscape-font-specification:'Maven Pro';fill:#ffffff;fill-opacity:1;stroke:#6d6d6d;stroke-width:0.5;stroke-dasharray:none;stroke-opacity:0.07"
               d="m 148.36133,162.88086 c -0.66281,0 -1.34394,0.075 -2.04297,0.22266 -0.70616,0.1358 -1.28268,0.33931 -1.72852,0.62695 l -0.11523,0.0742 v 2.07031 l 0.4043,-0.31445 c 0.39166,-0.30599 0.85811,-0.5285 1.4082,-0.66602 h 0.002 0.002 c 0.57484,-0.15329 1.11341,-0.22851 1.61523,-0.22851 0.79402,0 1.37281,0.16968 1.76172,0.47851 0.37952,0.30139 0.57617,0.76739 0.57617,1.48242 v 0.79102 c -0.1073,-0.0485 -0.19755,-0.10918 -0.3125,-0.15235 -0.32332,-0.13959 -0.68771,-0.24448 -1.0957,-0.3125 -0.41334,-0.0689 -0.89321,-0.10156 -1.44336,-0.10156 -0.73744,0 -1.40254,0.11564 -1.99024,0.35352 -0.58637,0.22917 -1.06067,0.62504 -1.40234,1.16601 v 0.002 c -0.33597,0.54048 -0.49219,1.24041 -0.49219,2.08789 0,0.62415 0.11686,1.16175 0.36719,1.60351 l 0.004,0.006 0.002,0.004 c 0.25615,0.41269 0.58982,0.74595 0.99219,0.99023 l 0.002,0.002 c 0.40472,0.23725 0.84052,0.40627 1.30078,0.5039 0.3792,0.0781 0.75316,0.10292 1.125,0.11719 v 0.0254 h 0.25 c 0.77468,0 1.49898,-0.0526 2.17188,-0.16016 0.70404,-0.11043 1.29015,-0.34975 1.74023,-0.72656 0.48466,-0.3949 0.72266,-1.00656 0.72266,-1.7539 v -4.78125 c 0,-0.44349 -0.0622,-0.8447 -0.19141,-1.20508 -3.6e-4,-0.001 3.6e-4,-0.003 0,-0.004 -0.11296,-0.36274 -0.28383,-0.68397 -0.51172,-0.95703 -0.21665,-0.28821 -0.48622,-0.52154 -0.80273,-0.69531 -5.1e-4,-3e-4 -0.001,3e-4 -0.002,0 -0.31365,-0.1851 -0.66721,-0.31846 -1.05664,-0.40235 -0.38968,-0.0969 -0.80953,-0.14648 -1.25976,-0.14648 z m 0,0.5 c 0.41694,0 0.79818,0.0443 1.14453,0.13086 l 0.004,0.002 h 0.004 c 0.34572,0.0741 0.64786,0.18955 0.91211,0.3457 l 0.004,0.002 0.004,0.002 c 0.25946,0.14153 0.47363,0.32878 0.65039,0.56445 l 0.004,0.004 0.006,0.006 c 0.18776,0.22297 0.32916,0.48872 0.42578,0.80273 l 0.002,0.004 0.002,0.006 c 0.10702,0.29727 0.16211,0.643 0.16211,1.04102 v 4.78125 c 0,0.64771 -0.18214,1.07718 -0.53907,1.36718 l -0.002,0.002 h -0.002 c -0.36623,0.30716 -0.85966,0.51705 -1.49805,0.61718 -0.64363,0.10299 -1.34136,0.1543 -2.09375,0.1543 -0.41632,0 -0.84002,-0.0441 -1.27148,-0.13281 h -0.002 c -0.40829,-0.0868 -0.7898,-0.23508 -1.14843,-0.44531 -0.33276,-0.20278 -0.60337,-0.47353 -0.82032,-0.82227 -0.19578,-0.34781 -0.30078,-0.79286 -0.30078,-1.35156 0,-0.78485 0.14668,-1.38823 0.41602,-1.82227 0.29023,-0.45952 0.66917,-0.77638 1.16211,-0.96875 h 0.002 0.002 c 0.51862,-0.20992 1.11777,-0.31836 1.80274,-0.31836 0.52982,0 0.98443,0.0329 1.36133,0.0957 0.37867,0.0631 0.70783,0.15737 0.98828,0.27929 l 0.006,0.002 0.006,0.002 c 0.18397,0.069 0.33168,0.15637 0.49023,0.23828 v 0.66602 c -0.18742,-0.0721 -0.30339,-0.16918 -0.52734,-0.23047 -5.9e-4,-1.8e-4 -0.001,1.7e-4 -0.002,0 -0.59257,-0.17894 -1.24226,-0.26758 -1.94726,-0.26758 -0.86148,0 -1.55332,0.16149 -2.06055,0.51953 -0.50927,0.35949 -0.77734,0.9185 -0.77734,1.58594 0,0.53234 0.15061,0.99261 0.46093,1.33398 l 0.002,0.002 0.002,0.004 c 0.30725,0.32187 0.69253,0.55016 1.13867,0.67969 h 0.002 c 0.44301,0.1246 0.89421,0.1875 1.35156,0.1875 0.86762,0 1.52713,-0.058 2.00195,-0.1875 h 0.002 0.002 c 0.26069,-0.0767 0.48081,-0.21012 0.63086,-0.4043 0.15005,-0.19418 0.2207,-0.43951 0.2207,-0.70508 v -1.76953 c 0.0174,0.0119 0.0599,0.0212 0.0762,0.0332 l 0.5293,0.39257 -0.43555,-2.05273 -0.0879,-0.0547 c -0.0243,-0.0153 -0.0572,-0.0241 -0.082,-0.0391 v -1.03516 c 0,-0.81273 -0.24956,-1.46518 -0.76562,-1.875 -0.50669,-0.40236 -1.20682,-0.58593 -2.07227,-0.58593 -0.55061,0 -1.13122,0.0821 -1.74023,0.24414 -0.45509,0.11377 -0.82312,0.3389 -1.19141,0.56445 v -0.86524 c 0.36346,-0.21501 0.82246,-0.39734 1.4375,-0.51562 h 0.002 0.002 c 0.6693,-0.14158 1.31866,-0.21289 1.94531,-0.21289 z m -0.59375,5.25586 c 0.66402,0 1.26508,0.083 1.80469,0.24609 h 0.004 l 0.002,0.002 c 0.30098,0.0821 0.44977,0.1882 0.66602,0.28515 v 1.98242 c 0,0.18223 -0.0414,0.30483 -0.11523,0.40039 -0.0731,0.0946 -0.18919,0.17162 -0.37305,0.22657 -0.39442,0.10757 -1.0246,0.16992 -1.86914,0.16992 -0.41124,0 -0.81557,-0.0559 -1.21485,-0.16797 h -0.002 c -0.3681,-0.10716 -0.6652,-0.28744 -0.91015,-0.54297 -0.21574,-0.23799 -0.33008,-0.55462 -0.33008,-0.99609 0,-0.54425 0.18009,-0.90504 0.5664,-1.17774 0.38836,-0.27413 0.9735,-0.42773 1.77149,-0.42773 z"
               id="path1992" />
          </g>
          <g
             id="path1951"
             style="fill:#ffffff;fill-opacity:1;stroke:#6d6d6d;stroke-width:0.5;stroke-dasharray:none;stroke-opacity:0.07">
            <path
               style="color:#000000;-inkscape-font-specification:'Maven Pro';fill:#ffffff;fill-opacity:1;stroke:#6d6d6d;stroke-width:0.5;stroke-dasharray:none;stroke-opacity:0.07"
               d="m 155.09723,173.16679 v -9.06782 q 0.23707,-0.0988 0.90876,-0.33584 0.69145,-0.23707 1.63972,-0.43462 0.96802,-0.19756 1.99531,-0.19756 0.15805,0 0.31609,0.0395 0.15805,0.0395 0.31609,0.079 v 1.26436 q -0.51365,-0.0593 -1.00754,-0.0593 -0.47413,0 -0.92851,0.0593 -0.45438,0.0395 -0.90876,0.11853 -0.45438,0.079 -0.90875,0.15805 v 8.37637 z"
               id="path1996" />
            <path
               style="color:#000000;-inkscape-font-specification:'Maven Pro';fill:#ffffff;fill-opacity:1;stroke:#6d6d6d;stroke-width:0.5;stroke-dasharray:none;stroke-opacity:0.07"
               d="m 159.64062,162.88086 c -0.70088,0 -1.38259,0.0679 -2.04492,0.20312 h -0.002 c -0.63985,0.1333 -1.19399,0.28086 -1.66797,0.44336 h -0.002 -0.002 c -0.44936,0.15859 -0.75001,0.27099 -0.91992,0.3418 l -0.15429,0.0625 v 9.48438 h 0.25 1.67187 v -8.41407 c 0.23391,-0.0407 0.46726,-0.0824 0.70117,-0.12304 0.29599,-0.0515 0.59292,-0.0895 0.88867,-0.11524 l 0.004,-0.002 h 0.006 c 0.29186,-0.0381 0.59082,-0.0566 0.89648,-0.0566 0.31926,0 0.64516,0.0181 0.97852,0.0566 l 0.2793,0.0332 v -1.74023 l -0.50586,-0.12696 c -0.12438,-0.0311 -0.25076,-0.0469 -0.37696,-0.0469 z m 0,0.5 c 0.0845,0 0.16952,0.01 0.25586,0.0312 l 0.12696,0.0332 V 164.25 c -0.25447,-0.0217 -0.5099,-0.0449 -0.75782,-0.0449 -0.32254,0 -0.63889,0.0206 -0.94921,0.0605 -0.31009,0.027 -0.62179,0.0672 -0.93164,0.1211 -0.30293,0.0527 -0.60529,0.1055 -0.90821,0.1582 l -0.20703,0.0352 v 8.33594 h -0.92187 v -8.64258 c 0.16493,-0.0648 0.37252,-0.14365 0.74023,-0.27344 0.44744,-0.15341 0.98382,-0.2958 1.60742,-0.42578 0.62837,-0.12824 1.27648,-0.19336 1.94531,-0.19336 z"
               id="path1998" />
          </g>
          <g
             id="path1953"
             style="fill:#ffffff;fill-opacity:1;stroke:#6d6d6d;stroke-width:0.5;stroke-dasharray:none;stroke-opacity:0.07">
            <path
               style="color:#000000;-inkscape-font-specification:'Maven Pro';fill:#ffffff;fill-opacity:1;stroke:#6d6d6d;stroke-width:0.5;stroke-dasharray:none;stroke-opacity:0.07"
               d="m 163.65142,167.25987 4.32648,-3.95112 h 1.778 l -5.78839,5.1167 z m 0.31609,5.90692 h -1.4224 v -13.6116 h 1.4224 z m 0.39511,-6.14399 6.10448,6.14399 h -1.89653 l -5.17597,-5.23523 z"
               id="path2002" />
            <path
               style="color:#000000;-inkscape-font-specification:'Maven Pro';fill:#ffffff;fill-opacity:1;stroke:#6d6d6d;stroke-width:0.5;stroke-dasharray:none;stroke-opacity:0.07"
               d="m 162.29492,159.30469 v 14.11133 h 1.92188 v -0.25 -4.04688 l 4.25,4.29688 h 2.60156 l -5.7832,-5.82032 5.13086,-4.53711 h -2.53516 l -3.66406,3.34766 v -7.10156 z m 0.5,0.5 h 0.92188 v 7.05664 l -0.34571,0.3164 0.0391,0.14844 0.0547,0.19727 -0.42773,0.40234 0.67969,0.6875 v 4.30274 h -0.92188 z m 5.2793,3.7539 h 1.02148 l -4.16406,3.68164 -0.42187,-0.42578 z m -3.71875,3.8125 0.20117,0.20118 -0.33984,0.30078 v -0.3711 z m 0.55273,0.55664 4.95508,4.98829 h -1.1875 l -4.39062,-4.4375 z"
               id="path2004" />
          </g>
          <g
             id="path1955"
             style="fill:#ffffff;fill-opacity:1;stroke:#6d6d6d;stroke-width:0.5;stroke-dasharray:none;stroke-opacity:0.07">
            <path
               style="color:#000000;-inkscape-font-specification:'Maven Pro';fill:#ffffff;fill-opacity:1;stroke:#6d6d6d;stroke-width:0.5;stroke-dasharray:none;stroke-opacity:0.07"
               d="m 176.76914,173.46313 q -1.30387,0 -2.23239,-0.45438 -0.92851,-0.45438 -1.4224,-1.32363 -0.47413,-0.86924 -0.47413,-2.1336 v -6.24277 h 1.4224 v 5.92668 q 0,1.50143 0.65193,2.21263 0.6717,0.69144 2.05459,0.69144 1.38289,0 2.03482,-0.69144 0.67169,-0.7112 0.67169,-2.21263 v -5.92668 h 1.42241 v 6.24277 q 0,1.87678 -1.08656,2.90407 -1.0668,1.00754 -3.04236,1.00754 z"
               id="path2008" />
            <path
               style="color:#000000;-inkscape-font-specification:'Maven Pro';fill:#ffffff;fill-opacity:1;stroke:#6d6d6d;stroke-width:0.5;stroke-dasharray:none;stroke-opacity:0.07"
               d="m 172.39062,163.05859 v 6.49219 c 10e-6,0.87416 0.16342,1.62968 0.50391,2.25391 l 0.002,0.002 v 0.002 c 0.35326,0.62174 0.87143,1.10094 1.53125,1.42383 0.66052,0.32323 1.44352,0.48047 2.3418,0.48047 1.35954,0 2.44569,-0.35158 3.21289,-1.07617 0.7796,-0.73707 1.16602,-1.78651 1.16602,-3.08594 v -6.49219 h -1.92188 v 6.17774 c 0,0.96367 -0.21602,1.63073 -0.60351,2.04101 h -0.002 c -0.37409,0.39677 -0.9713,0.61133 -1.85156,0.61133 -0.87943,0 -1.48495,-0.2165 -1.87305,-0.61523 -0.37336,-0.40985 -0.58398,-1.07514 -0.58398,-2.03711 v -6.17774 z m 0.5,0.5 h 0.92188 v 5.67774 c 0,1.03713 0.22296,1.84213 0.7168,2.38086 l 0.004,0.002 0.002,0.004 c 0.50754,0.52246 1.27078,0.76562 2.23437,0.76562 0.96359,0 1.72165,-0.24437 2.2168,-0.76953 0.50809,-0.53798 0.74023,-1.34458 0.74023,-2.38281 v -5.67774 h 0.92188 v 5.99219 c 0,1.20294 -0.33867,2.09001 -1.00782,2.72266 -0.65519,0.6188 -1.59655,0.93945 -2.87109,0.93945 -0.8402,0 -1.54553,-0.14512 -2.12305,-0.42773 -0.5773,-0.28251 -1.00732,-0.68469 -1.3125,-1.22071 -0.29168,-0.53476 -0.44335,-1.20201 -0.44336,-2.01367 z"
               id="path2010" />
          </g>
          <g
             id="path1957"
             style="fill:#ffffff;fill-opacity:1;stroke:#6d6d6d;stroke-width:0.5;stroke-dasharray:none;stroke-opacity:0.07">
            <path
               style="color:#000000;-inkscape-font-specification:'Maven Pro';fill:#ffffff;fill-opacity:1;stroke:#6d6d6d;stroke-width:0.5;stroke-dasharray:none;stroke-opacity:0.07"
               d="m 186.84447,173.46313 q -1.0668,0 -1.79776,-0.21731 -0.7112,-0.21732 -1.48167,-0.61243 v -1.50142 q 0.61243,0.33584 1.08656,0.57291 0.47414,0.23707 0.96803,0.3556 0.49389,0.0988 1.12606,0.0988 0.98778,0 1.60021,-0.43462 0.63218,-0.43463 0.63218,-1.12607 0,-0.55316 -0.31609,-0.84949 -0.29634,-0.29634 -0.77047,-0.49389 -0.47413,-0.19756 -0.98778,-0.41487 -0.57291,-0.15805 -1.16558,-0.33585 -0.57291,-0.19755 -1.0668,-0.49389 -0.47414,-0.31609 -0.77047,-0.79022 -0.29634,-0.49389 -0.29634,-1.26436 0,-0.75071 0.29634,-1.28411 0.31609,-0.53341 0.80998,-0.86925 0.49389,-0.3556 1.10631,-0.51365 0.61243,-0.15804 1.22485,-0.15804 0.889,0 1.52118,0.23707 0.63218,0.23706 1.30387,0.5334 v 1.4224 q -0.75071,-0.39511 -1.34338,-0.63218 -0.59267,-0.25682 -1.40265,-0.25682 -0.80998,0 -1.46191,0.33584 -0.63218,0.31609 -0.63218,0.98778 0,0.55316 0.31609,0.88901 0.33584,0.31609 0.86924,0.51364 0.5334,0.1778 1.14583,0.3556 0.49389,0.15805 1.02729,0.3556 0.5334,0.1778 0.98778,0.49389 0.45438,0.29634 0.73096,0.79023 0.29633,0.49389 0.29633,1.26436 0,1.04704 -0.5334,1.73849 -0.5334,0.67169 -1.36314,0.98778 -0.80998,0.31609 -1.65947,0.31609 z"
               id="path2014" />
            <path
               style="color:#000000;-inkscape-font-specification:'Maven Pro';fill:#ffffff;fill-opacity:1;stroke:#6d6d6d;stroke-width:0.5;stroke-dasharray:none;stroke-opacity:0.07"
               d="m 187.04297,162.88086 c -0.42979,0 -0.86126,0.0556 -1.28906,0.16601 -0.43415,0.11205 -0.83025,0.2955 -1.1836,0.54883 -7.6e-4,5.2e-4 -0.001,0.001 -0.002,0.002 -0.35861,0.24435 -0.65519,0.56314 -0.88281,0.94726 l -0.002,0.002 -0.002,0.004 c -0.22174,0.39913 -0.32617,0.87093 -0.32617,1.4043 0,0.5457 0.10301,1.01609 0.33008,1.39453 l 0.002,0.002 0.002,0.002 c 0.21608,0.34573 0.49966,0.63584 0.84375,0.86523 l 0.004,0.004 0.006,0.002 c 0.34481,0.20689 0.71585,0.37858 1.11328,0.51562 l 0.006,0.002 0.004,0.002 c 0.3928,0.11784 0.7801,0.22904 1.16015,0.33398 0.33559,0.14194 0.65842,0.2789 0.96875,0.40821 0.29219,0.12174 0.51939,0.26939 0.68945,0.43945 l 0.004,0.004 0.002,0.002 c 0.15411,0.14447 0.23829,0.34486 0.23829,0.66602 0,0.38476 -0.15299,0.66718 -0.52344,0.92187 h -0.002 l -0.002,0.002 c -0.35655,0.25304 -0.83322,0.38868 -1.45508,0.38868 -0.40622,0 -0.76425,-0.0345 -1.07226,-0.0957 -0.3087,-0.0744 -0.61155,-0.18468 -0.91016,-0.33398 -0.31236,-0.15619 -0.67194,-0.34562 -1.07812,-0.56836 l -0.3711,-0.20313 v 2.07813 l 0.13672,0.0684 c 0.52488,0.26917 1.03294,0.47902 1.52344,0.6289 v 0.002 c 0.44968,0.13369 1.01303,0.17819 1.61914,0.19531 v 0.0312 h 0.25 c 0.59669,0 1.18301,-0.11102 1.75,-0.33203 0.59156,-0.22535 1.08577,-0.58413 1.46875,-1.06641 l 0.002,-0.002 c 0.39288,-0.50929 0.58594,-1.1521 0.58594,-1.89258 0,-0.54407 -0.10441,-1.01082 -0.33008,-1.38867 -0.2018,-0.35903 -0.47413,-0.65437 -0.80859,-0.87305 -0.31914,-0.2215 -0.6661,-0.39435 -1.03906,-0.51953 l -0.008,-0.004 c -0.35577,-0.13164 -0.7007,-0.24969 -1.03125,-0.35547 l -0.002,-0.002 h -0.004 c -0.40278,-0.11693 -0.77883,-0.23499 -1.1289,-0.35156 -0.32676,-0.12102 -0.58152,-0.27479 -0.77539,-0.45508 -0.16117,-0.17339 -0.2461,-0.39434 -0.2461,-0.71289 0,-0.36936 0.13605,-0.58462 0.49414,-0.76367 l 0.002,-0.002 c 0.39715,-0.20459 0.84222,-0.30664 1.34765,-0.30664 0.51357,0 0.94575,0.0816 1.30274,0.23632 h 0.004 l 0.004,0.002 c 0.38444,0.15378 0.82365,0.36072 1.31836,0.62109 l 0.36719,0.19336 v -2 l -0.14844,-0.0664 c -0.45177,-0.19931 -0.89209,-0.37726 -1.31836,-0.5371 -0.45753,-0.17158 -0.99253,-0.25391 -1.60742,-0.25391 z m 0,0.5 c 0.57044,0 1.04626,0.0762 1.43164,0.2207 0.36877,0.13829 0.75251,0.29947 1.14258,0.46875 v 0.85938 c -0.34792,-0.17325 -0.69896,-0.34851 -0.99414,-0.4668 -0.43324,-0.18773 -0.93555,-0.27734 -1.50196,-0.27734 -0.57453,0 -1.10408,0.12008 -1.57617,0.36328 -0.48315,0.2427 -0.76758,0.68375 -0.76758,1.20898 0,0.41639 0.12514,0.78677 0.38282,1.06055 l 0.006,0.006 0.006,0.006 c 0.25307,0.23818 0.57283,0.42556 0.95313,0.5664 h 0.004 l 0.004,0.002 c 0.35912,0.1197 0.7452,0.23808 1.15625,0.35742 0.32313,0.10353 0.66,0.22202 1.00977,0.35156 h 0.004 l 0.004,0.002 c 0.33364,0.11122 0.64052,0.26581 0.92383,0.4629 l 0.004,0.002 0.002,0.002 c 0.26913,0.17553 0.4841,0.40619 0.65039,0.70313 l 0.002,0.002 0.002,0.004 c 0.16805,0.28008 0.25977,0.65317 0.25977,1.13476 0,0.65557 -0.16214,1.17329 -0.48047,1.58594 -0.32794,0.41219 -0.742,0.71245 -1.25586,0.9082 h -0.002 c -0.51241,0.19997 -1.03304,0.29883 -1.56836,0.29883 -0.69345,0 -1.26938,-0.0719 -1.72461,-0.20703 h -0.002 c -0.41433,-0.12671 -0.85178,-0.31597 -1.30274,-0.53906 v -0.91993 c 0.25139,0.13442 0.51284,0.27498 0.72461,0.38086 0.33225,0.16613 0.6731,0.29139 1.02149,0.375 l 0.006,0.002 h 0.004 c 0.34938,0.0699 0.74131,0.10547 1.17578,0.10547 0.69519,0 1.28413,-0.15597 1.74414,-0.48243 0.46994,-0.32471 0.73829,-0.79446 0.73829,-1.33007 0,-0.41544 -0.12843,-0.77871 -0.39454,-1.0293 -0.2245,-0.22339 -0.50753,-0.40207 -0.8457,-0.54297 -0.31563,-0.13152 -0.64428,-0.2713 -0.98633,-0.41602 l -0.0156,-0.006 -0.0156,-0.004 c -0.37695,-0.10399 -0.76033,-0.21509 -1.15039,-0.33203 -0.36275,-0.12509 -0.6987,-0.27913 -1.00976,-0.46485 l -0.002,-0.002 c -0.28577,-0.19097 -0.51515,-0.42494 -0.69336,-0.70898 v -0.002 c -4.9e-4,-7.9e-4 -0.001,-0.001 -0.002,-0.002 -0.16689,-0.27974 -0.25781,-0.65297 -0.25781,-1.13281 0,-0.46683 0.0908,-0.84836 0.26367,-1.16016 2.8e-4,-5e-4 -2.8e-4,-0.001 0,-0.002 0.19274,-0.32333 0.43547,-0.58128 0.73242,-0.7832 l 0.002,-0.002 0.004,-0.002 c 0.30375,-0.2187 0.64139,-0.37652 1.02149,-0.47461 0.38876,-0.10032 0.77728,-0.15039 1.16406,-0.15039 z"
               id="path2016" />
          </g>
          <g
             id="path1959"
             style="fill:#ffffff;fill-opacity:1;stroke:#6d6d6d;stroke-width:0.5;stroke-dasharray:none;stroke-opacity:0.07">
            <path
               style="color:#000000;-inkscape-font-specification:'Maven Pro';fill:#ffffff;fill-opacity:1;stroke:#6d6d6d;stroke-width:0.5;stroke-dasharray:none;stroke-opacity:0.07"
               d="m 196.54446,173.16679 v -11.8336 h -4.66232 v -1.34338 h 10.72729 v 1.34338 h -4.64256 v 11.8336 z"
               id="path2020" />
            <path
               style="color:#000000;-inkscape-font-specification:'Maven Pro';fill:#ffffff;fill-opacity:1;stroke:#6d6d6d;stroke-width:0.5;stroke-dasharray:none;stroke-opacity:0.07"
               d="m 191.63281,159.74023 v 1.84375 h 4.66211 v 11.83204 h 0.25 1.67188 v -11.83204 h 4.64257 v -1.84375 z m 0.5,0.5 h 10.22656 v 0.84375 h -4.64257 v 11.83204 h -0.92188 v -11.83204 h -4.66211 z"
               id="path2022" />
          </g>
          <g
             id="path1961"
             style="fill:#ffffff;fill-opacity:1;stroke:#6d6d6d;stroke-width:0.5;stroke-dasharray:none;stroke-opacity:0.07">
            <path
               style="color:#000000;-inkscape-font-specification:'Maven Pro';fill:#ffffff;fill-opacity:1;stroke:#6d6d6d;stroke-width:0.5;stroke-dasharray:none;stroke-opacity:0.07"
               d="m 206.67908,173.46313 q -1.40265,0 -2.42994,-0.57291 -1.02729,-0.59267 -1.58045,-1.75825 -0.55316,-1.16558 -0.55316,-2.90408 0,-2.54847 1.14583,-3.81283 1.16558,-1.28411 3.18065,-1.28411 1.58045,0 2.52872,0.7112 0.96802,0.7112 1.38289,1.91629 0.41487,1.2051 0.39511,2.72628 h -7.92199 l 0.0988,-1.30387 h 6.89471 l -0.55316,0.19755 q -0.0593,-1.48167 -0.75071,-2.21262 -0.67169,-0.73096 -2.07434,-0.73096 -0.96802,0 -1.61996,0.3556 -0.63218,0.3556 -0.94827,1.2446 -0.31609,0.86925 -0.31609,2.4497 0,1.79776 0.82974,2.74603 0.84949,0.92851 2.37067,0.92851 0.73096,0 1.34338,-0.0988 0.61242,-0.11853 1.12607,-0.31609 0.51365,-0.19756 0.90876,-0.43462 v 1.46191 q -0.7112,0.33585 -1.58045,0.51365 -0.84949,0.1778 -1.87678,0.1778 z"
               id="path2026" />
            <path
               style="color:#000000;-inkscape-font-specification:'Maven Pro';fill:#ffffff;fill-opacity:1;stroke:#6d6d6d;stroke-width:0.5;stroke-dasharray:none;stroke-opacity:0.07"
               d="m 206.44141,162.88086 c -1.39649,0 -2.54,0.45607 -3.36524,1.36523 v 0.002 c -0.82001,0.90483 -1.21094,2.24402 -1.21094,3.98047 0,1.18551 0.18871,2.18921 0.57813,3.00976 0.38744,0.81638 0.95216,1.44828 1.68164,1.86914 l 0.002,0.002 c 0.72713,0.40552 1.5836,0.60352 2.55274,0.60352 h 0.0742 l 0.0137,-0.008 c 0.66179,-0.005 1.27897,-0.0589 1.83789,-0.17578 0.59666,-0.12205 1.14243,-0.29783 1.63672,-0.53125 l 0.14453,-0.0684 V 170.869 l -0.37891,0.22656 c -0.24869,0.14922 -0.53793,0.28863 -0.86914,0.41602 -0.327,0.12577 -0.68834,0.22616 -1.08398,0.30273 -0.391,0.0626 -0.82367,0.0957 -1.29688,0.0957 -0.96092,0 -1.66581,-0.2823 -2.18164,-0.84375 v -0.002 c -0.4524,-0.5177 -0.64709,-1.33734 -0.69336,-2.33008 h 7.11328 l 0.002,-0.24609 c 0.0135,-1.0377 -0.12069,-1.97538 -0.40821,-2.81055 -0.29081,-0.84475 -0.784,-1.53137 -1.46875,-2.03515 -0.68551,-0.51413 -1.58855,-0.76172 -2.67968,-0.76172 z m 0,0.5 c 1.01613,0 1.80006,0.22798 2.3789,0.66211 h 0.002 c 0.60478,0.44433 1.03289,1.03576 1.29492,1.79687 0.24071,0.69923 0.33332,1.5158 0.3457,2.39453 h -6.62305 c 0.008,-0.33474 0.0725,-0.52522 0.10352,-0.80273 h 5.07617 l 0.0117,0.29688 0.87305,-0.3125 -0.084,-0.48438 h -0.45312 c -0.10065,-0.7687 -0.24857,-1.49205 -0.66992,-1.9375 -0.50651,-0.54898 -1.27921,-0.80859 -2.25586,-0.80859 -0.67596,0 -1.25799,0.12279 -1.73829,0.38476 l -0.002,0.002 h -0.002 c -0.48352,0.27198 -0.83572,0.74658 -1.06055,1.3789 -0.0879,0.24191 -0.0749,0.67349 -0.12695,0.98047 h -0.81836 l -0.13672,1.80273 h 0.78516 c 0.0401,1.1082 0.29824,2.0211 0.85742,2.66016 l 0.002,0.002 0.002,0.004 c 0.6165,0.67384 1.48971,1.00977 2.55469,1.00977 0.49857,0 0.9591,-0.0352 1.38281,-0.10352 h 0.004 0.004 c 0.42092,-0.0815 0.8101,-0.19048 1.16797,-0.32812 0.21248,-0.0817 0.3851,-0.1808 0.57031,-0.27344 v 0.88672 c -0.42055,0.18596 -0.8712,0.34497 -1.38086,0.44922 h -0.002 c -0.54655,0.11439 -1.15379,0.17187 -1.82422,0.17187 -0.89945,0 -1.66282,-0.18197 -2.30469,-0.53906 l -0.002,-0.002 c -0.63907,-0.36933 -1.12885,-0.90967 -1.47852,-1.64648 -0.34813,-0.73356 -0.5293,-1.66439 -0.5293,-2.79687 0,-1.66067 0.37497,-2.86353 1.08204,-3.64454 0.72886,-0.80298 1.70386,-1.20312 2.99414,-1.20312 z m 0,1.30469 c 0.89167,0 1.50149,0.22497 1.89062,0.64843 l 0.002,0.002 v 0.002 c 0.31509,0.33311 0.4334,0.95025 0.53125,1.59375 h -4.85937 c 0.0453,-0.24354 0.0369,-0.62747 0.10351,-0.81055 v -0.002 c 0.19625,-0.55192 0.47563,-0.90702 0.83399,-1.10937 7.1e-4,-4e-4 0.001,-0.002 0.002,-0.002 0.38848,-0.21103 0.88306,-0.32226 1.4961,-0.32226 z m -3.28321,2.74609 h 0.28711 c -0.0284,0.27908 -0.097,0.47825 -0.10351,0.80273 h -0.24414 z"
               id="path2028" />
          </g>
          <g
             id="path1963"
             style="fill:#ffffff;fill-opacity:1;stroke:#6d6d6d;stroke-width:0.5;stroke-dasharray:none;stroke-opacity:0.07">
            <path
               style="color:#000000;-inkscape-font-specification:'Maven Pro';fill:#ffffff;fill-opacity:1;stroke:#6d6d6d;stroke-width:0.5;stroke-dasharray:none;stroke-opacity:0.07"
               d="m 217.42615,173.46313 q -1.52118,0 -2.52872,-0.59267 -0.98778,-0.61242 -1.48167,-1.71874 -0.49389,-1.12607 -0.49389,-2.64725 0,-1.69898 0.45438,-2.74603 0.45438,-1.0668 1.16558,-1.61996 0.73096,-0.57291 1.58045,-0.77046 0.86924,-0.21732 1.67922,-0.21732 0.92852,0 1.75825,0.25683 0.84949,0.23706 1.38289,0.77047 0.55316,0.5334 0.55316,1.4224 v 7.98126 q 0,0.59267 -0.1778,1.20509 -0.1778,0.61243 -0.65193,1.12607 -0.45438,0.5334 -1.30387,0.84949 -0.82974,0.31609 -2.15336,0.31609 -0.8495,0 -1.5607,-0.15804 -0.7112,-0.15805 -1.2446,-0.29634 v -1.34338 q 0.31609,0.079 0.7112,0.1778 0.41487,0.11854 0.889,0.19756 0.49389,0.079 1.04705,0.079 1.34338,0 1.97556,-0.33584 0.65194,-0.31609 0.84949,-0.80998 0.19756,-0.47414 0.19756,-0.96803 v -1.44216 l 0.49389,0.49389 q -0.37536,0.19756 -0.94827,0.37536 -0.57291,0.1778 -1.16558,0.29633 -0.59267,0.11854 -1.02729,0.11854 z m 0,-1.30387 q 0.63218,0 1.32362,-0.15805 0.7112,-0.1778 1.32363,-0.5334 v -5.66985 q 0,-0.55316 -0.31609,-0.82974 -0.29634,-0.29633 -0.80998,-0.39511 -0.51365,-0.11854 -1.10632,-0.11854 -1.44215,0 -2.17311,0.57292 -0.73096,0.55315 -0.98778,1.48167 -0.25682,0.92851 -0.25682,1.99531 0,1.61996 0.69144,2.64725 0.69145,1.00754 2.31141,1.00754 z"
               id="path2032" />
            <path
               style="color:#000000;-inkscape-font-specification:'Maven Pro';fill:#ffffff;fill-opacity:1;stroke:#6d6d6d;stroke-width:0.5;stroke-dasharray:none;stroke-opacity:0.07"
               d="m 217.80078,162.90039 c -0.5611,0 -1.13855,0.076 -1.73437,0.22461 -0.60229,0.14006 -1.1648,0.41469 -1.67774,0.81641 -0.51524,0.40075 -0.92694,0.97862 -1.24219,1.71875 -0.32213,0.7431 -0.47461,1.68958 -0.47461,2.84375 0,1.04117 0.16974,1.95941 0.51563,2.74804 v 0.002 c 0.34755,0.77851 0.87817,1.39415 1.57812,1.82812 l 0.002,0.002 0.004,0.002 c 0.71909,0.42299 1.60771,0.62695 2.6543,0.62695 h 0.25 v -0.0293 c 0.25602,-0.0149 0.51403,-0.0313 0.82617,-0.0937 0.4035,-0.0807 0.80118,-0.18163 1.19141,-0.30273 0.0519,-0.0161 0.0811,-0.0363 0.13086,-0.0527 v 0.38672 c 0,0.29593 -0.0598,0.58345 -0.17969,0.8711 v 0.002 0.002 c -0.10331,0.25829 -0.32901,0.48499 -0.72656,0.67774 l -0.004,0.002 -0.006,0.002 c -0.35666,0.18948 -0.98267,0.30664 -1.85742,0.30664 -0.35687,0 -0.69293,-0.0258 -1.00781,-0.0762 l 0.002,0.002 c -0.30775,-0.0513 -0.59483,-0.11526 -0.86133,-0.19141 l -0.004,-0.002 h -0.004 c -0.26341,-0.0659 -0.5002,-0.12507 -0.71094,-0.17774 l -0.31054,-0.0781 v 1.85742 l 0.18554,0.0469 c 0.35934,0.0932 0.77762,0.19299 1.25391,0.29883 0.49471,0.10993 1.0334,0.16407 1.61523,0.16406 0.90155,0 1.646,-0.10595 2.24024,-0.33203 0.59479,-0.22131 1.06741,-0.52526 1.4043,-0.91992 0.33644,-0.36598 0.57581,-0.77352 0.70507,-1.21875 0.12456,-0.42901 0.1875,-0.85528 0.1875,-1.27539 v -7.98242 c 0,-0.64384 -0.21301,-1.19595 -0.63086,-1.59961 -0.38762,-0.38649 -0.88672,-0.66483 -1.48242,-0.83203 -0.57831,-0.17901 -1.18997,-0.26758 -1.83203,-0.26758 z m 0,0.5 c 0.59596,0 1.15756,0.0827 1.68555,0.24609 h 0.002 l 0.004,0.002 c 0.53261,0.14863 0.95166,0.38525 1.27343,0.70703 h 0.002 l 0.002,0.002 c 0.31882,0.30743 0.47656,0.70138 0.47656,1.24219 v 7.98242 c 0,0.37011 -0.0555,0.74722 -0.16797,1.13477 -0.10716,0.36911 -0.30264,0.70986 -0.5957,1.02734 l -0.004,0.002 -0.002,0.004 c -0.26885,0.31561 -0.66427,0.57757 -1.20117,0.77734 l -0.002,0.002 c -0.51184,0.19498 -1.20194,0.29883 -2.06446,0.29882 -0.55083,0 -1.0523,-0.0516 -1.50586,-0.15234 -0.40035,-0.089 -0.73482,-0.16888 -1.04882,-0.24805 v -0.82617 c 0.1316,0.0329 0.25209,0.0625 0.40039,0.0996 0.28452,0.081 0.58657,0.14757 0.9082,0.20117 h 0.002 c 0.34364,0.055 0.70527,0.082 1.08594,0.082 0.91476,0 1.60374,-0.10793 2.08984,-0.36523 0.46723,-0.22833 0.80769,-0.53972 0.9668,-0.9375 0.14256,-0.34341 0.2168,-0.69923 0.2168,-1.06055 v -0.58398 c 0.11366,-0.0484 0.26164,-0.0911 0.35937,-0.14258 l 0.30078,-0.1582 -0.97656,-0.97656 c 0.0603,-0.0319 0.1324,-0.0419 0.19141,-0.0762 l 0.125,-0.0723 v -5.8125 c 0,-0.41336 -0.13158,-0.77289 -0.40039,-1.01172 -0.23745,-0.2341 -0.55357,-0.38463 -0.92774,-0.45703 -6.6e-4,-1.5e-4 -0.001,-0.002 -0.002,-0.002 -0.3603,-0.0823 -0.74406,-0.12304 -1.15234,-0.12304 -0.99278,0 -1.77424,0.19346 -2.32422,0.62304 -4.5e-4,3.4e-4 4.4e-4,0.002 0,0.002 -0.52903,0.40079 -0.89422,0.94838 -1.07813,1.61328 -0.17777,0.64272 -0.26562,1.32929 -0.26562,2.06055 0,1.11554 0.23942,2.05175 0.73437,2.78711 v 0.002 c 0.51251,0.74679 1.38578,1.11719 2.51758,1.11719 0.44229,0 0.90181,-0.057 1.37891,-0.16602 h 0.004 0.002 c 0.36179,-0.0904 0.68707,-0.25107 1.01367,-0.4082 v 0.86328 c -0.10133,0.0364 -0.16486,0.0739 -0.2793,0.10937 -0.37365,0.11596 -0.75389,0.21368 -1.14062,0.29102 -0.38359,0.0767 -0.7115,0.11328 -0.97852,0.11328 -0.98014,0 -1.77457,-0.19247 -2.39844,-0.55859 -0.61521,-0.38241 -1.07246,-0.90833 -1.38281,-1.60352 -0.31263,-0.71279 -0.47266,-1.55981 -0.47266,-2.54687 0,-1.11037 0.15034,-1.99375 0.4336,-2.64649 v -0.002 c 0.2906,-0.68227 0.65682,-1.18274 1.08984,-1.51953 0.46128,-0.36154 0.95457,-0.60141 1.48438,-0.72461 h 0.002 0.002 c 0.56177,-0.14045 1.09956,-0.21094 1.61719,-0.21094 z m 0.041,1.30469 c 0.37844,0 0.72692,0.037 1.04882,0.11133 l 0.006,0.002 h 0.004 c 0.30566,0.0588 0.52337,0.16986 0.67969,0.32617 l 0.006,0.006 0.006,0.006 c 0.14856,0.13 0.23242,0.32142 0.23242,0.64258 v 5.50195 c -0.35525,0.19318 -0.72648,0.35496 -1.13477,0.45703 -0.44333,0.10106 -0.86427,0.15235 -1.26367,0.15235 -1.02681,0 -1.69395,-0.30338 -2.10351,-0.89844 -0.42697,-0.63436 -0.64844,-1.46341 -0.64844,-2.50781 0,-0.69114 0.0834,-1.33244 0.24804,-1.92774 0.15837,-0.57257 0.45162,-1.01296 0.89649,-1.34961 l 0.002,-0.002 h 0.002 c 0.42447,-0.3327 1.0912,-0.51953 2.01953,-0.51953 z"
               id="path2034" />
          </g>
          <g
             id="path1965"
             style="fill:#ffffff;fill-opacity:1;stroke:#6d6d6d;stroke-width:0.5;stroke-dasharray:none;stroke-opacity:0.07">
            <path
               style="color:#000000;-inkscape-font-specification:'Maven Pro';fill:#ffffff;fill-opacity:1;stroke:#6d6d6d;stroke-width:0.5;stroke-dasharray:none;stroke-opacity:0.07"
               d="m 228.72635,173.46313 q -1.40265,0 -2.42994,-0.57291 -1.02729,-0.59267 -1.58045,-1.75825 -0.55315,-1.16558 -0.55315,-2.90408 0,-2.54847 1.14582,-3.81283 1.16558,-1.28411 3.18065,-1.28411 1.58045,0 2.52872,0.7112 0.96802,0.7112 1.38289,1.91629 0.41487,1.2051 0.39511,2.72628 h -7.92199 l 0.0988,-1.30387 h 6.8947 l -0.55316,0.19755 q -0.0593,-1.48167 -0.75071,-2.21262 -0.67169,-0.73096 -2.07434,-0.73096 -0.96802,0 -1.61996,0.3556 -0.63218,0.3556 -0.94827,1.2446 -0.31609,0.86925 -0.31609,2.4497 0,1.79776 0.82974,2.74603 0.84949,0.92851 2.37067,0.92851 0.73096,0 1.34338,-0.0988 0.61243,-0.11853 1.12607,-0.31609 0.51365,-0.19756 0.90876,-0.43462 v 1.46191 q -0.7112,0.33585 -1.58045,0.51365 -0.84949,0.1778 -1.87678,0.1778 z"
               id="path2038" />
            <path
               style="color:#000000;-inkscape-font-specification:'Maven Pro';fill:#ffffff;fill-opacity:1;stroke:#6d6d6d;stroke-width:0.5;stroke-dasharray:none;stroke-opacity:0.07"
               d="m 228.49023,162.88086 c -1.39648,0 -2.54194,0.45607 -3.36718,1.36523 v 0.002 c -0.82001,0.90483 -1.21094,2.24402 -1.21094,3.98047 0,1.18551 0.18872,2.18921 0.57812,3.00976 0.38744,0.81638 0.95216,1.44828 1.68164,1.86914 h 0.002 v 0.002 c 0.72713,0.40552 1.5836,0.60352 2.55273,0.60352 h 0.10352 l 0.0117,-0.0117 c 0.65038,-0.007 1.25998,-0.0568 1.81054,-0.17187 0.59667,-0.12205 1.14438,-0.29783 1.63868,-0.53125 l 0.14257,-0.0684 v -2.06055 l -0.3789,0.22656 c -0.2487,0.14922 -0.53793,0.28863 -0.86914,0.41602 -0.32699,0.12577 -0.68834,0.22616 -1.08399,0.30273 -0.39099,0.0626 -0.82367,0.0957 -1.29687,0.0957 -0.96093,0 -1.66581,-0.2823 -2.18164,-0.84375 v -0.002 c -0.4524,-0.5177 -0.64709,-1.33734 -0.69336,-2.33008 h 7.11328 l 0.004,-0.24609 c 0.0135,-1.0377 -0.12264,-1.97538 -0.41015,-2.81055 -0.29082,-0.84475 -0.784,-1.53137 -1.46875,-2.03515 -0.68551,-0.51413 -1.5866,-0.76172 -2.67774,-0.76172 z m 0,0.5 c 1.01614,0 1.79811,0.22798 2.37696,0.66211 h 0.002 c 0.60478,0.44433 1.0329,1.03576 1.29492,1.79687 0.24072,0.69924 0.33528,1.51579 0.34766,2.39453 h -6.625 c 0.008,-0.33474 0.0725,-0.52522 0.10351,-0.80273 h 5.07618 l 0.0117,0.29688 0.87305,-0.3125 -0.084,-0.48438 h -0.45313 c -0.10053,-0.76771 -0.24561,-1.49025 -0.66601,-1.93555 l -0.002,-0.002 c -0.50648,-0.5498 -1.2785,-0.80859 -2.25586,-0.80859 -0.67595,0 -1.25994,0.12279 -1.74023,0.38476 l -0.002,0.002 h -0.002 c -0.48352,0.27198 -0.83572,0.74658 -1.06054,1.3789 -0.0879,0.24191 -0.0749,0.67349 -0.12696,0.98047 h -0.81836 l -0.13671,1.80273 h 0.78515 c 0.0401,1.1082 0.29825,2.0211 0.85742,2.66016 l 0.002,0.002 0.002,0.004 c 0.61649,0.67384 1.4897,1.00977 2.55469,1.00977 0.49857,0 0.96104,-0.0352 1.38476,-0.10352 h 0.004 0.002 c 0.42093,-0.0815 0.81206,-0.19048 1.16992,-0.32812 0.21226,-0.0816 0.38333,-0.18091 0.56836,-0.27344 v 0.88672 c -0.42054,0.18596 -0.8712,0.34497 -1.38086,0.44922 -0.54654,0.11439 -1.15573,0.17187 -1.82617,0.17187 -0.89944,0 -1.66281,-0.18197 -2.30469,-0.53906 l -0.002,-0.002 c -0.63906,-0.36933 -1.12884,-0.90967 -1.47851,-1.64648 -0.34813,-0.73356 -0.5293,-1.66439 -0.5293,-2.79687 0,-1.66067 0.37497,-2.86353 1.08203,-3.64454 0.72886,-0.80298 1.70582,-1.20312 2.99609,-1.20312 z m 0,1.30469 c 0.89168,0 1.49955,0.22497 1.88868,0.64843 l 0.002,0.002 0.002,0.002 c 0.31506,0.33308 0.43143,0.95033 0.5293,1.59375 h -4.85938 c 0.0453,-0.24354 0.0369,-0.62747 0.10352,-0.81055 v -0.002 c 0.19624,-0.55192 0.47562,-0.90702 0.83398,-1.10937 7.1e-4,-4e-4 0.001,-0.002 0.002,-0.002 0.38848,-0.21103 0.885,-0.32226 1.49804,-0.32226 z m -3.28515,2.74609 h 0.28711 c -0.0284,0.27908 -0.097,0.47825 -0.10352,0.80273 h -0.24414 z"
               id="path2040" />
          </g>
          <g
             id="path1967"
             style="fill:#ffffff;fill-opacity:1;stroke:#6d6d6d;stroke-width:0.5;stroke-dasharray:none;stroke-opacity:0.07">
            <path
               style="color:#000000;-inkscape-font-specification:'Maven Pro';fill:#ffffff;fill-opacity:1;stroke:#6d6d6d;stroke-width:0.5;stroke-dasharray:none;stroke-opacity:0.07"
               d="m 236.88543,173.16679 h -1.4224 v -13.6116 h 1.4224 z"
               id="path2044" />
            <path
               style="color:#000000;-inkscape-font-specification:'Maven Pro';fill:#ffffff;fill-opacity:1;stroke:#6d6d6d;stroke-width:0.5;stroke-dasharray:none;stroke-opacity:0.07"
               d="m 235.21289,159.30469 v 14.11133 h 1.92188 v -0.25 -13.86133 z m 0.5,0.5 h 0.92188 v 13.11133 h -0.92188 z"
               id="path2046" />
          </g>
          <g
             id="path1969"
             style="fill:#ffffff;fill-opacity:1;stroke:#6d6d6d;stroke-width:0.5;stroke-dasharray:none;stroke-opacity:0.07">
            <path
               style="color:#000000;-inkscape-font-specification:'Maven Pro';fill:#ffffff;fill-opacity:1;stroke:#6d6d6d;stroke-width:0.5;stroke-dasharray:none;stroke-opacity:0.07"
               d="m 243.4443,173.46313 q -0.65193,0 -1.32363,-0.13829 -0.65193,-0.13829 -1.22484,-0.47414 -0.55316,-0.33584 -0.90876,-0.90875 -0.33585,-0.59267 -0.33585,-1.48167 0,-1.22485 0.45438,-1.95581 0.47414,-0.75071 1.28412,-1.0668 0.82973,-0.33585 1.89654,-0.33585 0.80997,0 1.40264,0.0988 0.59267,0.0988 1.04705,0.29634 0.47413,0.1778 0.84949,0.41486 l 0.27658,1.30387 q -0.45438,-0.33584 -1.32363,-0.57291 -0.84949,-0.25682 -1.87678,-0.25682 -1.2446,0 -1.91629,0.47413 -0.67169,0.47414 -0.67169,1.3829 0,0.73095 0.39511,1.16558 0.41487,0.43462 1.02729,0.61242 0.63218,0.1778 1.28412,0.1778 1.28411,0 1.93604,-0.1778 0.67169,-0.19756 0.67169,-0.86925 v -4.52403 q 0,-1.14582 -0.67169,-1.67923 -0.67169,-0.5334 -1.91629,-0.5334 -0.79022,0 -1.67923,0.23707 -0.86924,0.21731 -1.50142,0.7112 v -1.4224 q 0.61242,-0.39511 1.63971,-0.59267 1.0273,-0.21731 1.99532,-0.21731 0.65193,0 1.20509,0.13829 0.55316,0.11853 0.98778,0.37535 0.43462,0.23707 0.73096,0.63218 0.31609,0.37536 0.47413,0.88901 0.1778,0.49389 0.1778,1.12607 v 4.78085 q 0,1.04705 -0.63218,1.56069 -0.61242,0.51365 -1.61996,0.67169 -0.98778,0.15805 -2.1336,0.15805 z"
               id="path2050" />
            <path
               style="color:#000000;-inkscape-font-specification:'Maven Pro';fill:#ffffff;fill-opacity:1;stroke:#6d6d6d;stroke-width:0.5;stroke-dasharray:none;stroke-opacity:0.07"
               d="m 244.25391,162.88086 c -0.6628,0 -1.34394,0.075 -2.04297,0.22266 -0.70617,0.1358 -1.28073,0.33931 -1.72657,0.62695 l -0.11523,0.0742 v 2.07031 l 0.4043,-0.31445 c 0.39166,-0.30599 0.85811,-0.5285 1.4082,-0.66602 h 0.002 0.002 c 0.57485,-0.15329 1.11342,-0.22851 1.61523,-0.22851 0.79402,0 1.37086,0.16968 1.75977,0.47851 0.37952,0.30139 0.57812,0.76739 0.57812,1.48242 v 0.79102 c -0.10748,-0.0486 -0.19735,-0.1091 -0.3125,-0.15235 -0.32332,-0.13959 -0.68771,-0.24448 -1.0957,-0.3125 -0.41333,-0.0689 -0.89322,-0.10156 -1.44336,-0.10156 -0.73744,0 -1.40254,0.11564 -1.99024,0.35352 -0.58637,0.22917 -1.06066,0.62504 -1.40234,1.16601 l -0.002,0.002 c -0.33598,0.54048 -0.49219,1.24041 -0.49219,2.08789 0,0.62415 0.11881,1.16175 0.36914,1.60351 l 0.002,0.006 0.004,0.004 c 0.25616,0.41269 0.58787,0.74595 0.99023,0.99023 h 0.002 l 0.002,0.002 c 0.40472,0.23725 0.83856,0.40627 1.29883,0.5039 h 0.002 c 0.37909,0.078 0.75132,0.10291 1.12305,0.11719 v 0.0254 h 0.25 c 0.77537,0 1.50042,-0.0524 2.17383,-0.16016 0.70404,-0.11043 1.29015,-0.34975 1.74023,-0.72656 0.48466,-0.3949 0.72266,-1.00656 0.72266,-1.7539 v -4.78125 c 0,-0.44349 -0.0642,-0.8447 -0.19336,-1.20508 -3.6e-4,-0.001 3.6e-4,-0.003 0,-0.004 -0.11342,-0.3642 -0.28441,-0.68717 -0.51367,-0.96094 -0.21695,-0.2873 -0.48818,-0.52027 -0.80469,-0.69336 -0.31174,-0.18339 -0.66239,-0.31677 -1.04883,-0.40039 -0.39119,-0.0978 -0.81333,-0.14648 -1.26562,-0.14648 z m 0,0.5 c 0.41694,0 0.79817,0.0443 1.14453,0.13086 l 0.004,0.002 h 0.004 c 0.34572,0.0741 0.64981,0.18955 0.91406,0.3457 l 0.004,0.002 0.004,0.002 c 0.25946,0.14153 0.47364,0.32878 0.6504,0.56445 l 0.004,0.004 0.004,0.006 c 0.18776,0.22297 0.33112,0.48872 0.42773,0.80273 v 0.004 l 0.004,0.006 c 0.10702,0.29727 0.16211,0.643 0.16211,1.04102 v 4.78125 c 0,0.64771 -0.18214,1.07718 -0.53906,1.36718 l -0.002,0.002 h -0.002 c -0.36623,0.30716 -0.85966,0.51705 -1.49805,0.61718 -0.64363,0.10299 -1.34332,0.1543 -2.0957,0.1543 -0.41694,0 -0.83933,-0.0438 -1.27149,-0.13281 -0.40897,-0.0868 -0.79122,-0.23477 -1.15039,-0.44531 -0.33078,-0.20158 -0.6001,-0.47067 -0.8164,-0.81641 v -0.002 c -0.19695,-0.34827 -0.30469,-0.79506 -0.30469,-1.35547 0,-0.78565 0.1481,-1.39009 0.41797,-1.82422 0.29003,-0.45817 0.67007,-0.77478 1.16211,-0.9668 h 0.002 0.002 c 0.51862,-0.20992 1.11777,-0.31836 1.80274,-0.31836 0.52981,0 0.98444,0.0329 1.36133,0.0957 0.37868,0.0631 0.70783,0.15737 0.98828,0.27929 l 0.006,0.002 0.006,0.002 c 0.18462,0.0692 0.33121,0.15799 0.49023,0.24023 v 0.66407 c -0.18848,-0.0726 -0.30579,-0.16883 -0.53125,-0.23047 -0.5921,-0.17858 -1.24101,-0.26758 -1.94531,-0.26758 -0.86148,0 -1.55332,0.16149 -2.06055,0.51953 -0.50927,0.35949 -0.77734,0.9185 -0.77734,1.58594 0,0.53234 0.14865,0.99261 0.45898,1.33398 l 0.002,0.002 0.002,0.004 c 0.30725,0.32187 0.69253,0.55016 1.13867,0.67969 h 0.002 c 0.44302,0.1246 0.89421,0.1875 1.35157,0.1875 0.86761,0 1.52713,-0.058 2.00195,-0.1875 h 0.004 0.002 c 0.26069,-0.0767 0.48081,-0.21012 0.63086,-0.4043 0.15005,-0.19418 0.2207,-0.43951 0.2207,-0.70508 v -1.76757 c 0.0169,0.0116 0.0585,0.0196 0.0742,0.0312 l 0.53125,0.39257 -0.43555,-2.05273 -0.0898,-0.0547 c -0.0239,-0.0151 -0.0557,-0.0244 -0.0801,-0.0391 v -1.03516 c 0,-0.81273 -0.25151,-1.46518 -0.76758,-1.875 -0.50668,-0.40236 -1.20486,-0.58593 -2.07031,-0.58593 -0.5506,0 -1.13121,0.0821 -1.74023,0.24414 -0.45464,0.11365 -0.82339,0.33923 -1.19141,0.56445 v -0.86524 c 0.36333,-0.21467 0.82315,-0.39747 1.4375,-0.51562 h 0.002 0.002 c 0.66931,-0.14158 1.31672,-0.21289 1.94336,-0.21289 z m -0.5918,5.25586 c 0.66403,0 1.26508,0.083 1.80469,0.24609 h 0.002 l 0.004,0.002 c 0.30137,0.0822 0.44959,0.18806 0.66601,0.28515 v 1.98242 c 0,0.18223 -0.0433,0.30483 -0.11719,0.40039 -0.0731,0.0946 -0.18724,0.17162 -0.37109,0.22657 -0.39442,0.10757 -1.02656,0.16992 -1.87109,0.16992 -0.41125,0 -0.81362,-0.0559 -1.21289,-0.16797 h -0.002 c -0.36809,-0.10716 -0.66519,-0.28744 -0.91015,-0.54297 -0.21574,-0.23799 -0.33008,-0.55462 -0.33008,-0.99609 0,-0.54425 0.17814,-0.90504 0.56445,-1.17774 0.38836,-0.27413 0.97545,-0.42773 1.77344,-0.42773 z"
               id="path2052" />
          </g>
          <g
             id="path1971"
             style="fill:#ffffff;fill-opacity:1;stroke:#6d6d6d;stroke-width:0.5;stroke-dasharray:none;stroke-opacity:0.07">
            <path
               style="color:#000000;-inkscape-font-specification:'Maven Pro';fill:#ffffff;fill-opacity:1;stroke:#6d6d6d;stroke-width:0.5;stroke-dasharray:none;stroke-opacity:0.07"
               d="m 250.99095,164.09897 q 0.47413,-0.23706 0.96802,-0.41486 0.51365,-0.19756 1.02729,-0.31609 0.5334,-0.11854 1.06681,-0.1778 0.55315,-0.0593 1.10631,-0.0593 1.44216,0 2.29165,0.43462 0.84949,0.41487 1.22485,1.22485 0.39511,0.80998 0.39511,1.9558 v 6.42057 h -1.42241 v -6.42057 q 0,-0.3556 -0.0988,-0.75071 -0.079,-0.39511 -0.33585,-0.75071 -0.25682,-0.37536 -0.79022,-0.59267 -0.5334,-0.23707 -1.42241,-0.23707 -0.61242,0 -1.26435,0.0988 -0.65194,0.0988 -1.32363,0.29634 v 8.35661 h -1.4224 z"
               id="path2056" />
            <path
               style="color:#000000;-inkscape-font-specification:'Maven Pro';fill:#ffffff;fill-opacity:1;stroke:#6d6d6d;stroke-width:0.5;stroke-dasharray:none;stroke-opacity:0.07"
               d="m 255.16016,162.88086 c -0.37771,0 -0.75527,0.0201 -1.13282,0.0605 h -0.002 c -0.3647,0.0405 -0.72953,0.1007 -1.09375,0.18164 v 0.002 h -0.002 c -0.35232,0.0813 -0.70379,0.18956 -1.05469,0.32422 -5.6e-4,2e-4 -0.001,-2e-4 -0.002,0 -10e-4,5.2e-4 -0.003,0.001 -0.004,0.002 -0.33659,0.12143 -0.6673,0.26237 -0.99023,0.42383 l -0.13868,0.0703 v 0.1543 9.31641 h 1.92383 v -8.40625 c 0.37477,-0.10296 0.74557,-0.19292 1.10938,-0.24805 0.42315,-0.0641 0.83368,-0.0977 1.22851,-0.0977 0.57045,0 1.01182,0.0797 1.32032,0.2168 l 0.004,0.002 h 0.004 c 0.322,0.13119 0.53937,0.30168 0.67773,0.50391 l 0.002,0.002 0.002,0.002 c 0.15262,0.21131 0.24769,0.42784 0.29297,0.6543 l 0.002,0.006 v 0.006 c 0.0616,0.24628 0.0918,0.47554 0.0918,0.68945 v 6.66993 h 1.92187 v -6.66993 c 0,-0.79102 -0.13535,-1.47954 -0.41797,-2.06054 l -0.002,-0.002 c -0.27338,-0.58838 -0.72919,-1.04189 -1.33789,-1.33984 -0.6172,-0.31536 -1.41656,-0.46289 -2.40234,-0.46289 z m 0,0.5 c 0.93632,0 1.66247,0.14458 2.17773,0.4082 h 0.002 l 0.002,0.002 c 0.52172,0.25479 0.88058,0.61403 1.10742,1.10351 v 0.004 l 0.002,0.002 c 0.24304,0.49824 0.36914,1.11056 0.36914,1.8457 v 6.16993 h -0.92187 v -6.16993 c 0,-0.25644 -0.0354,-0.52265 -0.10352,-0.79882 v -0.002 c -0.0598,-0.29747 -0.18784,-0.5811 -0.375,-0.84179 l -0.002,-0.002 c -0.20309,-0.29574 -0.51088,-0.51967 -0.89649,-0.67773 -0.40221,-0.17804 -0.90616,-0.25977 -1.51953,-0.25977 -0.42172,0 -0.85665,0.0359 -1.30273,0.10352 -0.44646,0.0677 -0.8975,0.16805 -1.35547,0.30273 l -0.17969,0.0527 v 8.29297 h -0.92383 v -8.65235 c 0.2642,-0.12652 0.52937,-0.24534 0.80274,-0.34375 l 0.004,-0.002 h 0.002 c 0.33141,-0.12747 0.66221,-0.2304 0.99219,-0.30664 0.34698,-0.0771 0.69254,-0.13338 1.03906,-0.17188 0.35998,-0.0386 0.72024,-0.0586 1.08008,-0.0586 z"
               id="path2058" />
          </g>
          <g
             id="path1973"
             style="fill:#ffffff;fill-opacity:1;stroke:#6d6d6d;stroke-width:0.5;stroke-dasharray:none;stroke-opacity:0.07">
            <path
               style="color:#000000;-inkscape-font-specification:'Maven Pro';fill:#ffffff;fill-opacity:1;stroke:#6d6d6d;stroke-width:0.5;stroke-dasharray:none;stroke-opacity:0.07"
               d="m 266.30155,173.46313 q -1.40264,0 -2.42994,-0.57291 -1.02729,-0.59267 -1.58044,-1.75825 -0.55316,-1.16558 -0.55316,-2.90408 0,-2.54847 1.14582,-3.81283 1.16558,-1.28411 3.18066,-1.28411 1.58044,0 2.52871,0.7112 0.96803,0.7112 1.38289,1.91629 0.41487,1.2051 0.39512,2.72628 h -7.922 l 0.0988,-1.30387 h 6.8947 l -0.55315,0.19755 q -0.0593,-1.48167 -0.75072,-2.21262 -0.67169,-0.73096 -2.07433,-0.73096 -0.96803,0 -1.61996,0.3556 -0.63218,0.3556 -0.94827,1.2446 -0.31609,0.86925 -0.31609,2.4497 0,1.79776 0.82973,2.74603 0.84949,0.92851 2.37068,0.92851 0.73095,0 1.34338,-0.0988 0.61242,-0.11853 1.12607,-0.31609 0.51364,-0.19756 0.90875,-0.43462 v 1.46191 q -0.7112,0.33585 -1.58045,0.51365 -0.84949,0.1778 -1.87678,0.1778 z"
               id="path2062" />
            <path
               style="color:#000000;-inkscape-font-specification:'Maven Pro';fill:#ffffff;fill-opacity:1;stroke:#6d6d6d;stroke-width:0.5;stroke-dasharray:none;stroke-opacity:0.07"
               d="m 266.06445,162.88086 c -1.39649,0 -2.53999,0.45607 -3.36523,1.36523 v 0.002 c -0.82001,0.90483 -1.21094,2.24402 -1.21094,3.98047 0,1.18551 0.18676,2.18921 0.57617,3.00976 0.38743,0.81638 0.95216,1.44828 1.68164,1.86914 h 0.002 l 0.002,0.002 c 0.72714,0.40552 1.58165,0.60352 2.55078,0.60352 h 0.10352 l 0.0117,-0.0117 c 0.65043,-0.007 1.26189,-0.0568 1.8125,-0.17187 0.59666,-0.12205 1.14242,-0.29783 1.63671,-0.53125 l 0.14454,-0.0684 v -2.06055 l -0.37891,0.22656 c -0.2487,0.14922 -0.53989,0.28863 -0.87109,0.41602 -0.327,0.12577 -0.68835,0.22616 -1.08399,0.30273 -0.391,0.0626 -0.82172,0.0957 -1.29492,0.0957 -0.96257,0 -1.66753,-0.2843 -2.18359,-0.84766 -1.1e-4,-1.2e-4 -0.002,1.2e-4 -0.002,0 -0.45155,-0.51763 -0.64518,-1.33638 -0.6914,-2.32813 h 7.11328 l 0.004,-0.24609 c 0.0135,-1.0377 -0.12068,-1.97538 -0.4082,-2.81055 -0.29081,-0.84475 -0.78399,-1.53137 -1.46875,-2.03515 -0.68551,-0.51413 -1.58856,-0.76172 -2.67969,-0.76172 z m 0,0.5 c 1.01613,0 1.80006,0.22798 2.37891,0.66211 h 0.002 c 0.60479,0.44433 1.03291,1.03576 1.29492,1.79687 0.24072,0.69923 0.33332,1.5158 0.34571,2.39453 h -6.625 c 0.008,-0.33474 0.0725,-0.52522 0.10351,-0.80273 h 5.07813 l 0.0117,0.29688 0.87304,-0.3125 -0.084,-0.48438 h -0.45508 c -0.10053,-0.76771 -0.2456,-1.49025 -0.66601,-1.93555 l -0.002,-0.002 c -0.50649,-0.54979 -1.2785,-0.80859 -2.25586,-0.80859 -0.67596,0 -1.25995,0.12279 -1.74023,0.38476 v 0.002 h -0.002 c -0.48277,0.27155 -0.83568,0.74612 -1.06055,1.37695 -0.0881,0.2423 -0.0768,0.67478 -0.12891,0.98242 h -0.8164 l -0.13672,1.80273 h 0.7832 c 0.0401,1.1082 0.3002,2.0211 0.85938,2.66016 l 0.002,0.002 0.002,0.004 c 0.61649,0.67384 1.4897,1.00977 2.55469,1.00977 0.49856,0 0.95909,-0.0352 1.38281,-0.10352 h 0.004 0.004 c 0.42092,-0.0815 0.8101,-0.19048 1.16797,-0.32812 0.21284,-0.0819 0.38484,-0.18062 0.57032,-0.27344 v 0.88672 c -0.42055,0.18596 -0.8712,0.34497 -1.38086,0.44922 h -0.002 c -0.54654,0.11439 -1.15573,0.17187 -1.82617,0.17187 -0.90105,0 -1.66404,-0.18265 -2.30664,-0.54102 -0.63906,-0.36933 -1.1269,-0.90967 -1.47656,-1.64648 -0.34813,-0.73356 -0.5293,-1.66439 -0.5293,-2.79687 0,-1.66067 0.37302,-2.86353 1.08008,-3.64454 0.72886,-0.80298 1.70581,-1.20312 2.99609,-1.20312 z m 0,1.30469 c 0.89167,0 1.5015,0.22497 1.89063,0.64843 v 0.002 l 0.002,0.002 c 0.31509,0.33311 0.4334,0.95025 0.53125,1.59375 H 263.627 c 0.0453,-0.24354 0.0369,-0.62747 0.10352,-0.81055 l 0.002,-0.002 c 0.19624,-0.55192 0.47367,-0.90702 0.83203,-1.10937 0.38896,-0.21216 0.88526,-0.32422 1.5,-0.32422 z m -3.28515,2.74609 h 0.28906 c -0.0284,0.27913 -0.0989,0.47818 -0.10547,0.80273 h -0.24414 z"
               id="path2064" />
          </g>
        </g>
      </g>
    </g>
  </g>
</svg>
