<?xml version="1.0" encoding="UTF-8" standalone="no"?>
<!-- Created with Inkscape (http://www.inkscape.org/) -->

<svg
   width="276.39124mm"
   height="47.838142mm"
   viewBox="0 0 276.39124 47.838142"
   version="1.1"
   id="svg5"
   inkscape:version="1.2.1 (9c6d41e410, 2022-07-14)"
   sodipodi:docname="banner_design.svg"
   xmlns:inkscape="http://www.inkscape.org/namespaces/inkscape"
   xmlns:sodipodi="http://sodipodi.sourceforge.net/DTD/sodipodi-0.dtd"
   xmlns:xlink="http://www.w3.org/1999/xlink"
   xmlns="http://www.w3.org/2000/svg"
   xmlns:svg="http://www.w3.org/2000/svg">
  <sodipodi:namedview
     id="namedview7"
     pagecolor="#ffffff"
     bordercolor="#000000"
     borderopacity="0.25"
     inkscape:showpageshadow="2"
     inkscape:pageopacity="0.0"
     inkscape:pagecheckerboard="0"
     inkscape:deskcolor="#d1d1d1"
     inkscape:document-units="mm"
     showgrid="false"
     inkscape:zoom="0.5"
     inkscape:cx="503"
     inkscape:cy="319"
     inkscape:window-width="1366"
     inkscape:window-height="698"
     inkscape:window-x="1272"
     inkscape:window-y="199"
     inkscape:window-maximized="1"
     inkscape:current-layer="text290" />
  <defs
     id="defs2">
    <linearGradient
       inkscape:collect="always"
       id="linearGradient3247">
      <stop
         style="stop-color:#67089e;stop-opacity:1;"
         offset="0"
         id="stop3243" />
      <stop
         style="stop-color:#e556c9;stop-opacity:1;"
         offset="0.52066118"
         id="stop3251" />
      <stop
         style="stop-color:#ff26a0;stop-opacity:1;"
         offset="1"
         id="stop3245" />
    </linearGradient>
    <linearGradient
       inkscape:collect="always"
       xlink:href="#linearGradient3247"
       id="linearGradient3249"
       x1="144.11668"
       y1="176.35901"
       x2="88.176552"
       y2="119.98159"
       gradientUnits="userSpaceOnUse" />
    <linearGradient
       inkscape:collect="always"
       xlink:href="#linearGradient3247"
       id="linearGradient3300"
       gradientUnits="userSpaceOnUse"
       x1="144.11668"
       y1="176.35901"
       x2="88.176552"
       y2="119.98159" />
    <linearGradient
       inkscape:collect="always"
       xlink:href="#linearGradient3247"
       id="linearGradient3302"
       gradientUnits="userSpaceOnUse"
       x1="144.11668"
       y1="176.35901"
       x2="88.176552"
       y2="119.98159" />
    <linearGradient
       inkscape:collect="always"
       xlink:href="#linearGradient3247"
       id="linearGradient3304"
       gradientUnits="userSpaceOnUse"
       x1="144.11668"
       y1="176.35901"
       x2="88.176552"
       y2="119.98159" />
    <linearGradient
       inkscape:collect="always"
       xlink:href="#linearGradient3247"
       id="linearGradient3306"
       gradientUnits="userSpaceOnUse"
       x1="144.11668"
       y1="176.35901"
       x2="88.176552"
       y2="119.98159" />
  </defs>
  <g
     inkscape:label="Kiht 1"
     inkscape:groupmode="layer"
     id="layer1"
     transform="translate(-10.304372,-84.517756)">
    <g
       aria-label="Mt"
       id="text290"
       style="font-size:25.4px;font-family:'Maven Pro';-inkscape-font-specification:'Maven Pro';fill:#000080;stroke-width:0.264583">
      <g
         id="g2401"
         transform="translate(-9.0690765)"
         inkscape:export-filename="web_banner\mtl_banner.svg"
         inkscape:export-xdpi="96"
         inkscape:export-ydpi="96">
        <g
           id="g3219"
           style="fill:url(#linearGradient3249);fill-opacity:1"
           transform="translate(-45.117408,-25.300082)"
           inkscape:export-filename="raster_96dpi\pfp_logo_mtl.png"
           inkscape:export-xdpi="96"
           inkscape:export-ydpi="96">
          <path
             d="m 119.32944,157.65598 q -3.88856,0 -6.52985,-2.34781 -2.64129,-2.42118 -2.64129,-7.11681 v -22.89117 h -6.38312 v -4.84236 h 6.38312 v -10.34505 h 5.28258 v 10.34505 h 9.46462 v 4.84236 h -9.46462 v 21.20368 q 0,3.08151 0.9538,4.62226 0.95379,1.54075 3.88856,1.54075 1.32064,0 2.56792,-0.22011 1.24728,-0.29347 2.05434,-0.66032 v 4.9891 q -1.02717,0.36685 -2.64129,0.58696 -1.54076,0.29347 -2.93477,0.29347 z"
             id="path524-1"
             style="font-size:25.4px;font-family:'Maven Pro';-inkscape-font-specification:'Maven Pro';fill:url(#linearGradient3300);fill-opacity:1;stroke:none;stroke-width:0.764261" />
          <path
             style="font-size:25.4px;font-family:'Maven Pro';-inkscape-font-specification:'Maven Pro';fill:url(#linearGradient3302);fill-opacity:1;stroke:none;stroke-width:0.0370165;stroke-opacity:1"
             d="m 64.490863,133.69231 v -23.31475 l 1.603539,2.08422 c 9.683076,12.58574 15.977502,20.68235 16.081975,20.68649 0.07013,0.003 3.877779,-5.13769 8.461467,-11.42325 4.583685,-6.28557 8.335217,-11.41657 8.336737,-11.40223 0.0015,0.0144 -0.01415,10.52417 -0.03501,23.35517 l -0.03778,23.32909 h -2.605734 -2.605731 l 0.08934,-5.07154 c 0.04913,-2.78935 0.127934,-9.51001 0.175104,-14.93481 l 0.08576,-9.86328 -0.345855,0.34976 c -0.190211,0.19237 -2.754676,3.05692 -5.698793,6.36566 -2.944116,3.30875 -5.524237,6.19397 -5.733605,6.41161 l -0.380621,0.39571 -5.862331,-7.58492 -5.862329,-7.58491 -0.08594,5.02068 c -0.04726,2.76138 -0.09448,9.85264 -0.104929,15.75837 l -0.01898,10.73767 h -2.728152 -2.728139 z"
             id="path1688-6" />
          <g
             aria-label="l"
             id="text3079"
             style="font-size:69.3582px;font-family:'Segoe Script';-inkscape-font-specification:'Segoe Script';fill:url(#linearGradient3306);fill-opacity:1;stroke-width:0.0955781;stroke-opacity:0.231884"
             transform="translate(-7.4025314)">
            <path
               d="m 147.3446,157.606 h -5.2253 v -47.78816 h 4.99379 l 0.1695,34.98773 z"
               style="font-family:'Maven Pro';-inkscape-font-specification:'Maven Pro';fill:url(#linearGradient3304);fill-opacity:1"
               id="path3131"
               sodipodi:nodetypes="cccccc" />
          </g>
        </g>
        <g
           aria-label="MarkusTegelane Lite"
           id="text1683"
           style="font-size:19.7556px;fill:#ffffff;fill-opacity:1;stroke:#6d6d6d;stroke-width:0.5;stroke-dasharray:none;stroke-opacity:0.07">
          <g
             id="path1800"
             style="fill:#ffffff;fill-opacity:1;stroke:#6d6d6d;stroke-width:0.5;stroke-dasharray:none;stroke-opacity:0.07">
            <path
               style="color:#000000;-inkscape-font-specification:'Maven Pro';fill:#ffffff;fill-opacity:1;stroke:#6d6d6d;stroke-width:0.5;stroke-dasharray:none;stroke-opacity:0.07"
               d="m 114.85508,113.28683 v -13.17699 h 1.54093 l 4.87964,7.48737 -0.96803,0.21732 5.15621,-7.70469 h 1.54094 v 13.17699 h -1.4224 v -11.75458 h 0.63218 l -5.43279,7.62566 -5.01793,-7.46762 0.51365,-0.73096 v 12.3275 z"
               id="path1839" />
            <path
               style="color:#000000;-inkscape-font-specification:'Maven Pro';fill:#ffffff;fill-opacity:1;stroke:#6d6d6d;stroke-width:0.5;stroke-dasharray:none;stroke-opacity:0.07"
               d="m 114.60547,99.859375 v 13.677735 h 0.25 1.67187 v -10.26172 l 3.26563,4.85938 -0.041,0.0605 0.0703,-0.0156 0.95312,1.41797 4.55664,-6.39649 v 10.33594 h 1.92188 V 99.859375 h -1.92383 l -4.45703,6.660155 -4.3418,-6.660155 z m 0.5,0.500005 h 1.1543 l 0.0644,0.0977 -0.86328,1.23047 0.5664,0.84375 v 10.50586 h -0.92187 z m 10.49219,0 h 1.15625 v 12.67773 h -0.92188 V 102.5 l 0.86719,-1.2168 h -1.36719 v 1.05664 l -3.75195,5.26758 -0.41016,-0.63086 z m -9.07032,0.41015 4.04297,6.20313 -0.47656,0.71093 -3.56641,-5.30468 z m 4.33985,6.6582 0.002,0.004 -0.006,0.002 z m 0.5625,0.39063 -0.64063,0.90039 -0.4414,-0.6582 z"
               id="path1841" />
          </g>
          <g
             id="path1802"
             style="fill:#ffffff;fill-opacity:1;stroke:#6d6d6d;stroke-width:0.5;stroke-dasharray:none;stroke-opacity:0.07">
            <path
               style="color:#000000;-inkscape-font-specification:'Maven Pro';fill:#ffffff;fill-opacity:1;stroke:#6d6d6d;stroke-width:0.5;stroke-dasharray:none;stroke-opacity:0.07"
               d="m 133.6624,113.58316 q -0.65193,0 -1.32362,-0.13829 -0.65194,-0.13829 -1.22485,-0.47413 -0.55315,-0.33585 -0.90876,-0.90876 -0.33584,-0.59267 -0.33584,-1.48167 0,-1.22485 0.45438,-1.9558 0.47413,-0.75072 1.28411,-1.06681 0.82974,-0.33584 1.89654,-0.33584 0.80998,0 1.40265,0.0988 0.59267,0.0988 1.04704,0.29633 0.47414,0.1778 0.84949,0.41487 l 0.27658,1.30387 q -0.45438,-0.33585 -1.32362,-0.57292 -0.84949,-0.25682 -1.87678,-0.25682 -1.24461,0 -1.9163,0.47414 -0.67169,0.47413 -0.67169,1.38289 0,0.73096 0.39511,1.16558 0.41487,0.43462 1.0273,0.61242 0.63217,0.1778 1.28411,0.1778 1.28411,0 1.93605,-0.1778 0.67169,-0.19755 0.67169,-0.86924 v -4.52404 q 0,-1.14582 -0.67169,-1.67922 -0.67169,-0.5334 -1.91629,-0.5334 -0.79023,0 -1.67923,0.23706 -0.86925,0.21732 -1.50143,0.71121 v -1.42241 q 0.61243,-0.39511 1.63972,-0.59267 1.02729,-0.21731 1.99531,-0.21731 0.65194,0 1.2051,0.13829 0.55315,0.11854 0.98778,0.37536 0.43462,0.23707 0.73095,0.63218 0.31609,0.37535 0.47414,0.889 0.1778,0.49389 0.1778,1.12607 v 4.78085 q 0,1.04705 -0.63218,1.5607 -0.61243,0.51364 -1.61996,0.67169 -0.98778,0.15804 -2.13361,0.15804 z"
               id="path1845" />
            <path
               style="color:#000000;-inkscape-font-specification:'Maven Pro';fill:#ffffff;fill-opacity:1;stroke:#6d6d6d;stroke-width:0.5;stroke-dasharray:none;stroke-opacity:0.07"
               d="m 134.47266,103.00195 c -0.66406,0 -1.34646,0.0745 -2.04688,0.22266 -0.70388,0.13581 -1.27982,0.33999 -1.72461,0.62695 l -0.11328,0.0723 v 2.07226 l 0.4043,-0.3164 c 0.39166,-0.30599 0.8581,-0.52653 1.4082,-0.66406 v -0.002 h 0.002 c 0.57485,-0.15329 1.11342,-0.22851 1.61524,-0.22851 0.79402,0 1.37281,0.16968 1.76172,0.47851 0.37952,0.30139 0.57617,0.76935 0.57617,1.48438 v 0.78906 c -0.10353,-0.0468 -0.19014,-0.10661 -0.30078,-0.14844 l -0.004,-0.002 c -0.32449,-0.14065 -0.6935,-0.24415 -1.10351,-0.3125 -0.41334,-0.0689 -0.89321,-0.10156 -1.44336,-0.10156 -0.73674,0 -1.401,0.1161 -1.98829,0.35351 -0.58581,0.22925 -1.06091,0.62345 -1.40234,1.16406 l -0.002,0.002 c -0.33598,0.54047 -0.49219,1.24041 -0.49219,2.08789 0,0.62415 0.11882,1.16371 0.36914,1.60547 l 0.002,0.004 0.002,0.004 c 0.25616,0.41269 0.58983,0.74594 0.99218,0.99023 l 0.002,0.002 h 0.002 c 0.40472,0.23724 0.83856,0.40627 1.29883,0.5039 h 0.002 c 0.37909,0.0781 0.75131,0.10486 1.12305,0.11914 v 0.0254 h 0.25 c 0.77469,0 1.49898,-0.0546 2.17187,-0.1621 0.70404,-0.11045 1.29015,-0.34781 1.74024,-0.72461 l 0.002,-0.002 c 0.48466,-0.39491 0.72266,-1.00461 0.72266,-1.75195 v -4.78125 c 0,-0.44268 -0.0627,-0.8452 -0.19141,-1.20508 -0.11341,-0.36599 -0.28544,-0.68998 -0.51562,-0.96484 -0.21723,-0.28833 -0.48737,-0.52178 -0.80469,-0.69531 -0.31174,-0.1834 -0.6624,-0.31678 -1.04883,-0.4004 -0.39119,-0.0978 -0.81332,-0.14453 -1.26562,-0.14453 z m 0,0.5 c 0.41695,0 0.79817,0.0423 1.14453,0.12891 l 0.004,0.002 h 0.004 c 0.34571,0.0741 0.64784,0.19151 0.91211,0.34766 l 0.004,0.002 0.004,0.002 c 0.25946,0.14152 0.47364,0.32682 0.65039,0.5625 l 0.006,0.006 0.004,0.006 c 0.18776,0.22296 0.32916,0.48677 0.42578,0.80079 l 0.002,0.006 0.002,0.006 c 0.10701,0.29728 0.16406,0.643 0.16406,1.04102 v 4.78125 c 0,0.64772 -0.18409,1.07523 -0.54102,1.36523 l -0.002,0.002 v 0.002 c -0.36624,0.30716 -0.85966,0.51509 -1.49805,0.61523 h -0.002 c -0.64363,0.10298 -1.34136,0.15625 -2.09375,0.15625 -0.41694,0 -0.84129,-0.0458 -1.27344,-0.13476 -0.40659,-0.0865 -0.78721,-0.23248 -1.14453,-0.44141 -0.33438,-0.20302 -0.60649,-0.47618 -0.82422,-0.82617 -0.19526,-0.3476 -0.30078,-0.79362 -0.30078,-1.35156 0,-0.78485 0.14668,-1.38824 0.41602,-1.82227 0.29022,-0.45953 0.67113,-0.77443 1.16406,-0.96679 v -0.002 h 0.002 c 0.51862,-0.20991 1.11777,-0.3164 1.80274,-0.3164 0.52982,0 0.98443,0.0309 1.36132,0.0937 0.37868,0.0631 0.70784,0.15738 0.98829,0.27929 l 0.006,0.004 0.008,0.002 c 0.18374,0.0689 0.3299,0.15649 0.48828,0.23828 v 0.66407 c -0.18735,-0.0721 -0.30351,-0.16921 -0.52735,-0.23047 -5.8e-4,-1.8e-4 -0.001,1.7e-4 -0.002,0 -0.59257,-0.17894 -1.24227,-0.26758 -1.94726,-0.26758 -0.86149,0 -1.55332,0.16148 -2.06055,0.51953 -0.50927,0.35948 -0.77734,0.92046 -0.77734,1.58789 0,0.53235 0.1506,0.99262 0.46093,1.33399 l 0.002,0.002 0.002,0.002 c 0.30725,0.32188 0.69252,0.55016 1.13867,0.67969 h 0.002 c 0.44301,0.1246 0.89421,0.1875 1.35157,0.1875 0.86761,0 1.52713,-0.056 2.00195,-0.18555 l 0.002,-0.002 h 0.002 c 0.26068,-0.0767 0.48276,-0.20816 0.63281,-0.40234 0.15005,-0.19418 0.21875,-0.44147 0.21875,-0.70704 v -1.76757 c 0.0174,0.0119 0.0599,0.0212 0.0762,0.0332 l 0.5293,0.39062 -0.43555,-2.05078 -0.0879,-0.0566 c -0.0243,-0.0153 -0.0572,-0.0241 -0.082,-0.0391 v -1.0332 c 0,-0.81273 -0.24956,-1.46519 -0.76563,-1.875 -0.50668,-0.40237 -1.20682,-0.58789 -2.07226,-0.58789 -0.55182,0 -1.13366,0.0833 -1.74414,0.24609 -0.45278,0.11363 -0.8188,0.34004 -1.18555,0.56445 v -0.86523 c 0.36333,-0.21466 0.82123,-0.39944 1.43555,-0.51758 h 0.004 0.002 c 0.6693,-0.14158 1.31672,-0.21094 1.94336,-0.21094 z m -0.59375,5.25391 c 0.66402,0 1.26508,0.083 1.80468,0.24609 l 0.004,0.002 h 0.004 c 0.30045,0.0819 0.44804,0.18839 0.66406,0.28515 v 1.98242 c 0,0.18223 -0.0414,0.30483 -0.11524,0.4004 -0.0738,0.0956 -0.18984,0.17348 -0.37695,0.22851 -0.39467,0.10695 -1.02332,0.16797 -1.86523,0.16797 -0.41125,0 -0.81558,-0.0559 -1.21485,-0.16797 h -0.002 c -0.36869,-0.10733 -0.66693,-0.28679 -0.91211,-0.54297 -0.21475,-0.23779 -0.32812,-0.5537 -0.32812,-0.99414 0,-0.54424 0.18009,-0.907 0.5664,-1.17969 0.38836,-0.27414 0.97349,-0.42773 1.77149,-0.42773 z"
               id="path1847" />
          </g>
          <g
             id="path1804"
             style="fill:#ffffff;fill-opacity:1;stroke:#6d6d6d;stroke-width:0.5;stroke-dasharray:none;stroke-opacity:0.07">
            <path
               style="color:#000000;-inkscape-font-specification:'Maven Pro';fill:#ffffff;fill-opacity:1;stroke:#6d6d6d;stroke-width:0.5;stroke-dasharray:none;stroke-opacity:0.07"
               d="m 141.20906,113.28683 v -9.06782 q 0.23707,-0.0988 0.90876,-0.33585 0.69144,-0.23707 1.63971,-0.43462 0.96803,-0.19756 1.99532,-0.19756 0.15804,0 0.31609,0.0395 0.15804,0.0395 0.31609,0.079 v 1.26435 q -0.51365,-0.0593 -1.00754,-0.0593 -0.47413,0 -0.92851,0.0593 -0.45438,0.0395 -0.90876,0.11854 -0.45438,0.079 -0.90876,0.15804 v 8.37638 z"
               id="path1851" />
            <path
               style="color:#000000;-inkscape-font-specification:'Maven Pro';fill:#ffffff;fill-opacity:1;stroke:#6d6d6d;stroke-width:0.5;stroke-dasharray:none;stroke-opacity:0.07"
               d="m 145.75195,103.00195 c -0.70088,0 -1.38259,0.066 -2.04492,0.20118 -0.63985,0.13329 -1.19595,0.28085 -1.66992,0.44335 h -0.002 c -0.44937,0.15859 -0.75198,0.27099 -0.92188,0.3418 l -0.1543,0.0644 v 9.48438 h 0.25 1.67188 v -8.41602 c 0.23406,-0.0407 0.46907,-0.0823 0.70312,-0.12304 0.29599,-0.0515 0.59097,-0.0895 0.88672,-0.11524 h 0.006 l 0.004,-0.002 c 0.29185,-0.0381 0.59082,-0.0566 0.89648,-0.0566 0.31926,0 0.64515,0.0201 0.97852,0.0586 l 0.2793,0.0312 v -1.74023 l -0.50586,-0.125 c -0.12439,-0.0311 -0.25077,-0.0469 -0.37696,-0.0469 z m 0,0.5 c 0.0845,0 0.16951,0.01 0.25586,0.0312 l 0.12696,0.0312 v 0.80469 c -0.25447,-0.0217 -0.5099,-0.0449 -0.75782,-0.0449 -0.32651,0 -0.64695,0.0215 -0.96093,0.0625 -0.30617,0.0269 -0.61204,0.0659 -0.91797,0.11914 -0.30293,0.0527 -0.60723,0.10551 -0.91016,0.1582 l -0.20703,0.0352 v 8.33789 h -0.92188 v -8.64453 c 0.16509,-0.0648 0.3721,-0.1435 0.74024,-0.27344 0.44744,-0.15341 0.98382,-0.2958 1.60742,-0.42578 0.62838,-0.12824 1.27648,-0.19141 1.94531,-0.19141 z"
               id="path1853" />
          </g>
          <g
             id="path1806"
             style="fill:#ffffff;fill-opacity:1;stroke:#6d6d6d;stroke-width:0.5;stroke-dasharray:none;stroke-opacity:0.07">
            <path
               style="color:#000000;-inkscape-font-specification:'Maven Pro';fill:#ffffff;fill-opacity:1;stroke:#6d6d6d;stroke-width:0.5;stroke-dasharray:none;stroke-opacity:0.07"
               d="m 149.76325,107.3799 4.32648,-3.95112 h 1.778 l -5.78839,5.1167 z m 0.31609,5.90693 h -1.4224 V 99.675219 h 1.4224 z m 0.39511,-6.14399 6.10448,6.14399 h -1.89654 l -5.17596,-5.23524 z"
               id="path1857" />
            <path
               style="color:#000000;-inkscape-font-specification:'Maven Pro';fill:#ffffff;fill-opacity:1;stroke:#6d6d6d;stroke-width:0.5;stroke-dasharray:none;stroke-opacity:0.07"
               d="m 148.40625,99.425781 v 14.111329 h 1.92383 v -0.25 -4.04688 l 4.24804,4.29688 h 2.60157 l -5.78321,-5.82031 5.13086,-4.53711 h -2.53515 l -3.66211,3.3457 v -7.099609 z m 0.5,0.5 h 0.92383 v 7.054689 l -0.34766,0.31836 0.0391,0.14648 0.0547,0.19922 -0.42773,0.40039 0.68164,0.68946 v 4.30273 h -0.92383 z m 5.28125,3.753909 h 1.01953 l -4.16406,3.68164 -0.42188,-0.42578 z m -3.71875,3.8125 0.19922,0.19922 -0.33789,0.29882 v -0.36914 z m 0.55273,0.55469 4.95704,4.99023 h -1.19141 l -4.38867,-4.43945 z"
               id="path1859" />
          </g>
          <g
             id="path1808"
             style="fill:#ffffff;fill-opacity:1;stroke:#6d6d6d;stroke-width:0.5;stroke-dasharray:none;stroke-opacity:0.07">
            <path
               style="color:#000000;-inkscape-font-specification:'Maven Pro';fill:#ffffff;fill-opacity:1;stroke:#6d6d6d;stroke-width:0.5;stroke-dasharray:none;stroke-opacity:0.07"
               d="m 162.88096,113.58316 q -1.30387,0 -2.23238,-0.45438 -0.92851,-0.45438 -1.4224,-1.32362 -0.47414,-0.86925 -0.47414,-2.13361 v -6.24277 h 1.4224 v 5.92668 q 0,1.50143 0.65194,2.21263 0.67169,0.69145 2.05458,0.69145 1.38289,0 2.03483,-0.69145 0.67169,-0.7112 0.67169,-2.21263 v -5.92668 h 1.4224 v 6.24277 q 0,1.87678 -1.08656,2.90408 -1.0668,1.00753 -3.04236,1.00753 z"
               id="path1863" />
            <path
               style="color:#000000;-inkscape-font-specification:'Maven Pro';fill:#ffffff;fill-opacity:1;stroke:#6d6d6d;stroke-width:0.5;stroke-dasharray:none;stroke-opacity:0.07"
               d="m 158.50195,103.17969 v 6.49219 c 0,0.87415 0.16342,1.62967 0.50391,2.2539 l 0.002,0.002 h 0.002 c 0.35325,0.62174 0.86947,1.10289 1.52929,1.42579 0.66051,0.32322 1.44351,0.48046 2.3418,0.48046 1.35954,0 2.44764,-0.35159 3.21484,-1.07617 0.7796,-0.73708 1.16407,-1.7865 1.16407,-3.08593 v -6.49219 h -1.92188 v 6.17578 c 0,0.96367 -0.21602,1.63073 -0.60352,2.04101 -0.37409,0.39678 -0.97325,0.61329 -1.85351,0.61329 -0.87833,0 -1.48294,-0.2155 -1.87109,-0.61329 -0.37479,-0.40963 -0.58594,-1.0771 -0.58594,-2.04101 v -6.17578 z m 0.5,0.5 h 0.92188 v 5.67578 c 0,1.03714 0.22491,1.84213 0.71875,2.38086 l 0.002,0.004 0.002,0.002 c 0.50755,0.52247 1.27079,0.76758 2.23438,0.76758 0.96359,0 1.72164,-0.24437 2.2168,-0.76954 0.50809,-0.53797 0.74023,-1.34653 0.74023,-2.38476 v -5.67578 h 0.92188 v 5.99219 c 0,1.20293 -0.33867,2.09 -1.00782,2.72265 -0.65519,0.61879 -1.59655,0.93945 -2.87109,0.93945 -0.84021,0 -1.54554,-0.14707 -2.12305,-0.42968 -0.5773,-0.28251 -1.00732,-0.68469 -1.3125,-1.22071 -4.7e-4,-8.2e-4 -0.001,-10e-4 -0.002,-0.002 -0.29052,-0.53421 -0.44141,-1.19978 -0.44141,-2.00976 z"
               id="path1865" />
          </g>
          <g
             id="path1810"
             style="fill:#ffffff;fill-opacity:1;stroke:#6d6d6d;stroke-width:0.5;stroke-dasharray:none;stroke-opacity:0.07">
            <path
               style="color:#000000;-inkscape-font-specification:'Maven Pro';fill:#ffffff;fill-opacity:1;stroke:#6d6d6d;stroke-width:0.5;stroke-dasharray:none;stroke-opacity:0.07"
               d="m 172.9563,113.58316 q -1.0668,0 -1.79776,-0.21731 -0.7112,-0.21731 -1.48167,-0.61242 V 111.252 q 0.61242,0.33585 1.08656,0.57291 0.47413,0.23707 0.96802,0.3556 0.49389,0.0988 1.12607,0.0988 0.98778,0 1.60021,-0.43462 0.63218,-0.43462 0.63218,-1.12607 0,-0.55316 -0.31609,-0.84949 -0.29634,-0.29634 -0.77047,-0.49389 -0.47414,-0.19756 -0.98778,-0.41487 -0.57292,-0.15804 -1.16558,-0.33584 -0.57292,-0.19756 -1.06681,-0.49389 -0.47413,-0.31609 -0.77046,-0.79023 -0.29634,-0.49389 -0.29634,-1.26436 0,-0.75071 0.29634,-1.28411 0.31609,-0.5334 0.80998,-0.86925 0.49389,-0.3556 1.10631,-0.51364 0.61242,-0.15805 1.22485,-0.15805 0.889,0 1.52118,0.23707 0.63218,0.23707 1.30387,0.5334 v 1.4224 q -0.75072,-0.39511 -1.34338,-0.63218 -0.59267,-0.25682 -1.40265,-0.25682 -0.80998,0 -1.46192,0.33585 -0.63217,0.31609 -0.63217,0.98778 0,0.55315 0.31608,0.889 0.33585,0.31609 0.86925,0.51364 0.5334,0.17781 1.14583,0.35561 0.49389,0.15804 1.02729,0.3556 0.5334,0.1778 0.98778,0.49389 0.45438,0.29633 0.73095,0.79022 0.29634,0.49389 0.29634,1.26436 0,1.04705 -0.5334,1.73849 -0.5334,0.67169 -1.36314,0.98778 -0.80998,0.31609 -1.65947,0.31609 z"
               id="path1869" />
            <path
               style="color:#000000;-inkscape-font-specification:'Maven Pro';fill:#ffffff;fill-opacity:1;stroke:#6d6d6d;stroke-width:0.5;stroke-dasharray:none;stroke-opacity:0.07"
               d="m 173.1543,103.00195 c -0.4298,0 -0.85931,0.0537 -1.28711,0.16407 -0.43415,0.11203 -0.83219,0.29744 -1.18555,0.55078 -7.7e-4,5.2e-4 -10e-4,10e-4 -0.002,0.002 -0.35861,0.24436 -0.65519,0.5612 -0.88282,0.94531 l -0.002,0.004 v 0.002 c -0.22174,0.39913 -0.32812,0.87288 -0.32812,1.40625 0,0.5457 0.10496,1.01414 0.33203,1.39258 v 0.002 l 0.002,0.002 c 0.21608,0.34573 0.49966,0.63584 0.84375,0.86523 l 0.006,0.004 0.004,0.004 c 0.34481,0.20689 0.71584,0.37858 1.11328,0.51563 l 0.006,0.002 h 0.004 c 0.38818,0.11645 0.77076,0.22623 1.14649,0.33008 0.34069,0.14413 0.66769,0.28097 0.98242,0.41211 0.29219,0.12174 0.52134,0.27134 0.69141,0.44141 l 0.002,0.002 0.004,0.002 c 0.1541,0.14447 0.23632,0.34682 0.23632,0.66797 0,0.38478 -0.15298,0.66524 -0.52343,0.91992 l -0.002,0.002 h -0.002 c -0.35655,0.25303 -0.83323,0.38867 -1.45508,0.38867 -0.40696,0 -0.76387,-0.0324 -1.07226,-0.0937 h -0.004 c -0.30749,-0.0744 -0.60878,-0.18525 -0.90625,-0.33399 -0.31236,-0.15617 -0.67195,-0.34561 -1.07813,-0.56836 l -0.36914,-0.20312 v 2.07617 l 0.13477,0.0703 c 0.52488,0.26917 1.03294,0.47903 1.52344,0.62891 h 0.002 c 0.44969,0.13369 1.01302,0.18015 1.61914,0.19726 v 0.0312 h 0.25 c 0.59669,0 1.18106,-0.11297 1.74805,-0.33398 0.59155,-0.22535 1.08577,-0.58218 1.46875,-1.06445 l 0.002,-0.002 0.002,-0.002 c 0.39288,-0.50928 0.58399,-1.15014 0.58399,-1.89062 0,-0.54498 -0.10559,-1.01245 -0.33203,-1.39063 -0.20173,-0.35848 -0.47256,-0.65267 -0.80664,-0.87109 -0.32155,-0.22317 -0.67072,-0.39806 -1.04688,-0.52344 -0.356,-0.13173 -0.69855,-0.25159 -1.0293,-0.35742 h -0.004 l -0.004,-0.002 c -0.40278,-0.11693 -0.77884,-0.23303 -1.1289,-0.3496 -0.32773,-0.12138 -0.58131,-0.27605 -0.77539,-0.45704 -0.16116,-0.17338 -0.2461,-0.3924 -0.2461,-0.71093 0,-0.36937 0.13605,-0.58463 0.49414,-0.76368 l 0.002,-0.002 c 0.39715,-0.2046 0.84222,-0.30859 1.34765,-0.30859 0.51357,0 0.94575,0.0816 1.30274,0.23633 l 0.004,0.002 h 0.004 c 0.38443,0.15378 0.82559,0.36267 1.32031,0.62305 l 0.36524,0.1914 v -1.99804 l -0.14844,-0.0664 c -0.45177,-0.19931 -0.89015,-0.37921 -1.31641,-0.53906 -0.45753,-0.17158 -0.99448,-0.25196 -1.60937,-0.25196 z m 0,0.5 c 0.57044,0 1.04821,0.0762 1.43359,0.22071 0.36821,0.13808 0.75118,0.29782 1.14063,0.46679 v 0.86133 c -0.34841,-0.1735 -0.69862,-0.35035 -0.99415,-0.46875 -0.43323,-0.18773 -0.93554,-0.27734 -1.50195,-0.27734 -0.57386,0 -1.10254,0.12065 -1.57422,0.36328 -0.4848,0.2424 -0.76953,0.68471 -0.76953,1.21094 0,0.41638 0.1271,0.78676 0.38477,1.06054 l 0.004,0.006 0.006,0.004 c 0.25308,0.23818 0.57283,0.42556 0.95313,0.56641 l 0.004,0.002 h 0.004 c 0.35912,0.11971 0.7452,0.24004 1.15625,0.35937 0.32363,0.10366 0.6594,0.21984 1.00977,0.34961 l 0.004,0.002 0.004,0.002 c 0.33364,0.11121 0.64051,0.26385 0.92383,0.46094 l 0.004,0.002 0.002,0.002 c 0.26913,0.17552 0.48411,0.40619 0.65039,0.70313 l 0.002,0.004 0.002,0.002 c 0.16805,0.28008 0.25977,0.65512 0.25977,1.13672 0,0.65387 -0.16183,1.16992 -0.47852,1.58203 -3.3e-4,4.2e-4 -0.002,-4.2e-4 -0.002,0 -0.32806,0.41266 -0.73967,0.71425 -1.25391,0.91015 h -0.002 v 0.002 c -0.51241,0.19996 -1.03304,0.29882 -1.56836,0.29882 -0.69345,0 -1.26938,-0.0719 -1.72461,-0.20703 h -0.002 c -0.41385,-0.12656 -0.85235,-0.31634 -1.30274,-0.53906 v -0.92187 c 0.2511,0.13425 0.51305,0.27703 0.72461,0.38281 0.33224,0.16612 0.6731,0.29139 1.02149,0.375 h 0.004 l 0.004,0.002 c 0.34938,0.0699 0.74131,0.10352 1.17578,0.10352 0.69446,0 1.28238,-0.15471 1.74219,-0.48047 0.47147,-0.32477 0.74023,-0.79353 0.74023,-1.33008 0,-0.41639 -0.12718,-0.78061 -0.39453,-1.03125 -0.22433,-0.22289 -0.50808,-0.4023 -0.8457,-0.54297 -0.31564,-0.13152 -0.64429,-0.26935 -0.98633,-0.41406 l -0.0156,-0.006 -0.0156,-0.006 c -0.37679,-0.10394 -0.76052,-0.21319 -1.15039,-0.33008 l -0.006,-0.002 c -0.001,-4.2e-4 -0.003,-0.002 -0.004,-0.002 -0.35884,-0.12448 -0.69187,-0.27894 -1,-0.46289 l -0.002,-0.002 c -0.28577,-0.19097 -0.51515,-0.42493 -0.69336,-0.70898 v -0.002 c -4.9e-4,-7.9e-4 -0.001,-0.001 -0.002,-0.002 -0.16689,-0.27974 -0.25781,-0.65102 -0.25781,-1.13086 0,-0.46516 0.0901,-0.84505 0.26172,-1.15625 0.19334,-0.32627 0.43549,-0.58777 0.73437,-0.79101 l 0.004,-0.002 0.002,-0.002 c 0.30375,-0.2187 0.64334,-0.37652 1.02344,-0.47461 0.38875,-0.10033 0.77533,-0.14844 1.16211,-0.14844 z"
               id="path1871" />
          </g>
          <g
             id="path1812"
             style="fill:#ffffff;fill-opacity:1;stroke:#6d6d6d;stroke-width:0.5;stroke-dasharray:none;stroke-opacity:0.07">
            <path
               style="color:#000000;-inkscape-font-specification:'Maven Pro';fill:#ffffff;fill-opacity:1;stroke:#6d6d6d;stroke-width:0.5;stroke-dasharray:none;stroke-opacity:0.07"
               d="m 182.65629,113.28683 v -11.83361 h -4.66232 v -1.34338 h 10.72729 v 1.34338 h -4.64257 v 11.83361 z"
               id="path1875" />
            <path
               style="color:#000000;-inkscape-font-specification:'Maven Pro';fill:#ffffff;fill-opacity:1;stroke:#6d6d6d;stroke-width:0.5;stroke-dasharray:none;stroke-opacity:0.07"
               d="m 177.74414,99.859375 v 1.843755 h 4.66211 v 11.83398 h 0.25 1.67187 v -11.83398 h 4.64258 v -1.843755 z m 0.5,0.500005 h 10.22656 v 0.84375 h -4.64258 v 11.83398 h -0.92187 v -11.83398 h -4.66211 z"
               id="path1877" />
          </g>
          <g
             id="path1814"
             style="fill:#ffffff;fill-opacity:1;stroke:#6d6d6d;stroke-width:0.5;stroke-dasharray:none;stroke-opacity:0.07">
            <path
               style="color:#000000;-inkscape-font-specification:'Maven Pro';fill:#ffffff;fill-opacity:1;stroke:#6d6d6d;stroke-width:0.5;stroke-dasharray:none;stroke-opacity:0.07"
               d="m 192.79091,113.58316 q -1.40265,0 -2.42994,-0.57291 -1.02729,-0.59267 -1.58045,-1.75825 -0.55315,-1.16558 -0.55315,-2.90407 0,-2.54848 1.14582,-3.81283 1.16558,-1.28412 3.18065,-1.28412 1.58045,0 2.52872,0.7112 0.96802,0.71121 1.38289,1.9163 0.41487,1.20509 0.39511,2.72627 h -7.92199 l 0.0988,-1.30387 h 6.8947 l -0.55316,0.19756 q -0.0593,-1.48167 -0.75071,-2.21263 -0.67169,-0.73096 -2.07434,-0.73096 -0.96802,0 -1.61996,0.3556 -0.63218,0.3556 -0.94827,1.24461 -0.31609,0.86924 -0.31609,2.44969 0,1.79776 0.82974,2.74603 0.84949,0.92851 2.37067,0.92851 0.73096,0 1.34338,-0.0988 0.61243,-0.11853 1.12607,-0.31609 0.51365,-0.19755 0.90876,-0.43462 v 1.46192 q -0.7112,0.33584 -1.58045,0.51364 -0.84949,0.1778 -1.87678,0.1778 z"
               id="path1881" />
            <path
               style="color:#000000;-inkscape-font-specification:'Maven Pro';fill:#ffffff;fill-opacity:1;stroke:#6d6d6d;stroke-width:0.5;stroke-dasharray:none;stroke-opacity:0.07"
               d="m 192.55469,103.00195 c -1.39649,0 -2.54195,0.45607 -3.36719,1.36524 -0.82,0.90483 -1.21094,2.24401 -1.21094,3.98047 0,1.1855 0.18872,2.19117 0.57813,3.01172 0.38743,0.81638 0.95216,1.44633 1.68164,1.86718 l 0.002,0.002 c 0.72713,0.40551 1.5836,0.60546 2.55274,0.60546 h 0.10351 l 0.01,-0.0117 c 0.65188,-0.007 1.26281,-0.0564 1.81445,-0.17188 0.59666,-0.12204 1.14243,-0.29979 1.63672,-0.5332 l 0.14258,-0.0664 v -2.0625 l -0.37891,0.22656 c -0.24869,0.14922 -0.53793,0.28864 -0.86914,0.41602 -0.32465,0.12487 -0.68384,0.22635 -1.07617,0.30273 -5.9e-4,1e-4 -0.001,-9e-5 -0.002,0 -0.39237,0.0632 -0.8274,0.0957 -1.30273,0.0957 -0.96092,0 -1.66581,-0.2823 -2.18164,-0.84375 v -0.002 c -0.45236,-0.51766 -0.64706,-1.3355 -0.69336,-2.32812 h 7.11328 l 0.004,-0.24805 c 0.0135,-1.0377 -0.12264,-1.97538 -0.41016,-2.81054 -0.29082,-0.84475 -0.784,-1.53137 -1.46875,-2.03516 -0.68551,-0.51413 -1.5866,-0.75977 -2.67773,-0.75977 z m 0,0.5 c 1.01613,0 1.7981,0.22603 2.37695,0.66016 h 0.002 v 0.002 c 0.60479,0.44434 1.0329,1.03381 1.29493,1.79492 0.24091,0.69979 0.33545,1.5169 0.34765,2.39649 h -6.625 c 0.008,-0.33529 0.0724,-0.52682 0.10352,-0.80469 h 5.07617 l 0.0117,0.29688 0.87304,-0.31055 -0.084,-0.48633 h -0.45312 c -0.10045,-0.76702 -0.2463,-1.48838 -0.66602,-1.93359 -0.50646,-0.55115 -1.27929,-0.8125 -2.25781,-0.8125 -0.67596,0 -1.25995,0.12474 -1.74024,0.38672 h -0.002 l -0.002,0.002 c -0.48353,0.27198 -0.83572,0.74658 -1.06055,1.37891 -0.0877,0.24143 -0.075,0.67227 -0.12695,0.97851 h -0.81836 l -0.13672,1.80469 h 0.78515 c 0.0401,1.1082 0.29825,2.0211 0.85743,2.66016 l 0.002,0.002 0.002,0.002 c 0.6165,0.67384 1.48971,1.00977 2.55469,1.00977 0.49857,0 0.96105,-0.0332 1.38477,-0.10157 l 0.004,-0.002 h 0.004 c 0.42092,-0.0815 0.8101,-0.19048 1.16797,-0.32812 0.21214,-0.0816 0.38341,-0.17901 0.56836,-0.27149 v 0.88672 c -0.42054,0.18595 -0.87122,0.34302 -1.38086,0.44727 -0.54655,0.11439 -1.15574,0.17382 -1.82617,0.17382 -0.89945,0 -1.66282,-0.18392 -2.30469,-0.54101 l -0.002,-0.002 c -0.63906,-0.36934 -1.12884,-0.90968 -1.47851,-1.64649 -0.34813,-0.73356 -0.5293,-1.6644 -0.5293,-2.79687 0,-1.66152 0.37428,-2.86357 1.08203,-3.64453 0.72887,-0.803 1.70582,-1.20118 2.9961,-1.20118 z m 0,1.30274 c 0.89167,0 1.49954,0.22692 1.88867,0.65039 l 0.002,0.002 h 0.002 c 0.31506,0.33308 0.43143,0.95032 0.52929,1.59375 h -4.85937 c 0.0453,-0.24329 0.037,-0.62762 0.10351,-0.81055 v -0.002 c 0.19624,-0.55193 0.47563,-0.90507 0.83399,-1.10742 7e-4,-4e-4 0.001,-0.002 0.002,-0.002 0.38848,-0.21103 0.88501,-0.32422 1.49805,-0.32422 z m -3.28516,2.74609 h 0.28711 c -0.0285,0.27964 -0.097,0.47943 -0.10352,0.80469 h -0.24609 z"
               id="path1883" />
          </g>
          <g
             id="path1816"
             style="fill:#ffffff;fill-opacity:1;stroke:#6d6d6d;stroke-width:0.5;stroke-dasharray:none;stroke-opacity:0.07">
            <path
               style="color:#000000;-inkscape-font-specification:'Maven Pro';fill:#ffffff;fill-opacity:1;stroke:#6d6d6d;stroke-width:0.5;stroke-dasharray:none;stroke-opacity:0.07"
               d="m 203.53797,113.58316 q -1.52118,0 -2.52872,-0.59267 -0.98778,-0.61242 -1.48167,-1.71873 -0.49389,-1.12607 -0.49389,-2.64725 0,-1.69899 0.45438,-2.74603 0.45438,-1.06681 1.16558,-1.61996 0.73096,-0.57291 1.58045,-0.77047 0.86925,-0.21731 1.67923,-0.21731 0.92851,0 1.75825,0.25682 0.84949,0.23707 1.38289,0.77047 0.55315,0.5334 0.55315,1.4224 v 7.98126 q 0,0.59267 -0.1778,1.2051 -0.1778,0.61242 -0.65193,1.12607 -0.45438,0.5334 -1.30387,0.84949 -0.82974,0.31609 -2.15336,0.31609 -0.84949,0 -1.56069,-0.15805 -0.7112,-0.15804 -1.24461,-0.29633 v -1.34338 q 0.31609,0.079 0.71121,0.1778 0.41486,0.11853 0.889,0.19755 0.49389,0.079 1.04704,0.079 1.34339,0 1.97556,-0.33585 0.65194,-0.31609 0.8495,-0.80998 0.19755,-0.47413 0.19755,-0.96802 v -1.44216 l 0.49389,0.49389 q -0.37536,0.19755 -0.94827,0.37535 -0.57291,0.1778 -1.16558,0.29634 -0.59267,0.11853 -1.02729,0.11853 z m 0,-1.30387 q 0.63218,0 1.32363,-0.15804 0.7112,-0.1778 1.32362,-0.5334 v -5.66986 q 0,-0.55316 -0.31609,-0.82974 -0.29633,-0.29633 -0.80998,-0.39511 -0.51364,-0.11853 -1.10631,-0.11853 -1.44216,0 -2.17312,0.57291 -0.73095,0.55316 -0.98778,1.48167 -0.25682,0.92851 -0.25682,1.99532 0,1.61995 0.69145,2.64725 0.69144,1.00753 2.3114,1.00753 z"
               id="path1887" />
            <path
               style="color:#000000;-inkscape-font-specification:'Maven Pro';fill:#ffffff;fill-opacity:1;stroke:#6d6d6d;stroke-width:0.5;stroke-dasharray:none;stroke-opacity:0.07"
               d="m 203.91406,103.02148 c -0.56234,0 -1.14301,0.0753 -1.74023,0.22461 -0.60125,0.1405 -1.1617,0.41501 -1.67383,0.81641 -0.51471,0.40071 -0.92718,0.97916 -1.24219,1.71875 -0.32213,0.7431 -0.47461,1.68958 -0.47461,2.84375 0,1.04118 0.16974,1.95941 0.51563,2.74805 0.34755,0.77851 0.87816,1.3961 1.57812,1.83008 l 0.004,0.002 h 0.002 c 0.71909,0.42299 1.60771,0.6289 2.6543,0.6289 h 0.25 v -0.0293 c 0.25614,-0.0149 0.51579,-0.0332 0.82812,-0.0957 0.4035,-0.0807 0.79923,-0.18163 1.18946,-0.30273 0.0519,-0.0161 0.0811,-0.0363 0.13086,-0.0527 v 0.38671 c 0,0.29593 -0.0579,0.58541 -0.17774,0.87305 l -0.002,0.002 v 0.002 c -0.10332,0.25829 -0.32901,0.48498 -0.72656,0.67773 l -0.004,0.002 -0.004,0.002 c -0.35665,0.18947 -0.98461,0.30664 -1.85937,0.30664 -0.35618,0 -0.6915,-0.026 -1.00586,-0.0762 h -0.002 c -0.30701,-0.0512 -0.59346,-0.11543 -0.85938,-0.19141 h -0.004 l -0.004,-0.002 c -0.26342,-0.0659 -0.5002,-0.12507 -0.71094,-0.17774 l -0.31055,-0.0781 v 1.85742 l 0.1875,0.0488 c 0.35934,0.0932 0.77567,0.19299 1.25196,0.29883 0.49471,0.10994 1.0334,0.16406 1.61523,0.16406 0.90232,0 1.6477,-0.10752 2.24219,-0.33399 0.59191,-0.22065 1.06422,-0.52347 1.40039,-0.91601 0.33745,-0.36651 0.57753,-0.77659 0.70703,-1.22266 0.12456,-0.42902 0.1875,-0.85528 0.1875,-1.27539 v -7.98047 c 0,-0.64289 -0.21033,-1.1961 -0.62695,-1.59961 -0.38882,-0.38882 -0.89143,-0.66449 -1.49024,-0.83203 -6.9e-4,-2.1e-4 -0.001,-0.002 -0.002,-0.002 -0.57611,-0.17745 -1.18494,-0.26563 -1.82422,-0.26563 z m 0,0.5 c 0.59596,0 1.1556,0.0807 1.6836,0.24415 l 0.004,0.002 h 0.002 c 0.53261,0.14864 0.95166,0.38526 1.27343,0.70703 l 0.002,0.002 0.002,0.002 c 0.31881,0.30742 0.47656,0.70137 0.47656,1.24218 v 7.98047 c 0,0.37011 -0.0554,0.74917 -0.16797,1.13672 -0.10716,0.36911 -0.30264,0.7079 -0.5957,1.02539 l -0.004,0.004 -0.002,0.004 c -0.26885,0.31562 -0.66427,0.57757 -1.20117,0.77735 h -0.002 c -0.51184,0.19498 -1.20195,0.30078 -2.06446,0.30078 -0.55082,0 -1.0523,-0.0515 -1.50586,-0.15234 -0.40038,-0.089 -0.7348,-0.17083 -1.04883,-0.25 v -0.82618 c 0.13161,0.0329 0.25209,0.0625 0.4004,0.0996 0.28451,0.081 0.58656,0.14952 0.9082,0.20313 h 0.002 c 0.34364,0.055 0.70527,0.082 1.08594,0.082 0.91477,0 1.60374,-0.10793 2.08984,-0.36524 0.46775,-0.22798 0.80695,-0.53812 0.9668,-0.93554 0.14355,-0.34454 0.2168,-0.70186 0.2168,-1.06446 v -0.58398 c 0.11365,-0.0484 0.26164,-0.0911 0.35937,-0.14258 l 0.30078,-0.1582 -0.97461,-0.97461 c 0.0598,-0.0317 0.13094,-0.0422 0.18946,-0.0762 l 0.125,-0.0723 v -5.81445 c 0,-0.41405 -0.13066,-0.7729 -0.40039,-1.01172 -0.23726,-0.2331 -0.55449,-0.38481 -0.92774,-0.45703 -6.7e-4,-1.5e-4 -0.001,-0.002 -0.002,-0.002 -0.36029,-0.0823 -0.74406,-0.12305 -1.15235,-0.12305 -0.99376,0 -1.7761,0.19648 -2.32617,0.62695 -0.52781,0.40065 -0.89251,0.94737 -1.07617,1.61133 -0.17777,0.64272 -0.26562,1.33123 -0.26562,2.0625 0,1.11554 0.23942,2.05175 0.73437,2.78711 v 0.002 c 0.5125,0.74679 1.38578,1.11524 2.51758,1.11524 0.44228,0 0.90376,-0.055 1.38086,-0.16407 h 0.002 l 0.002,-0.002 c 0.36197,-0.0905 0.68693,-0.25096 1.01368,-0.4082 v 0.86523 c -0.10134,0.0364 -0.16486,0.0739 -0.2793,0.10938 -0.37365,0.11596 -0.75389,0.21171 -1.14063,0.28906 -0.38358,0.0767 -0.71149,0.11523 -0.97851,0.11523 -0.97996,0 -1.77267,-0.19064 -2.39649,-0.55664 l -0.002,-0.002 c -0.61543,-0.3822 -1.07226,-0.90857 -1.38281,-1.60351 v -0.002 c -0.31217,-0.71246 -0.47266,-1.55859 -0.47266,-2.54492 0,-1.11037 0.15034,-1.99376 0.4336,-2.64648 v -0.002 h 0.002 c 0.2906,-0.68227 0.65487,-1.18469 1.08789,-1.52148 h 0.002 c 0.46128,-0.36154 0.95262,-0.59945 1.48243,-0.72266 l 0.002,-0.002 h 0.002 c 0.56178,-0.14044 1.10151,-0.20899 1.61914,-0.20899 z m 0.0391,1.30274 c 0.37845,0 0.72889,0.039 1.05079,0.11328 h 0.004 l 0.004,0.002 c 0.30566,0.0588 0.52338,0.16987 0.67969,0.32618 l 0.006,0.006 0.008,0.006 c 0.14857,0.13 0.23047,0.31947 0.23047,0.64063 v 5.50391 c -0.35289,0.19167 -0.72371,0.35325 -1.12891,0.45507 -6.7e-4,1.6e-4 -0.001,-1.5e-4 -0.002,0 -0.44409,0.10137 -0.86757,0.15235 -1.26758,0.15235 -1.02814,0 -1.6941,-0.30186 -2.10352,-0.89844 -0.42636,-0.63419 -0.64843,-1.46223 -0.64843,-2.50586 0,-0.69114 0.0834,-1.33439 0.24804,-1.92969 0.15838,-0.57256 0.45163,-1.011 0.89649,-1.34765 l 0.002,-0.002 0.002,-0.002 c 0.42448,-0.3327 1.0912,-0.51953 2.01953,-0.51953 z"
               id="path1889" />
          </g>
          <g
             id="path1818"
             style="fill:#ffffff;fill-opacity:1;stroke:#6d6d6d;stroke-width:0.5;stroke-dasharray:none;stroke-opacity:0.07">
            <path
               style="color:#000000;-inkscape-font-specification:'Maven Pro';fill:#ffffff;fill-opacity:1;stroke:#6d6d6d;stroke-width:0.5;stroke-dasharray:none;stroke-opacity:0.07"
               d="m 214.83818,113.58316 q -1.40265,0 -2.42994,-0.57291 -1.02729,-0.59267 -1.58045,-1.75825 -0.55315,-1.16558 -0.55315,-2.90407 0,-2.54848 1.14582,-3.81283 1.16558,-1.28412 3.18065,-1.28412 1.58045,0 2.52872,0.7112 0.96803,0.71121 1.38289,1.9163 0.41487,1.20509 0.39512,2.72627 h -7.922 l 0.0988,-1.30387 h 6.8947 l -0.55315,0.19756 q -0.0593,-1.48167 -0.75072,-2.21263 -0.67169,-0.73096 -2.07434,-0.73096 -0.96802,0 -1.61995,0.3556 -0.63218,0.3556 -0.94827,1.24461 -0.31609,0.86924 -0.31609,2.44969 0,1.79776 0.82973,2.74603 0.84949,0.92851 2.37067,0.92851 0.73096,0 1.34338,-0.0988 0.61243,-0.11853 1.12607,-0.31609 0.51365,-0.19755 0.90876,-0.43462 v 1.46192 q -0.7112,0.33584 -1.58045,0.51364 -0.84949,0.1778 -1.87678,0.1778 z"
               id="path1893" />
            <path
               style="color:#000000;-inkscape-font-specification:'Maven Pro';fill:#ffffff;fill-opacity:1;stroke:#6d6d6d;stroke-width:0.5;stroke-dasharray:none;stroke-opacity:0.07"
               d="m 214.60156,103.00195 c -1.39648,0 -2.54194,0.45607 -3.36719,1.36524 -0.82,0.90483 -1.20898,2.24401 -1.20898,3.98047 0,1.1855 0.18677,2.19117 0.57617,3.01172 0.38744,0.81638 0.95216,1.44633 1.68164,1.86718 l 0.002,0.002 h 0.002 c 0.72713,0.40551 1.58164,0.60546 2.55078,0.60546 h 0.10352 l 0.0117,-0.0117 c 0.65109,-0.007 1.26146,-0.0565 1.8125,-0.17188 0.59667,-0.12204 1.14243,-0.29979 1.63672,-0.5332 l 0.14258,-0.0664 v -2.0625 l -0.3789,0.22656 c -0.2487,0.14922 -0.53794,0.28864 -0.86915,0.41602 -0.32465,0.12487 -0.68384,0.22635 -1.07617,0.30273 -5.8e-4,1e-4 -0.001,-9e-5 -0.002,0 -0.39238,0.0632 -0.82545,0.0957 -1.30078,0.0957 -0.96092,0 -1.66776,-0.2823 -2.1836,-0.84375 v -0.002 c -0.45235,-0.51766 -0.64706,-1.3355 -0.69335,-2.32812 h 7.11328 l 0.004,-0.24805 c 0.0135,-1.0377 -0.12068,-1.97538 -0.4082,-2.81054 -0.29081,-0.84476 -0.78595,-1.53137 -1.4707,-2.03516 -0.68552,-0.51413 -1.58661,-0.75977 -2.67774,-0.75977 z m 0,0.5 c 1.01613,0 1.80006,0.22603 2.37891,0.66016 l 0.002,0.002 c 0.60479,0.44434 1.03095,1.03381 1.29297,1.79492 0.24091,0.69979 0.33545,1.5169 0.34766,2.39649 h -6.625 c 0.008,-0.33529 0.0724,-0.52682 0.10351,-0.80469 h 5.07617 l 0.0117,0.29688 0.87305,-0.31055 -0.084,-0.48633 h -0.45313 c -0.10044,-0.76702 -0.24629,-1.48838 -0.66602,-1.93359 -0.50645,-0.55115 -1.27928,-0.8125 -2.25781,-0.8125 -0.67596,0 -1.25995,0.12474 -1.74023,0.38672 h -0.002 v 0.002 c -0.48276,0.27155 -0.83567,0.74612 -1.06054,1.37695 -0.0879,0.24182 -0.0768,0.67357 -0.12891,0.98047 h -0.8164 l -0.13672,1.80469 H 211.5 c 0.0401,1.10819 0.3002,2.0211 0.85937,2.66016 v 0.002 l 0.002,0.002 c 0.61649,0.67384 1.49165,1.00977 2.55664,1.00977 0.49857,0 0.95909,-0.0332 1.38281,-0.10157 l 0.004,-0.002 h 0.004 c 0.42093,-0.0815 0.81011,-0.19048 1.16797,-0.32812 0.21214,-0.0816 0.38341,-0.17901 0.56836,-0.27149 v 0.88672 c -0.42015,0.18564 -0.87181,0.34314 -1.38086,0.44727 -0.54654,0.11439 -1.15573,0.17382 -1.82617,0.17382 -0.89945,0 -1.66281,-0.18392 -2.30469,-0.54101 l -0.002,-0.002 c -0.63906,-0.36934 -1.12884,-0.90968 -1.47852,-1.64649 -0.34812,-0.73356 -0.52734,-1.6644 -0.52734,-2.79687 0,-1.66152 0.37233,-2.86357 1.08008,-3.64453 0.72886,-0.803 1.70582,-1.20118 2.99609,-1.20118 z m 0,1.30274 c 0.89167,0 1.5015,0.22692 1.89063,0.65039 v 0.002 h 0.002 c 0.31507,0.33308 0.43143,0.95033 0.5293,1.59375 h -4.85938 c 0.0452,-0.24329 0.037,-0.62762 0.10352,-0.81055 v -0.002 c 0.19624,-0.55193 0.47562,-0.90507 0.83398,-1.10742 0.38896,-0.21216 0.88527,-0.32617 1.5,-0.32617 z m -3.28515,2.74609 h 0.28906 c -0.0285,0.27969 -0.0989,0.47935 -0.10547,0.80469 h -0.24609 z"
               id="path1895" />
          </g>
          <g
             id="path1820"
             style="fill:#ffffff;fill-opacity:1;stroke:#6d6d6d;stroke-width:0.5;stroke-dasharray:none;stroke-opacity:0.07">
            <path
               style="color:#000000;-inkscape-font-specification:'Maven Pro';fill:#ffffff;fill-opacity:1;stroke:#6d6d6d;stroke-width:0.5;stroke-dasharray:none;stroke-opacity:0.07"
               d="m 222.99726,113.28683 h -1.4224 V 99.675219 h 1.4224 z"
               id="path1899" />
            <path
               style="color:#000000;-inkscape-font-specification:'Maven Pro';fill:#ffffff;fill-opacity:1;stroke:#6d6d6d;stroke-width:0.5;stroke-dasharray:none;stroke-opacity:0.07"
               d="m 221.32422,99.425781 v 14.111329 h 1.92383 v -0.25 -13.861329 z m 0.5,0.5 h 0.92383 v 13.111329 h -0.92383 z"
               id="path1901" />
          </g>
          <g
             id="path1822"
             style="fill:#ffffff;fill-opacity:1;stroke:#6d6d6d;stroke-width:0.5;stroke-dasharray:none;stroke-opacity:0.07">
            <path
               style="color:#000000;-inkscape-font-specification:'Maven Pro';fill:#ffffff;fill-opacity:1;stroke:#6d6d6d;stroke-width:0.5;stroke-dasharray:none;stroke-opacity:0.07"
               d="m 229.55612,113.58316 q -0.65193,0 -1.32362,-0.13829 -0.65194,-0.13829 -1.22485,-0.47413 -0.55315,-0.33585 -0.90876,-0.90876 -0.33584,-0.59267 -0.33584,-1.48167 0,-1.22485 0.45438,-1.9558 0.47413,-0.75072 1.28411,-1.06681 0.82974,-0.33584 1.89654,-0.33584 0.80998,0 1.40265,0.0988 0.59267,0.0988 1.04704,0.29633 0.47414,0.1778 0.84949,0.41487 l 0.27658,1.30387 q -0.45438,-0.33585 -1.32362,-0.57292 -0.84949,-0.25682 -1.87678,-0.25682 -1.24461,0 -1.9163,0.47414 -0.67169,0.47413 -0.67169,1.38289 0,0.73096 0.39511,1.16558 0.41487,0.43462 1.0273,0.61242 0.63217,0.1778 1.28411,0.1778 1.28411,0 1.93605,-0.1778 0.67169,-0.19755 0.67169,-0.86924 v -4.52404 q 0,-1.14582 -0.67169,-1.67922 -0.67169,-0.5334 -1.91629,-0.5334 -0.79023,0 -1.67923,0.23706 -0.86925,0.21732 -1.50143,0.71121 v -1.42241 q 0.61243,-0.39511 1.63972,-0.59267 1.02729,-0.21731 1.99531,-0.21731 0.65194,0 1.2051,0.13829 0.55315,0.11854 0.98778,0.37536 0.43462,0.23707 0.73095,0.63218 0.31609,0.37535 0.47414,0.889 0.1778,0.49389 0.1778,1.12607 v 4.78085 q 0,1.04705 -0.63218,1.5607 -0.61243,0.51364 -1.61996,0.67169 -0.98778,0.15804 -2.13361,0.15804 z"
               id="path1905" />
            <path
               style="color:#000000;-inkscape-font-specification:'Maven Pro';fill:#ffffff;fill-opacity:1;stroke:#6d6d6d;stroke-width:0.5;stroke-dasharray:none;stroke-opacity:0.07"
               d="m 230.36523,103.00195 c -0.66405,0 -1.34646,0.0745 -2.04687,0.22266 -0.70292,0.13581 -1.27831,0.34028 -1.72266,0.62695 l -0.11523,0.0723 v 2.07226 l 0.4043,-0.3164 c 0.39166,-0.30599 0.8581,-0.52653 1.4082,-0.66406 l 0.002,-0.002 h 0.002 c 0.57485,-0.15329 1.11342,-0.22851 1.61524,-0.22851 0.79402,0 1.37086,0.16968 1.75976,0.47851 0.37953,0.30139 0.57813,0.76935 0.57813,1.48438 v 0.78906 c -0.10424,-0.0471 -0.19128,-0.10635 -0.30273,-0.14844 -0.32539,-0.14145 -0.69393,-0.24585 -1.10547,-0.31445 -0.41334,-0.0689 -0.89321,-0.10156 -1.44336,-0.10156 -0.73744,0 -1.40254,0.11564 -1.99024,0.35351 -0.58582,0.22925 -1.06091,0.62345 -1.40234,1.16406 v 0.002 c -0.33598,0.54047 -0.49219,1.24041 -0.49219,2.08789 0,0.62415 0.11686,1.16371 0.36719,1.60547 l 0.004,0.004 0.002,0.004 c 0.25616,0.41269 0.58788,0.74594 0.99023,0.99023 l 0.002,0.002 h 0.002 c 0.40472,0.23724 0.83856,0.40627 1.29883,0.5039 h 0.002 c 0.37921,0.0781 0.75315,0.10488 1.125,0.11914 v 0.0254 h 0.25 c 0.77538,0 1.49847,-0.0544 2.17188,-0.1621 0.70335,-0.11034 1.28836,-0.34844 1.73828,-0.72461 0.48597,-0.39486 0.72461,-1.00556 0.72461,-1.75391 v -4.78125 c 0,-0.44268 -0.0607,-0.8452 -0.18946,-1.20508 -0.11386,-0.36746 -0.28796,-0.69319 -0.51953,-0.96875 -0.21665,-0.28628 -0.48704,-0.51877 -0.80273,-0.6914 -0.31175,-0.1834 -0.6624,-0.31678 -1.04883,-0.4004 -0.39119,-0.0978 -0.81332,-0.14453 -1.26563,-0.14453 z m 0,0.5 c 0.41695,0 0.79818,0.0423 1.14454,0.12891 l 0.006,0.002 h 0.004 c 0.34572,0.0741 0.64784,0.19151 0.91211,0.34766 l 0.004,0.002 0.004,0.002 c 0.25946,0.14152 0.47364,0.32682 0.65039,0.5625 l 0.004,0.006 0.006,0.006 c 0.18776,0.22296 0.32916,0.48677 0.42578,0.80079 l 0.002,0.006 0.002,0.006 c 0.10702,0.29728 0.16211,0.643 0.16211,1.04102 v 4.78125 c 0,0.64772 -0.18214,1.07523 -0.53907,1.36523 l -0.002,0.002 -0.002,0.002 c -0.36624,0.30716 -0.85966,0.51509 -1.49805,0.61523 -0.64363,0.10298 -1.34136,0.15625 -2.09375,0.15625 -0.41694,0 -0.84129,-0.0458 -1.27344,-0.13476 -0.40719,-0.0866 -0.7887,-0.23198 -1.14648,-0.44141 l -0.002,-0.002 c -0.33251,-0.20239 -0.60336,-0.47431 -0.82032,-0.82227 -0.19578,-0.34781 -0.30078,-0.7948 -0.30078,-1.35351 0,-0.78485 0.14668,-1.38824 0.41602,-1.82227 0.29022,-0.45953 0.66917,-0.77443 1.16211,-0.96679 l 0.002,-0.002 h 0.002 c 0.51862,-0.20991 1.11777,-0.3164 1.80274,-0.3164 0.52982,0 0.98443,0.0309 1.36133,0.0937 0.37867,0.0631 0.70784,0.15738 0.98828,0.27929 l 0.006,0.004 0.006,0.002 c 0.18397,0.069 0.33168,0.15637 0.49023,0.23828 v 0.66407 c -0.18735,-0.0721 -0.30351,-0.16921 -0.52734,-0.23047 -5.9e-4,-1.8e-4 -10e-4,1.7e-4 -0.002,0 -0.59257,-0.17894 -1.24226,-0.26758 -1.94726,-0.26758 -0.86149,0 -1.55332,0.16148 -2.06055,0.51953 -0.50927,0.35948 -0.77734,0.92046 -0.77734,1.58789 0,0.53235 0.1506,0.99262 0.46093,1.33399 l 0.002,0.002 0.002,0.002 c 0.30725,0.32188 0.69252,0.55016 1.13867,0.67969 h 0.002 c 0.443,0.1246 0.8942,0.1875 1.35156,0.1875 0.86761,0 1.52713,-0.056 2.00195,-0.18555 l 0.002,-0.002 h 0.002 c 0.26069,-0.0767 0.48081,-0.20816 0.63086,-0.40234 0.15005,-0.19418 0.2207,-0.44147 0.2207,-0.70704 v -1.76757 c 0.0174,0.0119 0.0599,0.0212 0.0762,0.0332 l 0.5293,0.39062 -0.43555,-2.05078 -0.0898,-0.0566 c -0.0239,-0.0151 -0.0557,-0.0244 -0.0801,-0.0391 v -1.0332 c 0,-0.81273 -0.24956,-1.46519 -0.76563,-1.875 -0.50668,-0.40237 -1.20681,-0.58789 -2.07226,-0.58789 -0.55182,0 -1.13366,0.0833 -1.74414,0.24609 -0.45339,0.11379 -0.82038,0.33959 -1.1875,0.56445 v -0.86523 c 0.36347,-0.21502 0.82244,-0.3993 1.4375,-0.51758 h 0.002 0.002 c 0.66931,-0.14158 1.31673,-0.21094 1.94336,-0.21094 z m -0.59179,5.25391 c 0.66402,0 1.26508,0.083 1.80468,0.24609 l 0.004,0.002 h 0.002 c 0.30081,0.082 0.44985,0.18826 0.66602,0.28515 v 1.98242 c 0,0.18223 -0.0414,0.30483 -0.11523,0.4004 -0.0738,0.0956 -0.18985,0.17348 -0.37696,0.22851 -0.39459,0.10716 -1.02245,0.16797 -1.86523,0.16797 -0.41125,0 -0.81558,-0.0559 -1.21485,-0.16797 h -0.002 c -0.36869,-0.10733 -0.66693,-0.28679 -0.91211,-0.54297 -0.21475,-0.23779 -0.32812,-0.5537 -0.32812,-0.99414 0,-0.54424 0.18009,-0.907 0.5664,-1.17969 0.38836,-0.27414 0.97349,-0.42773 1.77149,-0.42773 z"
               id="path1907" />
          </g>
          <g
             id="path1824"
             style="fill:#ffffff;fill-opacity:1;stroke:#6d6d6d;stroke-width:0.5;stroke-dasharray:none;stroke-opacity:0.07">
            <path
               style="color:#000000;-inkscape-font-specification:'Maven Pro';fill:#ffffff;fill-opacity:1;stroke:#6d6d6d;stroke-width:0.5;stroke-dasharray:none;stroke-opacity:0.07"
               d="m 237.10278,104.21901 q 0.47413,-0.23707 0.96802,-0.41487 0.51365,-0.19756 1.02729,-0.31609 0.53341,-0.11853 1.06681,-0.1778 0.55315,-0.0593 1.10631,-0.0593 1.44216,0 2.29165,0.43463 0.84949,0.41486 1.22485,1.22484 0.39511,0.80998 0.39511,1.95581 v 6.42057 h -1.4224 v -6.42057 q 0,-0.3556 -0.0988,-0.75072 -0.079,-0.39511 -0.33585,-0.75071 -0.25682,-0.37535 -0.79022,-0.59267 -0.5334,-0.23706 -1.4224,-0.23706 -0.61243,0 -1.26436,0.0988 -0.65194,0.0988 -1.32363,0.29634 v 8.35662 h -1.4224 z"
               id="path1911" />
            <path
               style="color:#000000;-inkscape-font-specification:'Maven Pro';fill:#ffffff;fill-opacity:1;stroke:#6d6d6d;stroke-width:0.5;stroke-dasharray:none;stroke-opacity:0.07"
               d="m 241.27148,103 c -0.3777,0 -0.75526,0.022 -1.13281,0.0625 h -0.002 c -0.36469,0.0405 -0.72953,0.10071 -1.09375,0.18164 h -0.002 c -0.35232,0.0813 -0.70379,0.18956 -1.05469,0.32422 -5.6e-4,2e-4 -0.001,-2e-4 -0.002,0 -0.001,5.3e-4 -0.003,0.001 -0.004,0.002 -0.33659,0.12143 -0.6673,0.26431 -0.99024,0.42578 l -0.13671,0.0684 v 0.1543 9.31836 h 1.92187 v -8.4082 c 0.37486,-0.10299 0.74743,-0.1929 1.11133,-0.24805 0.42315,-0.0641 0.83172,-0.0957 1.22656,-0.0957 0.57045,0 1.01182,0.0777 1.32031,0.21484 l 0.004,0.002 0.004,0.002 c 0.322,0.13119 0.53937,0.29973 0.67773,0.50195 l 0.002,0.002 0.002,0.004 c 0.15262,0.2113 0.24768,0.42588 0.29297,0.65234 l 0.002,0.006 0.002,0.006 c 0.0616,0.24629 0.0899,0.47749 0.0899,0.69141 v 6.66992 h 1.92382 v -6.66992 c 0,-0.79104 -0.1373,-1.48149 -0.41992,-2.0625 l -0.002,-0.002 c -0.27338,-0.58838 -0.72919,-1.0419 -1.33789,-1.33984 C 243.05663,103.14752 242.25727,103 241.27148,103 Z m 0,0.5 c 0.93633,0 1.66248,0.14458 2.17774,0.4082 l 0.002,0.002 h 0.002 c 0.52173,0.25479 0.88059,0.61598 1.10743,1.10547 l 0.002,0.002 v 0.002 c 0.24304,0.49824 0.37109,1.11251 0.37109,1.84766 v 6.16992 h -0.92382 v -6.16992 c 0,-0.25645 -0.0354,-0.5246 -0.10352,-0.80078 v -0.002 c -0.0599,-0.29829 -0.18699,-0.5805 -0.375,-0.84179 -0.20378,-0.29784 -0.51196,-0.52311 -0.90039,-0.68164 h -0.002 c -0.40169,-0.17702 -0.90394,-0.25586 -1.51563,-0.25586 -0.42173,0 -0.85665,0.0339 -1.30273,0.10156 -0.44646,0.0677 -0.8975,0.16805 -1.35547,0.30273 l -0.17969,0.0527 v 8.29492 h -0.92187 v -8.65234 c 0.26377,-0.12628 0.52981,-0.24746 0.80273,-0.34571 h 0.002 l 0.002,-0.002 c 0.33141,-0.12747 0.66221,-0.22845 0.99218,-0.30469 0.34636,-0.077 0.69319,-0.13532 1.03907,-0.17383 0.35998,-0.0386 0.72023,-0.0586 1.08007,-0.0586 z"
               id="path1913" />
          </g>
          <g
             id="path1826"
             style="fill:#ffffff;fill-opacity:1;stroke:#6d6d6d;stroke-width:0.5;stroke-dasharray:none;stroke-opacity:0.07">
            <path
               style="color:#000000;-inkscape-font-specification:'Maven Pro';fill:#ffffff;fill-opacity:1;stroke:#6d6d6d;stroke-width:0.5;stroke-dasharray:none;stroke-opacity:0.07"
               d="m 252.41338,113.58316 q -1.40264,0 -2.42993,-0.57291 -1.0273,-0.59267 -1.58045,-1.75825 -0.55316,-1.16558 -0.55316,-2.90407 0,-2.54848 1.14583,-3.81283 1.16558,-1.28412 3.18065,-1.28412 1.58045,0 2.52871,0.7112 0.96803,0.71121 1.3829,1.9163 0.41486,1.20509 0.39511,2.72627 h -7.922 l 0.0988,-1.30387 h 6.8947 l -0.55315,0.19756 q -0.0593,-1.48167 -0.75071,-2.21263 -0.6717,-0.73096 -2.07434,-0.73096 -0.96803,0 -1.61996,0.3556 -0.63218,0.3556 -0.94827,1.24461 -0.31609,0.86924 -0.31609,2.44969 0,1.79776 0.82973,2.74603 0.8495,0.92851 2.37068,0.92851 0.73095,0 1.34338,-0.0988 0.61242,-0.11853 1.12607,-0.31609 0.51364,-0.19755 0.90875,-0.43462 v 1.46192 q -0.7112,0.33584 -1.58044,0.51364 -0.84949,0.1778 -1.87679,0.1778 z"
               id="path1917" />
            <path
               style="color:#000000;-inkscape-font-specification:'Maven Pro';fill:#ffffff;fill-opacity:1;stroke:#6d6d6d;stroke-width:0.5;stroke-dasharray:none;stroke-opacity:0.07"
               d="m 252.17578,103.00195 c -1.39648,0 -2.53999,0.45607 -3.36523,1.36524 -0.82001,0.90483 -1.21094,2.24401 -1.21094,3.98047 0,1.1855 0.18871,2.19117 0.57812,3.01172 0.38744,0.81638 0.95216,1.44633 1.68164,1.86718 v 0.002 h 0.002 c 0.72713,0.40551 1.5836,0.60546 2.55273,0.60546 h 0.10352 l 0.01,-0.0117 c 0.6512,-0.007 1.26135,-0.0567 1.8125,-0.17188 0.59666,-0.12204 1.14243,-0.29979 1.63672,-0.5332 l 0.14453,-0.0664 v -2.0625 l -0.3789,0.22656 c -0.2487,0.14922 -0.53794,0.28864 -0.86914,0.41602 -0.32466,0.12487 -0.68385,0.22635 -1.07618,0.30273 -5.8e-4,1e-4 -10e-4,-9e-5 -0.002,0 -0.39239,0.0632 -0.82741,0.0957 -1.30273,0.0957 -0.96093,0 -1.6658,-0.2823 -2.18164,-0.84375 v -0.002 c -0.45236,-0.51766 -0.64707,-1.3355 -0.69336,-2.32812 h 7.11328 l 0.002,-0.24805 c 0.0135,-1.0377 -0.12069,-1.97539 -0.4082,-2.81054 -0.29082,-0.84475 -0.784,-1.53137 -1.46875,-2.03516 -0.68551,-0.51413 -1.58856,-0.75977 -2.67969,-0.75977 z m 0,0.5 c 1.01613,0 1.80007,0.22603 2.37891,0.66016 h 0.002 v 0.002 c 0.60479,0.44434 1.0329,1.03381 1.29492,1.79492 0.24091,0.69978 0.33349,1.51691 0.34571,2.39649 h -6.62305 c 0.008,-0.33529 0.0724,-0.52682 0.10351,-0.80469 h 5.07618 l 0.0117,0.29688 0.87305,-0.31055 -0.084,-0.48633 h -0.45313 c -0.10055,-0.76801 -0.24925,-1.49018 -0.66992,-1.93555 -0.50651,-0.54897 -1.27921,-0.81054 -2.25586,-0.81054 -0.67596,0 -1.25799,0.12474 -1.73828,0.38672 h -0.002 l -0.002,0.002 c -0.48352,0.27198 -0.83572,0.74658 -1.06054,1.37891 -0.0877,0.24143 -0.075,0.67227 -0.12696,0.97851 h -0.81836 l -0.13671,1.80469 h 0.78515 c 0.0401,1.10819 0.29825,2.0211 0.85742,2.66016 l 0.002,0.002 0.002,0.002 c 0.6165,0.67384 1.4897,1.00977 2.55469,1.00977 0.49856,0 0.95908,-0.0332 1.38281,-0.10157 l 0.004,-0.002 h 0.004 c 0.42092,-0.0815 0.8101,-0.19048 1.16797,-0.32812 0.21237,-0.0817 0.38519,-0.1789 0.57031,-0.27149 v 0.88672 c -0.42053,0.18595 -0.87122,0.34302 -1.38086,0.44727 h -0.002 c -0.54655,0.11439 -1.15377,0.17382 -1.82422,0.17382 -0.90105,0 -1.666,-0.1846 -2.30859,-0.54296 -0.63907,-0.36934 -1.1269,-0.90968 -1.47656,-1.64649 -0.34814,-0.73356 -0.5293,-1.6644 -0.5293,-2.79687 0,-1.66152 0.37427,-2.86357 1.08203,-3.64453 0.72887,-0.803 1.70387,-1.20118 2.99414,-1.20118 z m 0,1.30274 c 0.89167,0 1.50149,0.22692 1.89063,0.65039 l 0.002,0.002 c 0.31509,0.33311 0.4334,0.95025 0.53125,1.59375 h -4.85938 c 0.0453,-0.24329 0.037,-0.62762 0.10352,-0.81055 v -0.002 c 0.19624,-0.55193 0.47563,-0.90507 0.83398,-1.10742 7.1e-4,-4e-4 10e-4,-0.002 0.002,-0.002 0.38847,-0.21103 0.88305,-0.32422 1.49609,-0.32422 z m -3.2832,2.74609 h 0.28711 c -0.0285,0.27964 -0.097,0.47943 -0.10352,0.80469 h -0.24609 z"
               id="path1919" />
          </g>
          <g
             id="path1828"
             style="fill:#ffffff;fill-opacity:1;stroke:#6d6d6d;stroke-width:0.5;stroke-dasharray:none;stroke-opacity:0.07">
            <path
               style="color:#000000;-inkscape-font-specification:'Maven Pro';fill:#ffffff;fill-opacity:1;stroke:#6d6d6d;stroke-width:0.5;stroke-dasharray:none;stroke-opacity:0.07"
               d="m 264.97797,113.28683 v -13.17699 h 1.4224 v 11.7941 h 6.73666 v 1.38289 z"
               id="path1923" />
            <path
               style="color:#000000;-inkscape-font-specification:'Maven Pro';fill:#ffffff;fill-opacity:1;stroke:#6d6d6d;stroke-width:0.5;stroke-dasharray:none;stroke-opacity:0.07"
               d="m 264.72852,99.859375 v 13.677735 h 0.25 8.4082 v -1.88281 h -6.73633 V 99.859375 Z m 0.5,0.500005 h 0.92187 v 11.79492 h 6.73633 v 0.88281 h -7.6582 z"
               id="path1925" />
          </g>
          <g
             id="path1830"
             style="fill:#ffffff;fill-opacity:1;stroke:#6d6d6d;stroke-width:0.5;stroke-dasharray:none;stroke-opacity:0.07">
            <path
               style="color:#000000;-inkscape-font-specification:'Maven Pro';fill:#ffffff;fill-opacity:1;stroke:#6d6d6d;stroke-width:0.5;stroke-dasharray:none;stroke-opacity:0.07"
               d="m 275.29041,113.28683 v -9.85805 h 1.42241 v 9.85805 z m -0.079,-11.6163 v -1.56069 h 1.58045 v 1.56069 z"
               id="path1929" />
            <path
               style="color:#000000;-inkscape-font-specification:'Maven Pro';fill:#ffffff;fill-opacity:1;stroke:#6d6d6d;stroke-width:0.5;stroke-dasharray:none;stroke-opacity:0.07"
               d="m 274.96094,99.859375 v 2.060545 h 0.25 1.83008 v -2.060545 z m 0.5,0.500005 h 1.08008 v 1.06054 h -1.08008 z m -0.41992,2.82031 v 10.35742 h 0.25 1.67187 v -10.35742 z m 0.5,0.5 h 0.92187 v 9.35742 h -0.92187 z"
               id="path1931" />
          </g>
          <g
             id="path1832"
             style="fill:#ffffff;fill-opacity:1;stroke:#6d6d6d;stroke-width:0.5;stroke-dasharray:none;stroke-opacity:0.07">
            <path
               style="color:#000000;-inkscape-font-specification:'Maven Pro';fill:#ffffff;fill-opacity:1;stroke:#6d6d6d;stroke-width:0.5;stroke-dasharray:none;stroke-opacity:0.07"
               d="m 283.05435,113.44487 q -1.04704,0 -1.75824,-0.63218 -0.71121,-0.65193 -0.71121,-1.91629 v -6.16375 h -1.71873 v -1.30387 h 1.71873 v -2.78554 h 1.42241 v 2.78554 h 2.54847 v 1.30387 h -2.54847 v 5.70937 q 0,0.82974 0.25682,1.2446 0.25682,0.41487 1.04705,0.41487 0.3556,0 0.69144,-0.0593 0.33585,-0.079 0.55316,-0.1778 v 1.34338 q -0.27658,0.0988 -0.7112,0.15805 -0.41487,0.079 -0.79023,0.079 z"
               id="path1935" />
            <path
               style="color:#000000;-inkscape-font-specification:'Maven Pro';fill:#ffffff;fill-opacity:1;stroke:#6d6d6d;stroke-width:0.5;stroke-dasharray:none;stroke-opacity:0.07"
               d="m 280.33398,100.39258 v 2.78711 h -1.71875 v 1.80273 h 1.71875 v 5.91406 c 0,0.88979 0.25949,1.6106 0.79297,2.09961 l 0.002,0.002 0.002,0.002 c 0.51966,0.46193 1.17549,0.69531 1.92383,0.69531 h 0.25 V 113.67 c 0.18852,-0.0115 0.37513,-0.0192 0.57422,-0.0566 l 0.0117,-0.002 c 0.29509,-0.0408 0.54463,-0.0946 0.75,-0.16797 l 0.16602,-0.0586 v -1.90821 l -0.35352,0.16016 c -0.12255,0.0557 -0.29332,0.11037 -0.5039,0.16016 -0.002,4e-4 -0.002,0.002 -0.004,0.002 -0.20486,0.0354 -0.41632,0.0527 -0.63476,0.0527 -0.48307,0 -0.72318,-0.11787 -0.83399,-0.29687 -0.13195,-0.21315 -0.21875,-0.58592 -0.21875,-1.11328 v -5.45899 h 2.54883 v -1.80273 h -2.54883 v -2.78711 z m 0.5,0.5 h 0.92383 v 2.78711 h 2.54883 v 0.80273 h -2.54883 v 5.95899 c 0,0.57895 0.0825,1.03695 0.29297,1.37695 0.23162,0.37415 0.6892,0.5332 1.25977,0.5332 0.25096,0 0.49755,-0.0203 0.73632,-0.0625 l 0.006,-0.002 0.008,-0.002 c 0.0965,-0.0227 0.16164,-0.0545 0.24609,-0.0801 v 0.80469 c -0.14306,0.0401 -0.28761,0.079 -0.49609,0.10742 l -0.006,0.002 -0.008,0.002 c -0.26296,0.0501 -0.50948,0.0742 -0.74218,0.0742 -0.64771,0 -1.1632,-0.18933 -1.5918,-0.57031 -0.41288,-0.38015 -0.62891,-0.93436 -0.62891,-1.72852 v -6.41406 h -1.71875 v -0.80273 h 1.71875 z"
               id="path1937" />
          </g>
          <g
             id="path1834"
             style="fill:#ffffff;fill-opacity:1;stroke:#6d6d6d;stroke-width:0.5;stroke-dasharray:none;stroke-opacity:0.07">
            <path
               style="color:#000000;-inkscape-font-specification:'Maven Pro';fill:#ffffff;fill-opacity:1;stroke:#6d6d6d;stroke-width:0.5;stroke-dasharray:none;stroke-opacity:0.07"
               d="m 291.19369,113.58316 q -1.40265,0 -2.42994,-0.57291 -1.02729,-0.59267 -1.58045,-1.75825 -0.55316,-1.16558 -0.55316,-2.90407 0,-2.54848 1.14583,-3.81283 1.16558,-1.28412 3.18065,-1.28412 1.58045,0 2.52872,0.7112 0.96802,0.71121 1.38289,1.9163 0.41487,1.20509 0.39511,2.72627 h -7.92199 l 0.0988,-1.30387 h 6.89471 l -0.55316,0.19756 q -0.0593,-1.48167 -0.75071,-2.21263 -0.67169,-0.73096 -2.07434,-0.73096 -0.96802,0 -1.61996,0.3556 -0.63218,0.3556 -0.94827,1.24461 -0.31609,0.86924 -0.31609,2.44969 0,1.79776 0.82974,2.74603 0.84949,0.92851 2.37067,0.92851 0.73096,0 1.34338,-0.0988 0.61243,-0.11853 1.12607,-0.31609 0.51365,-0.19755 0.90876,-0.43462 v 1.46192 q -0.7112,0.33584 -1.58045,0.51364 -0.84949,0.1778 -1.87678,0.1778 z"
               id="path1941" />
            <path
               style="color:#000000;-inkscape-font-specification:'Maven Pro';fill:#ffffff;fill-opacity:1;stroke:#6d6d6d;stroke-width:0.5;stroke-dasharray:none;stroke-opacity:0.07"
               d="m 290.95703,103.00195 c -1.39648,0 -2.53999,0.45607 -3.36523,1.36524 h -0.002 c -0.82001,0.90483 -1.20898,2.24401 -1.20898,3.98047 0,1.1855 0.18676,2.19117 0.57617,3.01172 0.38744,0.81638 0.95216,1.44633 1.68164,1.86718 l 0.002,0.002 h 0.002 c 0.72713,0.40551 1.58164,0.60546 2.55078,0.60546 h 0.0762 l 0.0117,-0.008 c 0.66249,-0.005 1.28045,-0.0587 1.83984,-0.17578 0.59667,-0.12204 1.14243,-0.29979 1.63672,-0.5332 l 0.14258,-0.0664 v -2.0625 l -0.37891,0.22656 c -0.24869,0.14922 -0.53793,0.28864 -0.86914,0.41602 -0.32465,0.12487 -0.68384,0.22635 -1.07617,0.30273 -5.8e-4,1e-4 -0.001,-9e-5 -0.002,0 -0.39238,0.0632 -0.82545,0.0957 -1.30078,0.0957 -0.96093,0 -1.66776,-0.2823 -2.1836,-0.84375 v -0.002 c -0.45236,-0.51766 -0.64706,-1.3355 -0.69336,-2.32812 h 7.11329 l 0.004,-0.24805 c 0.0135,-1.0377 -0.12068,-1.97538 -0.4082,-2.81054 -0.29082,-0.84475 -0.78596,-1.53137 -1.4707,-2.03516 -0.68552,-0.51413 -1.58661,-0.75977 -2.67774,-0.75977 z m 0,0.5 c 1.01613,0 1.80006,0.22603 2.37891,0.66016 l 0.002,0.002 c 0.60478,0.44434 1.0329,1.03381 1.29492,1.79492 0.24091,0.69978 0.3335,1.51691 0.34571,2.39649 h -6.625 c 0.008,-0.33529 0.0724,-0.52682 0.10351,-0.80469 h 5.07617 l 0.0117,0.29688 0.87305,-0.31055 -0.084,-0.48633 h -0.45312 c -0.10044,-0.76702 -0.24629,-1.48838 -0.66602,-1.93359 -0.50645,-0.55115 -1.27928,-0.8125 -2.25781,-0.8125 -0.67596,0 -1.25994,0.12474 -1.74023,0.38672 h -0.002 v 0.002 c -0.48276,0.27155 -0.83567,0.74612 -1.06054,1.37695 -0.0879,0.24182 -0.0768,0.67357 -0.12891,0.98047 h -0.81641 l -0.13671,1.80469 h 0.7832 c 0.0401,1.1082 0.3002,2.0211 0.85937,2.66016 v 0.002 l 0.002,0.002 c 0.61649,0.67384 1.49165,1.00977 2.55664,1.00977 0.49857,0 0.95909,-0.0332 1.38281,-0.10157 l 0.004,-0.002 h 0.004 c 0.42093,-0.0815 0.81011,-0.19048 1.16797,-0.32812 0.21214,-0.0816 0.38341,-0.17901 0.56836,-0.27149 v 0.88672 c -0.42015,0.18564 -0.87181,0.34314 -1.38086,0.44727 -0.54655,0.11439 -1.15573,0.17382 -1.82617,0.17382 -0.89945,0 -1.66282,-0.18392 -2.30469,-0.54101 l -0.002,-0.002 c -0.63907,-0.36934 -1.12884,-0.90968 -1.47852,-1.64649 -0.34813,-0.73356 -0.52734,-1.6644 -0.52734,-2.79687 0,-1.66152 0.37232,-2.86357 1.08008,-3.64453 0.72886,-0.803 1.70582,-1.20118 2.99609,-1.20118 z m 0,1.30274 c 0.89167,0 1.5015,0.22692 1.89063,0.65039 v 0.002 h 0.002 c 0.31506,0.33308 0.43143,0.95032 0.5293,1.59375 h -4.85938 c 0.0453,-0.24329 0.037,-0.62762 0.10352,-0.81055 v -0.002 c 0.19624,-0.55193 0.47562,-0.90507 0.83398,-1.10742 0.38896,-0.21216 0.88527,-0.32617 1.5,-0.32617 z m -3.28516,2.74609 h 0.28907 c -0.0285,0.27969 -0.0989,0.47935 -0.10547,0.80469 h -0.2461 z"
               id="path1943" />
          </g>
        </g>
      </g>
    </g>
  </g>
</svg>
