<?xml version="1.0" encoding="UTF-8" standalone="no"?>
<!-- Created with Inkscape (http://www.inkscape.org/) -->

<svg
   version="1.1"
   id="svg10"
   width="32"
   height="32"
   viewBox="0 0 32 32"
   xmlns="http://www.w3.org/2000/svg"
   xmlns:svg="http://www.w3.org/2000/svg">
  <defs
     id="defs14" />
  <g
     id="layer3">
    <path
       id="path188"
       style="fill:#848484;fill-opacity:1;stroke:#000000;stroke-width:0.605147;stroke-opacity:1"
       d="M 10.474609,0.30273438 C 10.05307,0.28675065 9.5489701,0.40428219 8.8867188,0.7734375 c 0,0 0.057748,1.4858518 -0.1601563,2.1816406 C 8.6221203,3.2885713 8.4825642,3.6612421 8.1933594,3.8574219 7.8268071,4.1060699 7.312779,4.1606428 6.8808594,4.0625 6.0800235,3.8805305 4.8496094,2.6679688 4.8496094,2.6679688 3.890387,2.9415254 3.014979,3.3601503 2.6757812,4.71875 l 0.3476563,0.328125 c 0,0 0.749505,0.5805725 0.9648437,0.9863281 C 4.1649306,6.3660575 4.2729599,6.7686189 4.2128906,7.140625 4.1450207,7.5609411 3.9192754,7.9933147 3.578125,8.2480469 2.795382,8.8325092 0.7265625,8.9238281 0.7265625,8.9238281 0.11641238,10.031765 0.1792058,11.050955 0.74609375,12.001953 c 0,0 1.73632525,-0.176126 2.52343745,0.123047 0.3363995,0.127862 0.6387471,0.380608 0.8417969,0.677734 0.2306106,0.337457 0.4502367,0.767368 0.3691407,1.167969 -0.1799726,0.889027 -1.7636719,2.072266 -1.7636719,2.072266 0.4340354,1.150386 1.0036316,2.083334 2.2148437,1.990234 0,0 0.9441953,-0.73914 1.4570313,-1.169922 0.512836,-0.430782 1.1693857,-0.411858 1.5488281,-0.185547 1.1137255,0.664264 1.0058594,1.490235 1.0058594,1.490235 l -0.060547,1.517578 c 0.915967,0.590597 1.9985496,0.55565 3.2285156,-0.03125 l -0.04102,-1.068359 c 0,0 -0.0094,-0.81801 0.369141,-1.455079 0.362502,-0.610082 0.923828,-0.554687 0.923828,-0.554687 0,0 0.570044,-0.122291 1.554688,0.677734 0.984642,0.800027 0.884765,0.572266 0.884765,0.572266 0.879259,-0.40166 1.671903,-0.872526 1.916016,-1.347656 0,0 0.382078,-0.354138 -0.5,-1.646485 -0.882077,-1.292345 -0.307781,-2.33876 0.287109,-2.728515 0.59489,-0.389752 2.277344,-0.369141 2.277344,-0.369141 0.547382,-0.965698 0.72073,-1.9756446 -0.06055,-3.0976562 0,0 -1.354306,0.042009 -2.03125,-0.019531 -0.676943,-0.06154 -0.972423,-0.9389847 -1.146484,-1.2871094 -0.174063,-0.3481245 0.116719,-1.102813 0.464844,-1.625 0.348124,-0.5221869 1.21875,-0.7539062 1.21875,-0.7539062 -0.31343,-1.8293534 -1.353751,-2.2054255 -2.4375,-2.4941407 0,0 -0.71948,0.9347837 -1.21875,1.21875 C 14.16477,3.9075496 13.671127,4.1001863 13.208984,4.0214844 12.899839,3.9688374 12.602101,3.7593344 12.425781,3.5 11.903263,2.7314667 11.845703,0.7734375 11.845703,0.7734375 11.42154,0.56438108 11.016589,0.32328487 10.474609,0.30273438 Z m -0.04492,6.79687502 a 3.1180463,3.1180463 0 0 1 3.117187,3.1171876 3.1180463,3.1180463 0 0 1 -3.117187,3.119141 3.1180463,3.1180463 0 0 1 -3.1191411,-3.119141 3.1180463,3.1180463 0 0 1 3.1191411,-3.1171876 z" />
  </g>
  <g
     id="layer4">
    <g
       id="g1517">
      <path
         id="path188-6"
         style="display:inline;fill:#848484;fill-opacity:1;stroke:#000000;stroke-width:0.605147;stroke-opacity:1"
         d="m 24.886719,12.046875 c -0.220929,0.003 -0.464558,0.03906 -0.736328,0.113281 0,0 -0.449919,1.417201 -0.890625,1.998047 -0.211232,0.278401 -0.468081,0.581349 -0.806641,0.667969 -0.429108,0.109787 -0.931545,-0.01331 -1.304687,-0.251953 C 20.456582,14.13174 20.003906,12.25 20.003906,12.25 c -1.575241,-0.47059 -2.420344,0.0163 -2.740234,1.193359 l -0.07813,0.751953 c 0,0 0.509049,0.797243 0.574219,1.251954 0.05346,0.373013 0.01847,0.789473 -0.164063,1.11914 -0.206231,0.37248 -0.711512,0.489904 -0.972656,0.826172 -1.082293,1.393633 -2.354385,-0.528242 -3.148438,-0.269531 -1.108187,0.104079 -0.923903,0.788744 -0.787109,2.431641 0,0 1.692789,0.834708 2.332031,1.382812 0.273203,0.234252 0.4721,0.573535 0.5625,0.921875 0.102672,0.395622 0.16317,0.875159 -0.04883,1.224609 -0.470472,0.775511 -2.361328,1.351563 -2.361328,1.351563 0.188181,0.95477 0.17267,1.968078 1.410156,2.623047 0,0 1.137188,-0.375819 1.765625,-0.607422 0.628438,-0.231605 1.241131,0.0101 1.521485,0.351562 0.822881,1.002246 0.441406,1.742188 0.441406,1.742188 l -0.570313,1.408203 c 0.969775,0.727392 2.001204,0.957902 3.048828,1.0625 l 0.322266,-1.017578 c 0,0 0.267891,-0.774906 0.839844,-1.246094 0.547725,-0.451228 1.05664,-0.207031 1.05664,-0.207031 10e-7,0 0.57893,0.07585 1.234376,1.162109 0.655444,1.086262 0.638671,0.839844 0.638671,0.839844 0.726721,0.110666 1.865798,-0.199218 2.435547,-0.794922 0,0 0.302335,-0.02823 -0.08984,-1.542969 -0.392177,-1.514732 0.503569,-2.303542 1.195313,-2.46875 0.691742,-0.165205 2.267578,0.423828 2.267578,0.423828 0.881382,-0.381566 1.044604,-1.540249 0.990235,-2.935546 0,0 -1.286264,-0.419829 -1.902344,-0.707032 -0.616079,-0.287202 -0.596728,-1.213104 -0.642578,-1.599609 -0.04585,-0.386505 0.481903,-0.997696 0.986328,-1.371094 0.504425,-0.3734 1.402344,-0.296875 1.402344,-0.296875 0.291365,-1.676767 -0.592102,-2.412333 -1.447266,-3.171875 0,0 -0.99265,0.634362 -1.558594,0.732422 -0.461912,0.08004 -0.992227,0.09582 -1.40039,-0.134765 -0.273038,-0.154251 -0.482497,-0.452132 -0.560547,-0.75586 -0.231305,-0.900093 0.376953,-2.761719 0.376953,-2.761719 -0.558393,-0.545361 -1.089519,-1.128422 -2.046875,-1.115234 z m -2.296875,6.408203 a 3.1180463,3.1180463 0 0 1 0.86914,0.177734 3.1180463,3.1180463 0 0 1 1.876954,3.990235 A 3.1180463,3.1180463 0 0 1 21.345703,24.5 3.1180463,3.1180463 0 0 1 19.46875,20.511719 3.1180463,3.1180463 0 0 1 22.589844,18.455078 Z" />
    </g>
  </g>
</svg>
